<?xml version="1.0" encoding="UTF-8"?>
<svg id="Capa_2" data-name="Capa 2" xmlns="http://www.w3.org/2000/svg" xmlns:xlink="http://www.w3.org/1999/xlink" viewBox="0 0 78.56 52.09">
  <defs>
    <style>
      .cls-1 {
        fill: #fbc151;
      }

      .cls-2 {
        fill: none;
      }

      .cls-2, .cls-3 {
        stroke: #1d1d1b;
        stroke-miterlimit: 10;
      }

      .cls-4 {
        filter: url(#drop-shadow-1);
      }

      .cls-5 {
        fill: #eb6728;
      }

      .cls-6 {
        fill: #c2c4c7;
      }

      .cls-7 {
        fill: #1d1d1b;
      }

      .cls-3 {
        fill: #ffe774;
        stroke-width: .02px;
      }
    </style>
    <filter id="drop-shadow-1" x="0" y="43.05" width="78.56" height="9.03" filterUnits="userSpaceOnUse">
      <feOffset dx=".46" dy=".46"/>
      <feGaussianBlur result="blur" stdDeviation=".37"/>
      <feFlood flood-color="#1d1d1b" flood-opacity=".5"/>
      <feComposite in2="blur" operator="in"/>
      <feComposite in="SourceGraphic"/>
    </filter>
  </defs>
  <g id="Capa_1-2" data-name="Capa 1">
    <g>
      <g class="cls-4">
        <path class="cls-7" d="M7.54,49.59c-.13-.14-.36-.16-.51-.03-.64.54-1.44.85-2.2.85-1.68,0-2.99-1.27-2.99-2.88s1.31-2.87,2.99-2.87c.77,0,1.59.34,2.19.9.07.07.17.1.27.1.1,0,.2-.05.26-.13l.61-.75c.12-.15.1-.36-.04-.48-.9-.79-2.11-1.25-3.33-1.25-2.69,0-4.8,1.97-4.8,4.49s2.09,4.54,4.75,4.54c1.18,0,2.45-.5,3.38-1.33.15-.13.16-.35.02-.5l-.62-.67Z"/>
        <path class="cls-7" d="M13.43,43.05c-2.76,0-4.84,1.94-4.84,4.5s2.13,4.53,4.84,4.53,4.84-1.99,4.84-4.53-2.13-4.5-4.84-4.5M13.45,50.46c-1.66,0-3.01-1.3-3.01-2.9s1.35-2.88,3.01-2.88,2.97,1.27,2.97,2.88-1.33,2.9-2.97,2.9"/>
        <path class="cls-7" d="M27.15,43.09h-1.06c-.2,0-.37.16-.37.36v5.4s0,.03-.03.04c-.03,0-.04,0-.04-.01l-4.3-5.64c-.07-.09-.18-.14-.29-.14h-1.16c-.2,0-.36.16-.36.36v8.22c0,.2.16.36.36.36h1.08c.2,0,.36-.16.36-.36v-5.39s0-.03.03-.04c.03,0,.04,0,.04.01l4.28,5.62c.07.09.18.14.29.14h1.16c.2,0,.36-.16.36-.36v-8.22c0-.2-.16-.36-.36-.36"/>
        <path class="cls-7" d="M35.5,43.09h-6.67c-.2,0-.36.16-.36.36v.91c0,.2.16.36.36.36h2.38s.04.02.04.04v6.92c0,.2.16.36.36.36h1.08c.2,0,.36-.16.36-.36v-6.92s.02-.04.04-.04h2.4c.2,0,.36-.16.36-.36v-.91c0-.2-.16-.36-.36-.36"/>
        <path class="cls-7" d="M43.23,50.4h-4.56s-.04-.02-.04-.04v-1.98s.02-.04.04-.04h3.91c.2,0,.36-.16.36-.36v-.91c0-.2-.16-.36-.36-.36h-3.91s-.04-.02-.04-.04v-1.93s.02-.04.04-.04h4.41c.2,0,.36-.16.36-.36v-.91c0-.2-.16-.36-.36-.36h-5.9c-.2,0-.36.16-.36.36v8.22c0,.2.16.36.36.36h6.05c.2,0,.36-.16.36-.36v-.91c0-.2-.16-.36-.36-.36"/>
        <path class="cls-7" d="M60.27,49.04c1.1-.51,1.71-1.52,1.71-2.85,0-1.97-1.36-3.1-3.72-3.1h-3.38c-.2,0-.36.16-.36.36v8.22c0,.2.16.36.36.36h1.08c.2,0,.36-.16.36-.36v-2.2s.02-.04.04-.04h1.89c.1,0,.19,0,.29,0,.02,0,.03,0,.04.02l1.49,2.41c.07.11.19.17.31.17h1.2c.14,0,.26-.07.32-.19.06-.12.06-.26-.02-.37l-1.63-2.38s0-.02,0-.03c0,0,0-.02.02-.02M60.24,46.23c0,1.05-.67,1.58-1.98,1.58h-1.89s-.04-.02-.04-.04v-3.02s.02-.04.04-.04h1.89c1.31,0,1.98.51,1.98,1.51"/>
        <path class="cls-7" d="M68.27,43.31c-.06-.13-.19-.21-.34-.21h-1.26c-.15,0-.28.08-.33.21l-3.72,8.22c-.05.11-.04.24.03.34.07.1.18.16.31.16h1.11c.15,0,.28-.09.34-.22l.74-1.7s.02-.02.04-.02h4.18s.03,0,.04.02l.74,1.7c.06.13.19.22.34.22h1.15c.12,0,.24-.06.31-.16.07-.1.08-.23.03-.34l-3.68-8.22ZM67.22,45.29s.02-.02.03-.02c.02,0,.03,0,.04.02l1.36,3.13s0,.03,0,.03c0,0-.01.02-.03.02h-2.72s-.03,0-.03-.02c0,0,0-.02,0-.03l1.36-3.13Z"/>
        <path class="cls-7" d="M78.2,50.39h-3.42s-.04-.02-.04-.04v-6.9c0-.2-.16-.36-.36-.36h-1.08c-.2,0-.37.16-.37.36v8.22c0,.2.16.36.37.36h4.9c.2,0,.36-.16.36-.36v-.92c0-.2-.16-.36-.36-.36"/>
        <path class="cls-7" d="M52.38,47.47h-2.04c-.18,0-.32.14-.32.31v.82c0,.17.14.31.32.31h.78v1s0,.03-.02.03c-.59.33-1.27.51-1.85.51-1.72,0-3.06-1.28-3.06-2.9s1.34-2.89,3.05-2.89c.81,0,1.64.3,2.29.82.07.06.17.09.27.08.1,0,.19-.06.25-.14l.6-.76c.12-.15.09-.37-.06-.49-.92-.71-2.14-1.12-3.34-1.12-2.79,0-4.89,1.94-4.89,4.5s2.11,4.53,4.8,4.53c1.17,0,2.49-.42,3.44-1.09.09-.07.15-.17.15-.29v-2.88c0-.2-.16-.36-.36-.36"/>
      </g>
      <g>
        <ellipse class="cls-7" cx="39.26" cy="20.52" rx="20.12" ry="20.52"/>
        <path class="cls-2" d="M33.08,27.61c0,.19-.15.34-.34.34s-.34-.15-.34-.34.15-.34.34-.34.34.15.34.34Z"/>
        <path class="cls-3" d="M39.63,31.28c-1.56,0-2.83,1.27-2.83,2.83,0,.39.08.75.22,1.09h5.22c.14-.34.22-.7.22-1.09,0-1.56-1.27-2.83-2.83-2.83ZM38.47,33.69c-.22,0-.39-.17-.39-.38s.18-.38.39-.38.39.17.39.38-.18.38-.39.38ZM40.61,33.69c-.22,0-.39-.17-.39-.38s.18-.38.39-.38.39.17.39.38-.18.38-.39.38ZM47.62,26.69c-.48.29-.78.41-1.32.46-.42.02-.48-.24-.48-.24-.08-.22.03-.5.37-.49.29-.03.65-.1.95-.28.3-.19.48-.39.48-.39,2.75-2.45,1.15-5.69,1.15-5.69l-3.96,2.12-2.11,1.18-.21-.36,1.31-.85s.46-.3-.01-.65c-1.23-.69-2.65-1.08-4.15-1.08-1.93,0-3.72.65-5.16,1.74-.22.18,0,.36,0,.36l1.31.85-.23.33-1.74-.97-4.23-2.3s-1.69,3.69,1.76,6.16t0,0s.62.41,1.48.69c.2.05.29.24.27.43-.03.19-.27.27-.41.24-.14-.03-.81-.14-1.6-.65-.17.71-.26,1.45-.26,2.22-.23,4.87,3.61,9.1,8.83,9.1,5.22,0,8.77-4.07,8.77-9.1,0-.99-.15-1.95-.44-2.84-.21-.17-.36,0-.36,0ZM35.87,26.61c0-.26.24-.48.53-.48s.53.21.53.48-.24.48-.53.48-.53-.21-.53-.48ZM41.98,36.37c-.57.72-1.36,1.17-2.36,1.17-.89,0-1.69-.36-2.27-.95-.28-.41.24-.41.24-.41h4.24s.21,0,.14.18ZM42.48,35.55h-5.71c-.22-.43-.34-.92-.34-1.44,0-1.77,1.43-3.2,3.2-3.2s3.2,1.43,3.2,3.2c0,.52-.12,1.01-.34,1.44ZM42.29,27.09c-.29,0-.53-.21-.53-.48s.24-.48.53-.48.53.21.53.48-.24.48-.53.48ZM41.41,36.53c-.49.4-1.11.64-1.78.64s-1.3-.24-1.78-.64h3.57Z"/>
        <path class="cls-5" d="M38.35,7.23l.33,12.34s-3,.32-4.89,1.98l-4.14-2.12s-.53-.28-.77.41c-.24.69-1.6,3.78,1.42,7.02,0,0-1.9,5.62,3.02,10.12,0,0,.2.17.05.41-.15.18-.34.09-.34.09,0,0-9.29-2.82-11.59-15.03-1.05-8.31,4.15-14.02,4.15-14.02,0,0,.77-.88,1.87-.02,0,0,.4.33.39.94,0,.61.09,3.08.09,3.08,0,0,.25,2.81,2.99,2.81,2.66-.03,2.84-2.86,2.84-2.86l-.17-2.7s-1.25-.76-1.25-2.25,1.09-3.18,2.94-3.18,3.06,1.54,3.05,3ZM35.3,6.25c-.51,0-.93.41-.93.93s.41.93.93.93.93-.41.93-.93-.41-.93-.93-.93ZM32.86,10.66s-1.16.93-1.22,2.04c0,.72.36.88.69.97.34.08.86-.48.86-.76s.25-1.68-.34-2.25Z"/>
        <path class="cls-1" d="M31.8,7.39s.07.87.24,1.17c0,0-1.25-.54-1.65-.96-.12-.09-.1-.22.02-.22.12,0,1.38,0,1.38,0ZM31.8,7.03s.07-.87.24-1.17c0,0-1.25.54-1.65.96-.12.09-.1.22.02.22.12,0,1.38,0,1.38,0ZM34.8,3.75s2.27-.24,3.43,1.39c0,0,.16-.58,0-1.2-.03-.48-.21-.5-.46-.55-.25-.05-.61-.05-.91-.42-.3-.37-.75-.44-1.07-.25s-.84.75-.99,1.04Z"/>
        <path class="cls-6" d="M44.41,2.98s-.71-.13-1.06-.11c-.35.02-.43.31-.08.43.35.12,1.36.77,2.23,1.8,0,0,.17.89-.54,1.56-.71.66-1.22.55-1.77.46,0,0-.48-1.04-1.62-1.74-1.27-.51-2.14.56-2.12,1.23l.37,12.39s.39,1.08,2.11,1.22c0,0,1.05.08,1.62.3,0,0,2.99-1.72,4.02-2.15,0,0,.25.17.19.49l-2.74,1.56s-.15.15-.02.37c.14.22.39.09.39.09l3.2-1.77s.49-.35.74.23c0,0,2.08,3.79-.74,6.73,0,0,2.17,5.97-2.3,10.78,0,0-.15.12-.04.31.11.18.36.07.36.07,0,0,10.62-3.5,10.62-17.85-1.02-13.21-12.82-16.4-12.82-16.4ZM39.9,10.7s.22-.54.63-.87c.34-.17.34-.34,1.31-.82.33-.12.25.08.25.08l-.28.56s-.08.19.02.34c.1.15,0,.44-.09.57-.1.13-.3.32-.65.24-.35-.08-.87-.22-1.19-.11ZM41.75,19.13c-.07.05-.37.11-.57-.03-.2-.15-.19-.25-.22-.43-.03-.18-.23-.56-.33-.63-.1-.08-.1-.42.22-.51,0,0,.99-.3,1.26.54.15.48-.29,1.03-.36,1.08ZM45.55,10.14c-1.21.15-1.92-.22-1.92-.22v-.4s3.23.88,4.35-1.9c0,0-.42-.4-1.04-.67-.63-.27-1.05.05-1.05.05l-2.42,1.3s-.06.08-.2-.07c-.09-.18.08-.3.08-.3l2.68-1.5s1.22-.19,2.52,1c0,0-.44,2.16-3,2.7Z"/>
      </g>
    </g>
  </g>
</svg>