<?xml version="1.0" encoding="UTF-8"?>
<svg id="Capa_2" data-name="Capa 2" xmlns="http://www.w3.org/2000/svg" viewBox="0 0 100.91 30.1">
  <defs>
    <style>
      .cls-1 {
        fill: #e03127;
      }
    </style>
  </defs>
  <g id="Capa_1-2" data-name="Capa 1">
    <g>
      <path class="cls-1" d="M100.91,30.1h-10.98c-5.97,0-12.32-4.14-12.33-15.33,0-9.16,5.76-14.78,12.33-14.78h10.98v9.75h-8.01c-1.43,0-4.81.56-4.81,5.22s3.37,5.35,4.81,5.35h8.01v9.79Z"/>
      <path class="cls-1" d="M27.37,20.55c3.87,0,5.01-2.17,5.01-4.85s-1.14-4.84-5.01-4.84h-5.41v-2.6h12.14V0H11.2v10.85h-6.21c-3.87,0-4.99,2.17-4.99,4.84s1.12,4.85,4.99,4.85h6.08v9.56h10.89v-9.56h5.41Z"/>
      <path class="cls-1" d="M61.26,30.1l4.79-21.69v21.69h9.59V0h-10.16c-6.1,0-6.68,3.07-7.51,6.74l-2.01,9.77-2-9.77c-.83-3.67-1.4-6.74-7.51-6.74h-10.16v30.1h9.59V8.42l4.79,21.69h10.59Z"/>
    </g>
  </g>
</svg>