<?xml version="1.0" encoding="UTF-8"?>
<svg id="Capa_2" data-name="Capa 2" xmlns="http://www.w3.org/2000/svg" viewBox="0 0 142.88 38.37">
  <defs>
    <style>
      .cls-1 {
        fill: #603913;
      }

      .cls-2 {
        fill: #8dc63f;
      }

      .cls-3 {
        fill: #0033a1;
      }
    </style>
  </defs>
  <g id="Capa_1-2" data-name="Capa 1">
    <g>
      <path class="cls-1" d="M10.15,33.25c.19-.5.38-.98.55-1.45.79.79,2.64,2.88,3.95,6.55h-.64c-.6-1.79-2.48-2.72-3.36-3.05-.24-.83-.4-1.52-.5-2.05M4.19,38.35h1.12c.05-.81.1-1.52.14-1.93-.45.64-.86,1.29-1.26,1.93M7.76,33.11c.1.57.26,1.36.43,2.24.33-1.41.71-2.69,1.07-3.83h-.26c-.4.52-.83,1.05-1.24,1.6M5.98,33.7c.5-.81.98-1.52,1.43-2.19h-1.86c-1.17.76-2.43,1.71-3.43,2.83.69-1.05,1.71-2,2.83-2.83H1.81l-1.81,6.86h.69c1.55-1.81,3.36-3.43,5.29-4.67M7.38,33.73l.02-.12c-.33.45-.64.91-.98,1.36-.36,1.07-.6,2.26-.76,3.38h1.88c.14-.69.26-1.33.4-1.98-.4-1.57-.57-2.64-.57-2.64M1.31,38.35h2.07c.64-1.26,1.26-2.41,1.86-3.43-.79.57-2.26,1.74-3.93,3.43M10.91,36.11c.24.67.52,1.43.88,2.24h2.17c-.26-.38-1.14-1.64-3.05-2.24M8.41,38.35h.17c-.02-.1-.07-.17-.1-.26-.02.1-.05.19-.07.26M9.24,38.35h1.81c-.36-.62-.69-1.26-.98-1.91-.29.55-.57,1.21-.83,1.91M64.38,31.51H12.69c.86,1.88,1.81,4.31,2.52,6.86h47.35l1.81-6.86ZM9.77,35.7c-.1-.21-.19-.45-.26-.67-.29.79-.55,1.57-.81,2.41.07.31.17.62.24.93h.1c.29-1.14.57-2.1.74-2.67"/>
      <path class="cls-3" d="M66.05,25.46c-.17.71-.52,1.41-1.07,2-.55.62-1.14,1.1-1.79,1.45s-1.19.55-1.64.55h-9.86c-.81,0-1.48-.21-2-.64-.52-.43-.88-.98-1.05-1.62-.19-.64-.21-1.26-.07-1.86l1.17-4.93c.12-.52.36-1.05.71-1.55s.76-.93,1.21-1.31.95-.67,1.45-.91c.5-.21.95-.33,1.36-.33h9.72c.43,0,.93.14,1.5.45.57.29,1.02.76,1.36,1.43s.38,1.5.14,2.55l-1.14,4.72ZM62.66,24.2l.64-2.69c.12-.57.05-1.05-.21-1.43-.29-.4-.83-.6-1.64-.6h-5.67c-.21,0-.5.1-.88.26-.36.17-.69.4-1,.67-.31.29-.5.57-.57.88l-.64,2.57c-.14.62-.1,1.12.12,1.55s.62.62,1.26.62h6.31c.5,0,.98-.14,1.41-.43.43-.26.71-.74.88-1.41M82.69,16.31l-6.93,8.86c-.19.24-.33.4-.43.5-.1.1-.24.14-.4.14-.14,0-.26-.05-.31-.12-.05-.1-.12-.26-.19-.52l-2.69-8.86h-4.17l3.33,11.34c.05.26.19.57.43.91s.57.64,1.02.88c.45.26,1.02.38,1.67.38.69,0,1.31-.12,1.86-.36s1-.52,1.36-.83.67-.67.98-1.05l8.72-11.27h-4.24ZM101.96,29.44h-3.86l.21-.93c-.17.21-.4.43-.76.62-.36.19-.64.29-.88.29h-10.41c-.29,0-.55-.07-.79-.21-.24-.17-.43-.36-.55-.62s-.14-.57-.07-.91c.14-.64.33-1.48.55-2.45.21-.98.33-1.5.36-1.57.17-.74.5-1.31.98-1.74s.98-.64,1.5-.64h9.86c.45,0,.81.12,1.1.36s.48.48.57.71l.29-1.19c.05-.24.05-.5-.05-.76-.1-.26-.24-.48-.48-.64-.21-.17-.52-.26-.88-.26h-11.79l.76-3.22h13.31c.57,0,1.05.14,1.5.43.43.29.79.64,1.07,1.1s.48.91.57,1.38.1.91.02,1.29l-2.14,8.98ZM98.34,25.37c.05-.17.02-.31-.07-.45s-.21-.24-.36-.33c-.17-.1-.29-.12-.4-.12h-7.26c-.33,0-.6.12-.79.33-.19.24-.29.4-.33.55-.07.26-.02.48.1.64s.29.24.45.24h7.6c.17,0,.36-.1.62-.26.24-.17.38-.38.45-.6M11.22,7.41h-3.6L2.38,29.44h3.6L11.22,7.41ZM48.83,15.93h-3.67l-2.05,8.69c-.05.24-.12.43-.21.57-.07.14-.24.19-.45.19-.19,0-.33-.05-.45-.12s-.24-.26-.38-.55l-4.43-7.76c-.19-.33-.5-.62-.88-.91-.38-.29-.98-.43-1.76-.43-.62,0-1.19.12-1.69.36s-.93.55-1.26.88c-.36.36-.62.69-.81,1-.19.33-.31.57-.36.76l-2.55,10.77h3.62l2.19-9.29c.05-.17.12-.29.26-.38.14-.1.26-.14.38-.14.17,0,.31.05.4.12.1.07.21.26.33.52l4.33,7.91c.29.64.62,1.07.95,1.31s.91.36,1.74.36c.79,0,1.5-.19,2.1-.6.62-.4,1.1-.86,1.45-1.41.36-.52.57-1,.67-1.38l2.52-10.48ZM29.2,15.93h-3.69l-2.05,8.69c-.05.24-.12.43-.21.57s-.24.19-.45.19c-.19,0-.33-.05-.45-.12-.12-.07-.24-.26-.36-.55l-4.43-7.76c-.19-.33-.48-.62-.88-.91-.38-.29-.98-.43-1.76-.43-.62,0-1.19.12-1.69.36s-.93.55-1.29.88c-.36.36-.62.69-.81,1-.19.33-.31.57-.36.76l-2.55,10.77h3.62l2.19-9.29c.05-.17.12-.29.26-.38s.26-.14.38-.14c.17,0,.31.05.4.12s.21.26.33.52l4.33,7.91c.29.64.62,1.07.95,1.31s.91.36,1.74.36c.79,0,1.5-.19,2.1-.6.62-.4,1.1-.86,1.45-1.41.36-.52.57-1,.67-1.38l2.55-10.48ZM116.78,0l-7.86,1.19.05.74c.67-.14,1.17-.21,1.48-.21.48,0,.83.12,1.1.33s.38.5.38.83c0,.26-.02.57-.1.91l-.57,2.02-6.81,23.7h3.93L116.78,0ZM73.38,36.2c.12-.43.12-.81.02-1.1s-.26-.5-.48-.62-.43-.24-.64-.29-.33-.07-.36-.07h-2.45l-.43,1.6h1.93c.12,0,.24.05.31.12.1.1.1.21.07.38-.05.17-.14.29-.29.4-.17.1-.31.14-.5.14h-2.62c-.24,0-.43-.05-.57-.14-.17-.1-.26-.24-.33-.4-.05-.17-.05-.38,0-.62l.4-1.52c.05-.14.14-.31.29-.45.14-.14.31-.26.52-.36.19-.1.4-.14.6-.14h5.17l.43-1.6h-6.29c-.33,0-.69.1-1.05.29-.36.19-.69.43-.95.71s-.45.55-.5.81l-.81,3.07c-.1.33-.05.64.12.93.17.29.4.55.69.71.29.19.57.26.83.26h4.43c.29,0,.55-.05.83-.17.26-.12.52-.26.74-.48.21-.19.4-.43.57-.69.1-.21.21-.5.31-.79M81.79,36.75h-4.69c-.12,0-.24-.05-.38-.14s-.26-.21-.33-.38c-.07-.17-.1-.36-.02-.6l1.1-4.1h-1.91l-1.33,5.05c-.05.17-.02.4.1.69.12.29.29.55.5.76.24.21.5.33.81.33h5.74l.43-1.62ZM120.49,36.75h-4.69c-.12,0-.24-.05-.38-.14s-.26-.21-.33-.38-.1-.36-.02-.6l1.1-4.1h-1.91l-1.33,5.05c-.05.17-.02.4.1.69.12.29.29.55.5.76.24.21.5.33.81.33h5.74l.43-1.62ZM92.03,36.27c-.1.38-.29.71-.6,1.05-.31.31-.62.57-.98.76-.36.19-.64.29-.88.29h-5.29c-.43,0-.79-.12-1.07-.33s-.45-.5-.55-.83c-.1-.33-.1-.67-.02-.98l.69-2.57c.07-.29.21-.55.4-.81s.4-.48.67-.67.5-.36.79-.48c.26-.12.5-.17.71-.17h5.19c.24,0,.5.07.81.24.31.14.55.4.71.74s.19.79.05,1.33l-.64,2.43ZM90.24,35.63l.38-1.41c.07-.29.05-.55-.1-.76-.14-.21-.43-.31-.88-.31h-3.05c-.12,0-.29.05-.48.14s-.38.21-.55.36-.29.31-.31.48l-.36,1.33c-.07.31-.07.6.05.81s.33.33.67.33h3.38c.29,0,.52-.07.76-.21.21-.17.38-.4.48-.76M111.42,38.35h-2.05l.12-.48c-.1.12-.21.21-.4.33-.19.1-.33.14-.48.14h-5.57c-.14,0-.29-.05-.43-.12-.14-.07-.21-.19-.29-.33-.05-.14-.07-.29-.02-.48.1-.33.19-.76.33-1.29.12-.52.19-.79.21-.81.1-.38.29-.69.55-.91.26-.21.52-.33.81-.33h5.26c.24,0,.43.07.57.19s.24.24.29.38l.17-.62c.02-.12.02-.26-.02-.4s-.12-.24-.24-.33-.26-.14-.48-.14h-6.31l.45-1.67h7.15c.31,0,.57.07.79.21.24.14.4.33.55.57.14.24.24.48.29.74.05.24.05.48,0,.67l-1.24,4.67ZM109.54,36.23c.02-.1.02-.17-.02-.24s-.12-.12-.19-.17-.14-.07-.21-.07h-3.88c-.19,0-.31.05-.43.19-.1.12-.17.21-.19.29-.05.14-.02.26.05.33.07.1.14.14.24.14h4.05c.1,0,.19-.05.33-.14.14-.1.24-.21.26-.33M102.34,32.2c-.07-.19-.19-.36-.33-.5-.17-.14-.36-.21-.57-.21h-7.24l-1.81,6.86h7.79c.24,0,.45-.07.64-.19.19-.12.33-.29.45-.45.12-.17.19-.33.21-.45l.36-1.36c.05-.21.02-.4-.12-.57-.14-.17-.33-.36-.57-.57.24-.14.4-.26.5-.33s.19-.17.26-.29c.07-.12.14-.26.19-.43l.26-.98c.07-.17.05-.33-.02-.52M99.7,36.27c-.02.12-.1.21-.19.31s-.21.12-.33.12h-4.38l.24-.93h4.31c.33.02.45.17.36.5M100.22,33.61c-.05.17-.14.31-.31.4-.17.1-.29.14-.38.14h-4.05l.29-1.1h3.98c.19,0,.33.07.4.19.07.12.1.24.07.36M110.44,22.17s8.81-11.74,25.87-16.58c-5.6,1.36-16.48,4.6-25.15,13.17-.02.07-.71,3.41-.71,3.41M113.39,19.65c1.29,5.64,2.22,8.88,2.76,9.69.31.45.76.69,1.33.69.67,0,1.41-.31,2.19-.91.81-.6,1.95-1.86,3.45-3.74l-.74-.52c-.81,1.14-1.57,1.98-2.29,2.5-.31.24-.6.36-.81.36-.29,0-.55-.29-.81-.83s-.76-2.31-1.52-5.29c-.45-1.79-.81-3.19-1.12-4.19l-2.45,2.24Z"/>
      <path class="cls-2" d="M120.21,17.55s4.53.64,9.17-1.95c4.64-2.57,8.1-10.36,12.96-11.27-1.86-.26-20.17-.43-24.58,8.1.5-2.48,5.1-9.93,25.13-8.17-.95.14-3.98,1.62-5.5,5.05-1.55,3.43-6.95,9.88-17.17,8.24"/>
    </g>
  </g>
</svg>