<?xml version="1.0" encoding="UTF-8"?>
<svg id="Capa_2" data-name="Capa 2" xmlns="http://www.w3.org/2000/svg" viewBox="0 0 70.92 54.56">
  <defs>
    <style>
      .cls-1 {
        fill: #e74a0f;
      }

      .cls-1, .cls-2, .cls-3, .cls-4 {
        fill-rule: evenodd;
      }

      .cls-2 {
        fill: #f49d00;
      }

      .cls-3 {
        fill: #fd0;
      }

      .cls-4 {
        fill: #fff;
      }
    </style>
  </defs>
  <g id="Capa_1-2" data-name="Capa 1">
    <g>
      <path class="cls-2" d="M33.15,48.79c-5.62-.38-11.18-.12-16.59-.21,6.93,5.98,18.38,7.41,27.09,4.57.87-.28,2.76-.74,5.25-1.64-.05-.01-.11-.03-.16-.04-5.23-1.39-10.44-2.33-15.6-2.68h0ZM16.16,8.48c-3.07,2.99-6.3,7.23-8.83,11.11-.5.77-.97,1.58-1.38,2.43C14.56,14.68,26.7,9.82,36.49,3.32c0,0,.01,0,.02-.01-7.84-1.11-14.12-.9-20.35,5.18h0ZM62.42,11.02c3.5,7.75,5.83,15.85,7.22,23.6,2.92-8.3,1-19.48-7.22-23.6h0Z"/>
      <path class="cls-3" d="M65.55,41.23c-6.03,5.77-12.27,8.71-16.64,10.28,13.68,3.57,23.13-3.52,20.73-16.9-.91,2.58-2.29,4.89-4.09,6.61h0ZM16.56,48.58c-3.4-2.93-7.2-6.79-9.55-9.98-4.08-5.53-3.49-11.61-1.07-16.58-.01,0-.02.02-.03.03-11.74,10.03-4.86,26.26,10.65,26.53h0ZM36.84,3.35c5.07.74,15.17,2.44,25.58,7.66-.04-.08-.08-.17-.11-.25C57.21-.41,45.81-2.86,36.5,3.3c.11.02.22.03.34.05h0Z"/>
      <path class="cls-1" d="M5.94,22.02c-2.42,4.96-3.01,11.05,1.07,16.58,2.35,3.19,6.16,7.04,9.55,9.98,5.41.09,10.97-.17,16.59.21,5.16.35,10.36,1.29,15.6,2.68.05.01.11.03.16.04,4.36-1.57,10.61-4.51,16.64-10.28,1.8-1.73,3.18-4.03,4.09-6.61-1.39-7.75-3.71-15.85-7.22-23.6-10.41-5.22-20.51-6.93-25.58-7.66-.11-.02-.23-.03-.34-.05,0,0-.01,0-.02.01C26.7,9.82,14.56,14.68,5.94,22.02h0Z"/>
      <path class="cls-4" d="M13.67,34.18h2.1c.12,0,.21-.09.21-.21v-8.91c0-.09-.06-.17-.14-.2-.82-.28-2.38-.17-2.38,1.49v7.62c0,.12.09.21.21.21h0ZM42.55,29.44c0-1.42,1.41-2.56,2.46-2.56s1.43.24,2.07.67c.06.04.24.06.38-.05.45-.38.65-1.69-.07-2.18-.73-.47-1.6-.75-2.53-.75-2.63,0-4.76,2.18-4.76,4.87s2.13,4.87,4.76,4.87c1.19,0,2.28-.45,3.11-1.19.08-.07.09-.19.03-.28l-1-1.44c-.04-.05-.09-.08-.15-.09-.06,0-.12.01-.17.05-.44.39-1.02.63-1.65.63-1.38,0-2.5-1.15-2.5-2.56h0ZM60.53,34.18h2.1c.12,0,.21-.09.21-.21v-12.65c0-.09-.05-.18-.14-.2-.84-.2-2.38-.06-2.38,1.61v11.24c0,.12.09.21.21.21h0ZM53.68,34.31c-2.7,0-4.88-2.18-4.88-4.87s2.19-4.87,4.88-4.87,4.88,2.18,4.88,4.87-2.19,4.87-4.88,4.87h0ZM53.68,32c-1.33,0-2.42-1.15-2.42-2.56s1.08-2.56,2.42-2.56,2.42,1.15,2.42,2.56-1.08,2.56-2.42,2.56h0ZM31.52,34.18h2.1c.12,0,.21-.09.21-.21v-8.91c0-.09-.06-.17-.14-.2-.73-.24-2.04-.19-2.33.99-.81-.79-1.88-1.27-3.05-1.27-2.5,0-4.53,2.18-4.53,4.87s2.03,4.87,4.53,4.87c1.15,0,2.2-.46,3-1.22v.87c0,.12.09.21.21.21h0ZM28.69,32.08c-1.38,0-2.49-1.17-2.49-2.62s1.12-2.62,2.49-2.62,2.49,1.17,2.49,2.62-1.12,2.62-2.49,2.62h0ZM36.07,34.18h2.11c.12,0,.21-.09.21-.21v-12.65c0-.09-.05-.18-.14-.2-.84-.2-2.38-.06-2.38,1.61v11.24c0,.12.09.21.21.21h0ZM14.72,20.15c.88,0,1.6.72,1.6,1.6s-.72,1.6-1.6,1.6-1.6-.72-1.6-1.6.72-1.6,1.6-1.6h0ZM18,30.62h0c0,1.93,1.55,3.51,3.47,3.55.36.01.74,0,1.1,0,.12,0,.21-.09.21-.21v-2.11c0-.12-.09-.21-.21-.21h-1.02c-.68,0-1.03-.53-1.03-1.16v-3.31h1.96c.12,0,.21-.09.21-.21v-1.82c0-.12-.09-.21-.21-.21h-1.96v-2.82c-.76-.34-2.53-.33-2.53,1.44v7.06h0Z"/>
    </g>
  </g>
</svg>