<?xml version="1.0" encoding="UTF-8"?>
<svg id="Capa_2" data-name="Capa 2" xmlns="http://www.w3.org/2000/svg" viewBox="0 0 116.47 26.81">
  <defs>
    <style>
      .cls-1 {
        fill: #50b66f;
      }

      .cls-2 {
        fill: #2b834c;
      }

      .cls-3 {
        fill: #8bc34a;
      }
    </style>
  </defs>
  <g id="Capa_1-2" data-name="Capa 1">
    <g id="uuid-84049bde-1b44-4152-9a8a-947354a150b8" data-name="Capa 1-2">
      <g>
        <g>
          <path class="cls-3" d="M8.04,6.04c-.62-1.01-1.35-2.2-2.16-3.57-.81,1.4-1.5,2.55-2.09,3.54-1.74,2.89-2.6,4.34-2.6,5.63s.87,2.74,2.6,5.63c.59.99,1.28,2.14,2.09,3.54.83-1.43,1.55-2.63,2.16-3.66,1.79-2.98,2.66-4.41,2.59-5.73-.06-1.23-.93-2.65-2.6-5.38M6.37.86c1.05,1.81,1.91,3.23,2.63,4.4,1.8,2.93,2.73,4.46,2.81,6.08.09,1.77-.85,3.33-2.8,6.57-.73,1.22-1.61,2.68-2.64,4.49l-.5.87-.5-.87c-.98-1.73-1.85-3.17-2.57-4.38C.94,14.91,0,13.35,0,11.64s.94-3.27,2.81-6.39c.72-1.21,1.59-2.65,2.57-4.38l.49-.86.5.86Z"/>
          <path class="cls-1" d="M7.02,8.35c-.33-.54-.71-1.16-1.13-1.86-.42.72-.78,1.32-1.09,1.84-1.06,1.76-1.57,2.62-1.55,3.34.02.7.54,1.56,1.55,3.26.31.52.67,1.12,1.09,1.83.43-.74.81-1.36,1.13-1.91,1.09-1.82,1.6-2.66,1.54-3.39-.05-.67-.57-1.52-1.54-3.1M6.38,4.89c.65,1.12,1.17,1.98,1.61,2.69,1.09,1.78,1.67,2.72,1.75,3.75.1,1.22-.49,2.19-1.75,4.29-.45.74-.98,1.64-1.61,2.74l-.5.87-.5-.87c-.59-1.04-1.12-1.93-1.57-2.67-1.14-1.91-1.73-2.88-1.76-3.98-.03-1.16.56-2.14,1.76-4.14.44-.74.98-1.63,1.57-2.67l.49-.86.5.86Z"/>
          <path class="cls-2" d="M7.68,11.9c-.07.4-.31.79-.69,1.43h0c-.15.25-.33.55-.59,1l-.5.87-.5-.87c-.21-.36-.41-.7-.57-.98h0c-.39-.65-.62-1.03-.69-1.46h1.26c.08.16.22.39.4.69h0l.09.16.11-.18h0c.18-.3.3-.51.39-.67h1.28ZM6.4,8.9c.25.44.44.73.59.98.4.65.63,1.03.7,1.46h-1.26c-.08-.16-.22-.38-.41-.69l-.11-.18-.1.16c-.19.32-.32.54-.41.7h-1.27c.07-.42.3-.81.69-1.46.17-.28.37-.61.57-.98l.49-.86.5.86h0Z"/>
        </g>
        <path class="cls-3" d="M54.29,13.22c.04-.15.08-.3.11-.47.03-.17.05-.29.06-.38.26-1.64.04-3-.67-4.06-.71-1.07-1.7-1.6-2.97-1.6-.2,0-.37.01-.49.04s-.21.03-.27.03c-1.05.2-1.82.57-2.3,1.12-.55.62-.94,1.65-1.17,3.09-.03.17-.05.3-.06.39-.02.11-.03.22-.05.32s-.03.2-.05.3c-.08,1.24.08,2.27.5,3.1.41.83,1.07,1.41,1.95,1.76.27.11.55.19.85.26.3.06.57.09.81.09.89,0,1.66-.34,2.29-1.01.64-.67,1.12-1.67,1.47-2.98M56.71,9.82c.1.71.09,1.45-.03,2.21-.24,1.52-.87,2.88-1.9,4.07-1.02,1.2-2.25,1.98-3.68,2.36-.66.17-1.27.26-1.84.26-1.43,0-2.62-.47-3.55-1.42-.93-.94-1.44-2.21-1.53-3.79-.03-.49,0-1.02.09-1.6.3-1.91,1.15-3.52,2.55-4.81,1.4-1.29,2.95-1.94,4.65-1.94.49,0,1,.07,1.53.2,1.02.27,1.85.8,2.5,1.58.65.78,1.05,1.74,1.21,2.87h0ZM41.37,10.28c.19-.37.32-.73.38-1.08.1-.65-.02-1.21-.37-1.68-.35-.47-.87-.76-1.56-.86-.09-.03-.22-.04-.4-.04l-.84,5.28.33-.02c.58-.08,1.07-.25,1.49-.53.42-.28.75-.63.98-1.07h0ZM44.01,18.55h-1.94c-.34-.39-.67-.8-.98-1.21-1.08-1.46-1.96-3.08-2.61-4.85l-.68,4.25c-.08.53-.06,1.03.07,1.51l.11.31h-2.91c.39-.5.65-1.11.76-1.82l1.55-9.72c.1-.62.04-1.19-.17-1.69h2.76l.75.06c.97.15,1.74.48,2.3.99.36.34.62.75.76,1.22.14.47.18.96.09,1.48-.08.53-.27,1.02-.55,1.48-.28.46-.67.86-1.17,1.22-.07.05-.18.12-.34.22-.16.1-.3.18-.41.24l-.58.26c.64,1.77,1.44,3.42,2.41,4.94l.77,1.12h0ZM35.16,11.83c-.17.22-.31.46-.42.72-.16.33-.26.66-.31.99l-.35,2.21c-.07.47-.12.83-.13,1.1s.01.55.07.85l-.7.28c-1.36.47-2.72.7-4.06.7-1.87,0-3.3-.62-4.3-1.86-1-1.24-1.35-2.79-1.06-4.65.06-.34.13-.7.24-1.07.1-.38.24-.75.39-1.11.61-1.43,1.55-2.58,2.82-3.43,1.26-.85,2.68-1.28,4.25-1.28,1.06,0,2.14.22,3.25.66l.37.15-.35,2.21c-.29-.34-.63-.67-1.03-1-.8-.59-1.65-.88-2.57-.88-1.02,0-1.96.37-2.84,1.1s-1.54,1.75-1.98,3.05c-.08.21-.15.45-.22.74-.07.28-.12.54-.16.77-.24,1.54-.02,2.81.69,3.8.71.99,1.71,1.48,3.02,1.48.29,0,.57-.03.84-.07l.93-.22.25-.07.13-.06.54-3.4c.06-.39.03-.85-.09-1.36l-.08-.33h2.86ZM20.22,12.67l-.69-4.78-2.39,4.79h3.08ZM23.73,18.56h-2.96l.07-.29c.07-.42.1-.7.1-.86s-.02-.38-.08-.68l-.45-2.5h-3.88l-1.23,2.32c-.28.55-.46,1.05-.53,1.51-.02.08-.03.18-.04.28-.02.1-.03.17-.03.22h-2.93c.34-.37.66-.75.95-1.15.29-.4.58-.86.86-1.39l5.12-9.37c.13-.27.22-.44.25-.5.03-.08.08-.2.14-.35l.1-.24.09-.24h1.68v.15s.03.35.03.35c0,.22.03.4.05.53s.04.23.06.29l1.74,9.25c.13.65.35,1.34.65,2.08l.12.29.14.29h0Z"/>
        <path class="cls-2" d="M112.73,10.34c.16-.37.27-.71.32-1.03.08-.49.04-.91-.11-1.28-.15-.36-.39-.62-.71-.78-.24-.11-.5-.17-.77-.17l-.76,4.78.33-.06c.8-.2,1.37-.69,1.71-1.47M116.44,18.55h-2.78c-1.43-1.68-2.44-3.67-3.01-5.97l-.65,4.06c-.12.77-.04,1.41.24,1.91h-4.16c.25-.26.45-.53.58-.81.13-.28.23-.65.3-1.1l1.51-9.51c.12-.75.03-1.35-.29-1.82h4.72c.13.04.23.06.29.07.55.09,1.02.23,1.41.43.39.19.72.45,1,.77.58.7.79,1.54.63,2.54-.1.59-.31,1.14-.65,1.65-.34.51-.78.94-1.33,1.28l-.48.26c.32,1.3.73,2.48,1.23,3.55.4.91.87,1.8,1.42,2.69h0ZM107.19,5.32c-.07.1-.15.21-.24.33-.08.13-.16.24-.23.37-.21.39-.34.78-.4,1.16l-1.51,9.47c-.12.74-.03,1.37.25,1.91h-4.18c.47-.55.76-1.19.88-1.91l1.51-9.49c.12-.72.02-1.33-.3-1.84h4.21,0ZM97.22,10.34c.16-.37.26-.71.31-1.03.08-.49.04-.91-.11-1.28-.15-.36-.39-.62-.71-.78-.24-.11-.5-.17-.77-.17l-.76,4.78.33-.06c.8-.2,1.37-.69,1.71-1.47h0ZM100.94,18.55h-2.77c-1.44-1.68-2.44-3.67-3.01-5.97l-.65,4.06c-.13.77-.04,1.41.24,1.91h-4.16c.26-.26.45-.53.58-.81.13-.28.23-.65.3-1.1l1.52-9.51c.12-.75.02-1.35-.29-1.82h4.72c.13.04.23.06.29.07.55.09,1.02.23,1.42.43.39.19.72.45,1,.77.58.7.79,1.54.63,2.54-.09.59-.31,1.14-.65,1.65-.34.51-.78.94-1.33,1.28l-.48.26c.32,1.3.73,2.48,1.23,3.55.39.91.87,1.8,1.42,2.69h0ZM92.44,5.32l-1.09,2.66c-.78-.54-1.64-.81-2.56-.81l-1.51,9.45c-.13.77-.04,1.42.25,1.93h-4.14c.23-.24.41-.52.55-.82.13-.3.23-.67.31-1.11l1.49-9.38c-1.23,0-2.4.34-3.52,1.03l1.23-2.96h8.99ZM82.4,5.32c-.15.18-.29.4-.43.66-.2.4-.33.8-.39,1.19l-1.51,9.47c-.09.56-.06,1.1.1,1.6l.1.31h-3.59c.05-.11.11-.23.16-.37.05-.13.09-.25.1-.35l.06-.37c-.71.61-1.49.99-2.35,1.14-.12.03-.25.04-.4.06-.15.01-.29.02-.43.02-1.09,0-1.91-.41-2.45-1.24-.54-.82-.69-1.95-.47-3.37l1.1-6.91c.11-.71.03-1.32-.27-1.84h4.13c-.16.21-.3.44-.43.68-.2.43-.33.81-.39,1.16l-1.18,7.43c-.1.65-.04,1.15.18,1.51s.59.53,1.08.53c.13,0,.32-.02.55-.06.23-.05.47-.16.74-.34s.46-.35.59-.5.2-.28.21-.39l1.31-8.18c.11-.66.02-1.27-.27-1.84h4.13ZM70.68,5.32l-.22.31c-.32.5-.52,1.01-.6,1.52l-1.49,9.38c-.11.69-.12,1.25-.03,1.69l.08.33h-3.23l-3.51-7.52-.89,5.61c-.11.71-.03,1.35.23,1.91h-3.93c.23-.27.41-.55.53-.83.12-.28.21-.64.29-1.08l1.53-9.58-.58-1.75h3.19l.02.31c.04.44.14.82.3,1.14l3.52,7.45,1.12-7.06c.1-.61.07-1.12-.09-1.52l-.15-.31h3.94Z"/>
        <path class="cls-2" d="M116.47,23.32l-.4,3.34h-.41l.06-.5c-.13.21-.28.38-.46.49-.18.11-.38.16-.61.16-.38,0-.69-.16-.93-.48-.24-.32-.36-.72-.36-1.23,0-.55.15-1,.44-1.36.29-.36.66-.55,1.1-.55.26,0,.48.07.66.19.18.13.32.33.42.6l.08-.67h.41,0ZM114.76,26.42c.32,0,.58-.15.79-.44.21-.29.32-.67.32-1.12,0-.38-.08-.69-.26-.93s-.4-.35-.69-.35c-.33,0-.6.15-.81.44s-.32.66-.32,1.12c0,.39.09.71.26.94s.41.35.7.35h0ZM109.41,26.66l.41-3.34h.42l-.4,3.34h-.42,0ZM109.84,22.08c0-.1.03-.18.09-.24.06-.07.13-.1.22-.1s.16.03.22.1c.06.06.09.15.09.24s-.03.18-.09.24c-.06.07-.13.1-.22.1s-.17-.03-.22-.1c-.06-.06-.09-.14-.09-.24ZM103.15,26.66l.71-5.84h.41l-.36,3.01c.14-.21.3-.37.47-.47.17-.1.37-.15.59-.15.38,0,.69.16.93.47.24.31.36.72.36,1.22,0,.55-.15,1-.44,1.36-.29.36-.66.55-1.09.55-.26,0-.49-.07-.66-.2-.18-.13-.32-.34-.42-.6l-.08.65h-.42ZM104.86,23.57c-.32,0-.58.15-.79.44-.21.29-.32.67-.32,1.12,0,.38.09.69.26.93.18.23.4.35.69.35.33,0,.59-.15.81-.44.21-.29.32-.67.32-1.12,0-.39-.09-.7-.27-.94-.18-.23-.41-.35-.7-.35h0ZM97.21,26.66l.26-2.11c0-.06.01-.11.02-.16,0-.05,0-.09,0-.14,0-.22-.06-.39-.17-.5-.11-.12-.28-.18-.49-.18-.28,0-.5.12-.67.34-.17.23-.27.58-.33,1.06l-.2,1.68h-.41l.4-3.34h.39l-.08.52c.16-.22.32-.39.5-.5.18-.11.37-.16.58-.16.23,0,.42.06.57.19.15.13.25.31.3.54.15-.24.32-.43.5-.55.18-.12.38-.18.6-.18.27,0,.49.08.65.26s.24.41.24.71c0,.05,0,.1,0,.17,0,.06-.01.13-.02.2l-.25,2.14h-.4l.25-2.11s0-.04,0-.08c0-.1.02-.18.02-.24,0-.21-.06-.37-.17-.49-.11-.11-.27-.17-.48-.17-.28,0-.51.12-.67.35-.17.23-.27.59-.33,1.06l-.2,1.68h-.42ZM88.86,25.13c0-.55.17-1.02.5-1.38.33-.37.75-.55,1.25-.55.46,0,.83.16,1.12.47s.44.71.44,1.19c0,.56-.16,1.03-.49,1.4-.33.37-.74.55-1.25.55-.47,0-.85-.15-1.14-.46-.29-.31-.43-.71-.43-1.21h0ZM90.59,23.6c-.37,0-.68.14-.92.42-.24.29-.37.64-.37,1.08,0,.38.11.7.32.93.21.23.49.35.82.35.37,0,.67-.14.92-.43s.37-.65.37-1.07c0-.38-.11-.69-.32-.93s-.49-.36-.81-.36ZM84.95,26.66l.71-5.84h.41l-.71,5.84h-.41,0ZM78.54,25.13c0-.55.17-1.02.5-1.38s.75-.55,1.25-.55c.46,0,.84.16,1.12.47.29.31.44.71.44,1.19,0,.56-.16,1.03-.49,1.4-.33.37-.74.55-1.25.55-.47,0-.85-.15-1.14-.46-.29-.31-.43-.71-.43-1.21h0ZM80.27,23.6c-.37,0-.68.14-.92.42-.24.29-.36.64-.36,1.08,0,.38.11.7.32.93.21.23.48.35.82.35.37,0,.67-.14.92-.43s.36-.65.36-1.07c0-.38-.11-.69-.32-.93-.21-.24-.48-.36-.81-.36ZM75.94,21.63l-.12.51c-.19-.23-.43-.41-.69-.53-.27-.12-.56-.18-.89-.18s-.63.06-.91.18c-.28.12-.52.3-.73.53-.23.26-.42.56-.54.9-.13.34-.19.7-.19,1.08,0,.69.19,1.23.57,1.64.38.4.9.61,1.55.61.21,0,.44-.04.69-.13.24-.08.51-.21.79-.39l-.12.58c-.28.12-.53.21-.78.27-.24.06-.47.09-.7.09-.74,0-1.34-.25-1.79-.74-.45-.5-.68-1.14-.68-1.95,0-.44.07-.86.22-1.25s.35-.73.62-1.01c.26-.27.56-.48.9-.61.34-.14.71-.21,1.11-.21.34,0,.65.05.92.15.28.1.53.25.76.46h0ZM66.16,25.05h-2.57v.08c0,.4.09.71.28.94.19.22.45.34.8.34.21,0,.4-.05.57-.16.17-.11.32-.26.45-.48l.28.3c-.17.25-.36.43-.57.55-.21.12-.45.18-.74.18-.45,0-.82-.15-1.09-.44-.28-.29-.41-.68-.41-1.16,0-.59.15-1.07.47-1.45.31-.37.71-.56,1.2-.56.43,0,.77.13,1.01.4.24.27.36.64.36,1.12,0,.05,0,.1,0,.16,0,.06,0,.12-.02.18h0ZM65.78,24.68c0-.35-.08-.62-.24-.81-.16-.19-.38-.29-.67-.29-.32,0-.58.09-.79.28s-.36.46-.45.82h2.15ZM59.96,20.82h.41l-.7,5.84h-.42l.06-.5c-.13.22-.29.38-.46.49-.18.11-.38.16-.6.16-.38,0-.69-.16-.93-.48s-.37-.73-.37-1.23c0-.55.15-1.01.44-1.37.29-.36.66-.54,1.1-.54.27,0,.48.07.65.19.17.13.31.33.42.6l.39-3.17h0ZM58.36,26.42c.31,0,.58-.15.79-.45.22-.3.32-.67.32-1.13,0-.38-.09-.69-.26-.93-.18-.24-.4-.35-.69-.35-.33,0-.6.15-.81.44-.21.29-.32.66-.32,1.12,0,.39.09.71.27.95.18.23.41.35.7.35h0Z"/>
      </g>
    </g>
  </g>
</svg>