<?xml version="1.0" encoding="UTF-8"?>
<svg id="Capa_2" data-name="Capa 2" xmlns="http://www.w3.org/2000/svg" viewBox="0 0 85.43 25.11">
  <defs>
    <style>
      .cls-1 {
        fill: #93c028;
      }

      .cls-2 {
        fill: #327531;
      }
    </style>
  </defs>
  <g id="Capa_1-2" data-name="Capa 1">
    <g>
      <path class="cls-2" d="M1.62,8.58h1.73l6.4,11.15v-11.15h3.17v16.24h-3.35L3.17,13.67v11.15H0v-14.5c0-.93.72-1.74,1.62-1.74"/>
      <path class="cls-2" d="M24.57,19.78c0,2.17-.53,3.61-1.62,4.3-1.09.65-2.29.98-3.6.98s-2.4-.36-3.47-1.07c-1.06-.69-1.59-2.08-1.59-4.2v-7.59h3.07v8.24c0,1.41.69,2.1,2.08,2.1s2.08-.69,2.08-2.1v-6.66c-.02-1.05.46-1.58,1.48-1.58h1.57v7.6h0Z"/>
      <path class="cls-2" d="M30.16,14.49h-1.29v7c0,.53.3.81.9.81h.95v2.41c-.99.09-2.08.09-3.24-.02-1.16-.12-1.71-.86-1.69-2.27v-13.8h1.59c.81,0,1.48.76,1.48,1.6v2.01h2.82v.69c0,.91-.67,1.58-1.52,1.58h0Z"/>
      <path class="cls-2" d="M31.95,18.3c.09-4.08,2.2-6.11,6.29-6.11h.44v3.3h-1.04c-1.71,0-2.56.93-2.56,2.77v6.57h-3.12v-6.52h0Z"/>
      <path class="cls-2" d="M41.47,12.19c.99,0,1.48.5,1.48,1.53v11.11h-3.07v-12.63h1.59Z"/>
      <path class="cls-2" d="M49.62,22.53c1.29,0,1.94-.38,1.94-1.19,0-.65-1.06-1.17-3.17-1.55-2.7-.5-4.09-1.74-4.11-3.73,0-2.72,2.08-4.01,4.88-4.06,1.57,0,2.82.36,3.74,1.07.9.74,1.39,1.77,1.46,3.08h-1.94c-.72-.02-1.18-.29-1.36-.79-.21-.55-.83-.86-1.85-.86-1.2,0-1.8.33-1.8.98s.79,1.15,2.38,1.46c2.08.43,3.44.98,4.11,1.62.58.62.85,1.39.85,2.25,0,3.1-2.36,4.25-5.59,4.25-1.71,0-3-.38-3.84-1.12-.93-.72-1.39-1.81-1.39-3.27h3.14c.07,1.39,1.04,1.86,2.54,1.86h0Z"/>
      <path class="cls-2" d="M58.63,17.13h4.6c-.18-1.67-.95-2.53-2.26-2.53s-2.1.86-2.33,2.53M60.96,25.11c-3.7-.12-5.55-2.34-5.55-6.64s1.87-6.45,5.59-6.47c3.88,0,5.71,2.46,5.48,7.4h-7.9c.12,1.93.93,2.91,2.43,2.91.72,0,1.39-.31,1.99-.91.28-.31.62-.45,1.04-.45h2.26c-.67,2.67-2.33,4.15-5.34,4.15h0Z"/>
      <path class="cls-2" d="M70.81,16.75v8.07h-3.12v-7.43c0-3.61,1.76-5.4,5.25-5.4,1.57,0,2.77.36,3.65,1.07.88-.69,2.08-1.03,3.65-1.03,3.49,0,5.22,1.79,5.2,5.4v7.43h-1.59c-1.02-.07-1.52-.57-1.52-1.58v-6.5c-.07-1.31-.76-1.96-2.13-1.96s-2.06.65-2.08,1.96v8.02h-3.1v-8.07c-.07-1.31-.76-1.96-2.13-1.96s-2.06.65-2.08,1.96h0Z"/>
      <g>
        <path class="cls-1" d="M45.26,4.44c-.14.08-.21.14-.35.22.55,1.23.48,2.56-.04,3.79-.38.92-.99,1.73-1.69,2.41-.08.08-.33.37-.44.37,1.07,0,2.72-.3,3.84-1.38,2.06-2,2.65-6.38,2.65-6.38,0,.03-1.13.15-1.2.16-.83.15-1.69.32-2.47.66-.1.04-.2.09-.29.15"/>
        <path class="cls-2" d="M38.23,5.05c-.18.57-.28,1.14-.28,1.7,0,2.02,1.69,3.52,2.71,4.33,0,0,.12.1.29.17.04-1.26.32-3.96-2.72-6.2h0Z"/>
        <path class="cls-1" d="M44.32,5.05c.18.57.28,1.14.28,1.7,0,2.02-1.69,3.52-2.71,4.33,0,0-.12.1-.29.17-.03-1.41-.32-3.96,2.72-6.2h0Z"/>
        <path class="cls-2" d="M41.27,8.25c.38-1.25,1.25-2.74,2.83-3.9-.93-2.36-2.83-4.35-2.83-4.35,0,0-1.86,2.04-2.8,4.37,1.66,1.17,2.41,2.6,2.8,3.88"/>
      </g>
    </g>
  </g>
</svg>