<?xml version="1.0" encoding="UTF-8"?>
<svg id="Capa_2" data-name="Capa 2" xmlns="http://www.w3.org/2000/svg" viewBox="0 0 107.41 31.23">
  <defs>
    <style>
      .cls-1 {
        fill: #2a3646;
      }

      .cls-2 {
        fill: #089d39;
      }
    </style>
  </defs>
  <g id="Capa_1-2" data-name="Capa 1">
    <g>
      <path class="cls-2" d="M26.38,0c-.04.37-.12.71-.19,1.05-.74,3.72-1.49,7.44-2.23,11.16-.12.57-.2,1.15-.36,1.72-.38,1.35-1.16,2.38-2.41,3.03-1.38.71-2.77,1.39-4.16,2.09-.06.03-.11.08-.2.06-.05-.11-.02-.23-.02-.35.03-1.17.2-2.32.47-3.45.65-2.73,1.83-5.22,3.03-7.27,1.37-2.35,2.96-4.53,4.73-6.58.34-.4.69-.79,1.04-1.19.09-.1.19-.17.32-.26M15.27,18.4s.02-.05.02-.08c.09-1.41.4-2.77.83-4.11.67-2.05,1.64-3.97,2.78-5.79,1.69-2.71,3.7-5.16,5.94-7.44.31-.32.62-.64.89-.92-.17.11-.39.25-.6.4-1.61,1.07-3.21,2.14-4.82,3.2-1.18.78-2.38,1.54-3.56,2.34-.39.27-.77.55-1.17.8-1.83,1.16-2.63,3.4-2.05,5.48.53,1.91,1.05,3.81,1.57,5.72.04.13.08.27.12.4.02,0,.04,0,.05,0"/>
      <path class="cls-1" d="M16.78,21.39v8.85c0,.31.25.56.56.56h3.07c.31,0,.56-.25.56-.56v-10.84c0-.18-.19-.29-.35-.21l-3.65,1.88c-.12.06-.2.19-.2.32"/>
      <path class="cls-1" d="M4.36,30.67H1.33c-.49,0-.55-.06-.55-.55v-10.94c0-1.4-.23-2.57-.68-3.55-.06-.13-.1-.23-.1-.32s.1-.23.26-.29l2.9-1.07c.1-.03.26-.06.32-.06.39,0,.81.81,1.17,2.25,1.63-1.5,3.03-2.08,4.88-2.08,2.9,0,4.2,1.59,4.2,5.14v10.94c0,.49-.06.55-.55.55h-3.03c-.49,0-.55-.06-.55-.55v-10.03c0-1.92-.55-2.73-1.86-2.73-.94,0-1.69.36-2.83,1.33v11.43c0,.49-.06.55-.55.55"/>
      <path class="cls-1" d="M35,30.67c-1.11.36-2.21.55-3.29.55-1.69,0-2.93-.55-3.68-1.66-.55-.81-.72-1.63-.72-3.45v-8.5h-2.25c-.49,0-.55-.07-.55-.55v-1.92c0-.49.06-.55.55-.55h2.25v-4.1c0-.45.06-.52.52-.59l2.99-.42h.29c.23,0,.33.13.33.52v4.59h3.71c.42,0,.55.06.55.33,0,.1,0,.19-.03.29l-.42,1.92c-.1.39-.2.49-.59.49h-3.22v7.91c0,1.73.23,2.08,1.2,2.08.65,0,.94-.07,2.15-.55.1-.03.19-.06.29-.06.16,0,.26.13.33.33l.52,2.28c.06.23.06.26.06.36,0,.33-.19.46-1.01.72"/>
      <path class="cls-1" d="M47.33,15.11l-1.01,2.64c-.06.19-.16.29-.26.29-.06,0-.13-.03-.23-.06-.46-.16-.91-.26-1.3-.26-.68,0-1.5.49-2.47,1.56v10.84c0,.49-.06.55-.55.55h-3.03c-.49,0-.55-.06-.55-.55v-9.9c0-1.86-.19-2.77-.98-4.53-.03-.1-.06-.19-.06-.29,0-.13.13-.26.33-.33l2.64-.94q.26-.1.39-.1c.39,0,.88.98,1.24,2.54.68-.78.78-.94,1.11-1.27.81-.81,1.86-1.27,2.96-1.27.98,0,1.86.36,1.86.72,0,.1-.03.23-.06.36"/>
      <path class="cls-1" d="M54.25,31.23c-4.46,0-7.1-3.19-7.1-8.59,0-2.67.62-4.69,1.89-6.22,1.4-1.66,2.99-2.38,5.34-2.38,4.26,0,6.93,3.29,6.93,8.56s-2.7,8.63-7.06,8.63M54.18,17.33c-1.86,0-2.64,1.56-2.64,5.31s.78,5.31,2.67,5.31,2.7-1.56,2.7-5.27-.78-5.34-2.73-5.34"/>
      <path class="cls-1" d="M72.62,29.73c-.98,1.01-2.28,1.5-4,1.5-1.82,0-3.84-.49-5.53-1.37-.59-.29-.72-.39-.72-.62,0-.13.03-.19.1-.39l.75-1.99c.1-.23.2-.33.33-.33.06,0,.16.03.29.1,1.72.94,3.19,1.4,4.43,1.4,1.14,0,1.89-.68,1.89-1.69,0-.91-.39-1.24-2.51-2.05-2.08-.78-2.8-1.2-3.39-1.76-.85-.81-1.3-1.92-1.3-3.19,0-3.12,2.41-5.31,5.79-5.31,2.05,0,4.98.88,4.98,1.5,0,.1-.03.23-.1.36l-.81,1.86c-.1.19-.19.29-.32.29-.06,0-.16-.03-.26-.06-1.24-.55-2.38-.85-3.29-.85-1.33,0-2.08.59-2.08,1.66,0,.88.36,1.2,2.15,1.89,2.41.94,3.09,1.3,3.78,1.95.85.85,1.33,2.02,1.33,3.32,0,1.4-.55,2.8-1.5,3.78"/>
      <path class="cls-1" d="M82.46,31.23c-4.46,0-7.1-3.19-7.1-8.59,0-2.67.62-4.69,1.89-6.22,1.4-1.66,3-2.38,5.34-2.38,4.26,0,6.93,3.29,6.93,8.56s-2.7,8.63-7.06,8.63M82.4,17.33c-1.86,0-2.64,1.56-2.64,5.31s.78,5.31,2.67,5.31,2.7-1.56,2.7-5.27-.78-5.34-2.73-5.34"/>
      <path class="cls-1" d="M96.31,30.67h-3.03c-.49,0-.55-.06-.55-.55v-12.5h-2.47c-.49,0-.55-.06-.55-.55v-1.92c0-.49.07-.55.55-.55h6.05c.49,0,.55.07.55.55v14.97c0,.49-.07.55-.55.55M94.68,12.45c-1.46,0-2.64-1.17-2.64-2.67s1.2-2.6,2.67-2.6,2.6,1.2,2.6,2.64-1.17,2.64-2.64,2.64"/>
      <path class="cls-1" d="M104.12,31.23c-1.89,0-3.19-.81-3.71-2.34-.26-.75-.29-1.14-.29-3.97V8.38c0-.36.16-.55.49-.62l2.93-.59q.32-.06.39-.06c.23,0,.32.16.32.55v16.96c0,1.82,0,1.89.06,2.15.13.46.36.65.81.65.36,0,.65-.06,1.07-.19.1-.03.2-.03.23-.03.13,0,.23.06.26.19l.65,2.67.03.13c.03.06.03.1.03.13,0,.42-1.73.91-3.29.91"/>
    </g>
  </g>
</svg>