<?xml version="1.0" encoding="UTF-8"?>
<svg id="Capa_2" data-name="Capa 2" xmlns="http://www.w3.org/2000/svg" viewBox="0 0 145.6 29.54">
  <defs>
    <style>
      .cls-1 {
        fill: #ec1c24;
      }
    </style>
  </defs>
  <g id="Capa_1-2" data-name="Capa 1">
    <g>
      <g>
        <path class="cls-1" d="M145.6,8.65c0,.25-.05.49-.14.7-.09.22-.22.41-.38.57-.16.16-.35.29-.57.38-.22.09-.46.14-.71.14s-.5-.05-.72-.14c-.22-.09-.41-.21-.56-.37-.16-.16-.28-.35-.37-.56-.09-.22-.13-.46-.13-.72s.05-.49.14-.7c.09-.22.22-.41.38-.57.16-.16.35-.29.57-.38.22-.09.46-.14.71-.14s.5.04.72.13c.22.09.41.21.56.37.16.16.28.34.37.56.09.22.13.45.13.71M145.19,8.67c0-.22-.03-.41-.1-.59-.07-.18-.16-.33-.29-.46-.12-.13-.27-.22-.44-.29-.17-.07-.35-.1-.55-.1-.21,0-.4.04-.57.11-.17.07-.32.17-.44.3-.12.13-.22.28-.28.45-.07.17-.1.35-.1.54,0,.21.03.41.1.59.07.18.16.33.29.46.12.13.27.23.44.29.17.07.35.1.55.1.21,0,.4-.04.57-.11.17-.08.32-.18.44-.3.12-.13.21-.28.28-.45.07-.17.1-.35.1-.54ZM144.65,9.52s0,.03,0,.03c0,.01-.02.02-.03.02-.02,0-.04,0-.08.01-.03,0-.08,0-.14,0-.05,0-.09,0-.13,0-.03,0-.06,0-.08-.02-.02,0-.03-.02-.05-.03-.01-.01-.02-.03-.03-.06l-.1-.32c-.04-.11-.08-.19-.13-.24-.05-.04-.13-.07-.23-.07h-.12s0,.65,0,.65c0,.03-.01.06-.04.07-.03.01-.09.02-.18.02s-.16,0-.19-.02c-.03-.01-.05-.04-.05-.07v-1.65c0-.07.02-.12.05-.16.03-.04.08-.06.15-.06h.53c.12,0,.23.01.32.03.09.02.17.05.24.1.07.05.12.1.15.17.03.07.05.15.05.25,0,.15-.04.26-.12.34-.08.08-.19.14-.32.17.07.02.14.07.21.12.06.06.12.15.17.26l.11.29c.02.07.03.12.03.13ZM144.08,8.24s0-.07-.01-.1c0-.03-.03-.06-.05-.08-.03-.02-.06-.04-.1-.05-.04-.01-.1-.02-.16-.02h-.21s0,.51,0,.51h.2c.13,0,.22-.03.27-.07.05-.05.07-.11.07-.19Z"/>
        <path class="cls-1" d="M130.61,20.42c-.77.3-1.6.43-2.42.44-.8.01-1.6-.1-2.36-.37-.68-.25-1.3-.61-1.83-1.11-.52-.5-.91-1.09-1.18-1.76-.3-.73-.43-1.52-.44-2.3-.01-.83.1-1.66.38-2.44.26-.7.65-1.33,1.18-1.86.54-.53,1.18-.91,1.88-1.18.79-.29,1.64-.41,2.48-.42.8-.01,1.62.08,2.37.35.67.24,1.28.6,1.78,1.11.51.51.87,1.11,1.12,1.79.28.75.39,1.56.4,2.36.01.8-.1,1.6-.38,2.35-.26.69-.64,1.32-1.16,1.84-.52.53-1.14.92-1.83,1.19M130.29,12.63c-.53-.6-1.28-.78-2.06-.77-.81.01-1.56.24-2.11.85-.6.67-.75,1.62-.73,2.49,0,.47.07.95.22,1.4.13.37.32.72.59,1.01.25.28.56.48.91.62.39.15.8.21,1.21.2.79-.01,1.52-.23,2.03-.86.56-.69.69-1.66.68-2.51-.01-.83-.16-1.8-.74-2.44Z"/>
        <path class="cls-1" d="M137.95,10.85s.04-.06.06-.1c.15-.25.33-.48.52-.69.2-.21.42-.4.67-.55.27-.16.57-.24.88-.24.3,0,.6.02.9.09.28.07.56.15.84.24l.16.06.03,2.47-.3-.06c-.29-.06-.59-.11-.89-.13-.3-.02-.6-.04-.9-.03-.24,0-.48.05-.69.19-.19.12-.34.28-.45.48-.13.23-.21.49-.26.74-.05.31-.07.62-.07.93l.08,6.25-2.95.04-.09-7.2c0-.32-.02-.65-.05-.98-.03-.33-.06-.67-.11-1-.04-.29-.08-.58-.14-.87-.04-.2-.08-.41-.14-.6l-.09-.31,2.54-.03.07.12c.06.11.11.24.15.36.05.15.09.3.13.45.03.13.06.25.09.38"/>
        <path class="cls-1" d="M117.94,20.05c-.11.07-.23.14-.35.21-.28.15-.56.28-.86.39-.31.12-.64.21-.97.28-.34.07-.7.11-1.05.11-.68,0-1.36-.09-2-.34-.61-.24-1.15-.6-1.61-1.07-.48-.5-.83-1.11-1.07-1.76-.28-.77-.39-1.59-.4-2.41-.01-.8.1-1.6.37-2.36.25-.69.62-1.32,1.12-1.85.5-.54,1.11-.93,1.79-1.2.75-.3,1.55-.43,2.35-.44.52,0,1.04.04,1.55.18.32.08.63.18.93.31l-.08-6.3,2.96-.04.22,17-2.83.04-.07-.72ZM117.84,17.51l-.07-5.02c-.09-.06-.18-.11-.27-.16h0c-.17-.09-.35-.16-.53-.22-.21-.07-.42-.12-.64-.16-.22-.04-.45-.06-.68-.06-.39,0-.78.07-1.15.19-.37.12-.68.31-.96.58-.31.3-.52.68-.67,1.08-.2.53-.25,1.14-.24,1.7,0,.49.06,1,.22,1.46.13.35.3.7.56.98.22.24.48.43.79.55.31.13.63.18.97.17.29,0,.58-.04.86-.12.26-.08.52-.17.77-.3.22-.11.44-.23.65-.38.14-.1.28-.2.41-.31Z"/>
        <path class="cls-1" d="M101.07,13.28l.1,7.71-2.94.04-.14-10.96,2.85-.04.07.79c.08-.06.16-.12.24-.18.24-.18.5-.32.77-.44.29-.13.6-.24.9-.31.34-.09.69-.12,1.04-.13,1.13-.01,2.29.22,3.08,1.09.79.86,1.02,2.06,1.04,3.19l.09,6.88-2.95.04-.09-6.72c0-.52-.09-1.13-.42-1.55-.29-.37-.72-.49-1.18-.48-.25,0-.49.04-.73.11-.24.06-.47.15-.68.27-.21.11-.42.23-.61.37-.15.11-.29.23-.43.35"/>
        <path class="cls-1" d="M81.27,18.58c.74-.21,1.45-.51,2.12-.89l.36-.21.04,2.82-.13.07c-.69.38-1.43.65-2.2.83-.86.2-1.75.29-2.64.3-1.13.01-2.25-.16-3.31-.59-.99-.4-1.87-.97-2.62-1.73-.76-.77-1.32-1.68-1.72-2.69-.44-1.1-.62-2.26-.64-3.44-.02-1.22.16-2.43.6-3.57.4-1.06.97-2.01,1.74-2.84.76-.81,1.65-1.43,2.67-1.88,1.07-.47,2.21-.69,3.37-.71.41,0,.83.02,1.24.05.41.04.82.1,1.22.18.38.08.77.16,1.14.27.34.1.67.21.99.34l.15.06.04,2.78-.34-.14c-.33-.13-.65-.25-.99-.36-.37-.12-.74-.23-1.11-.32-.39-.09-.78-.16-1.18-.21-.38-.05-.76-.07-1.15-.07-.74,0-1.45.16-2.12.47-.65.3-1.21.73-1.68,1.28-.5.59-.86,1.27-1.12,2-.29.84-.39,1.74-.38,2.63.01.83.13,1.66.42,2.45.25.69.61,1.32,1.11,1.86.48.52,1.04.91,1.69,1.18.69.29,1.43.4,2.18.4.76,0,1.51-.12,2.23-.33"/>
        <path class="cls-1" d="M93.25,20.91c-.77.3-1.6.43-2.42.44-.8.01-1.6-.1-2.36-.37-.68-.25-1.3-.61-1.83-1.11-.52-.5-.91-1.09-1.18-1.76-.3-.73-.43-1.52-.44-2.3-.01-.83.1-1.66.38-2.44.26-.7.65-1.33,1.18-1.86.54-.53,1.18-.91,1.88-1.18.8-.29,1.64-.41,2.48-.42.8-.01,1.62.08,2.37.35.67.24,1.28.6,1.78,1.11.51.51.87,1.11,1.12,1.79.28.75.39,1.56.4,2.36.01.8-.1,1.6-.38,2.35-.26.69-.64,1.32-1.16,1.84-.52.53-1.14.92-1.83,1.19M92.93,13.12c-.53-.6-1.28-.78-2.06-.77-.81.01-1.56.24-2.11.85-.6.67-.75,1.62-.73,2.49,0,.47.07.95.22,1.4.13.37.32.72.59,1.01.25.28.56.48.91.62.39.15.8.21,1.21.2.79-.01,1.52-.23,2.03-.86.56-.69.69-1.66.68-2.51-.01-.83-.16-1.8-.74-2.44Z"/>
        <polygon class="cls-1" points="46.76 21.66 42.42 11.02 42.27 10.68 45.51 10.64 48.23 17.47 50.7 10.57 53.78 10.53 48.01 27.41 47.97 27.6 44.96 27.64 46.76 21.66"/>
        <rect class="cls-1" x="65.31" y="4.44" width="2.95" height="17" transform="translate(-.16 .88) rotate(-.75)"/>
        <path class="cls-1" d="M60.51,20.75c-.29.23-.6.46-.92.61-.65.31-1.36.42-2.07.43-.56,0-1.12-.06-1.65-.24-.45-.16-.86-.39-1.2-.72-.32-.31-.57-.67-.74-1.09-.17-.43-.25-.89-.26-1.36-.02-1.17.41-2.15,1.37-2.84,1.11-.79,2.67-1.07,4-1.09.26,0,.52,0,.78,0,.19,0,.37.02.56.03-.03-.48-.14-.9-.44-1.27-.34-.42-.9-.51-1.41-.51-.52,0-1.04.08-1.55.21-.54.14-1.07.32-1.58.54l-.34.15-.03-2.43.14-.07c.52-.26,1.08-.44,1.65-.56.59-.13,1.19-.21,1.79-.22.66,0,1.33.04,1.98.19.55.14,1.07.37,1.5.74.44.37.74.85.94,1.38.24.65.32,1.37.33,2.06l.05,6.78-2.86.04v-.77ZM60.4,16.61c-.14,0-.28-.01-.42-.01-.25,0-.5,0-.74,0-.43,0-.92.04-1.33.16-.27.08-.55.19-.77.37-.16.13-.29.29-.37.48-.07.18-.1.38-.1.57,0,.33.1.64.33.88.24.25.58.33.92.32.47,0,.93-.13,1.35-.32.42-.19.81-.44,1.16-.76l-.02-1.7Z"/>
        <path class="cls-1" d="M31.3,18.82c-.3-.73-.43-1.52-.44-2.3-.01-.83.1-1.66.38-2.44.26-.7.65-1.33,1.18-1.86.54-.53,1.18-.91,1.88-1.18.79-.29,1.64-.41,2.48-.42.8-.01,1.62.08,2.37.35.67.24,1.28.6,1.78,1.11.51.51.87,1.11,1.12,1.79.28.75.39,1.56.4,2.36.01.8-.1,1.6-.38,2.35-.26.69-.64,1.32-1.16,1.84-.52.53-1.14.92-1.83,1.19-.77.3-1.6.43-2.42.44-.8.01-1.6-.1-2.36-.37-.68-.25-1.3-.61-1.83-1.11-.52-.5-.91-1.09-1.18-1.76M38.77,13.83c-.53-.6-1.28-.78-2.06-.77-.81.01-1.56.24-2.11.85-.6.67-.75,1.62-.73,2.49,0,.47.07.95.22,1.4.13.37.32.72.59,1.01.25.27.56.48.91.62.39.15.8.21,1.21.2.79-.01,1.52-.23,2.03-.86.56-.69.69-1.66.68-2.51-.01-.83-.16-1.8-.74-2.44Z"/>
        <path class="cls-1" d="M23.03,14.73h-.76s.1,7.29.1,7.29l-3.01.04-.22-17,3.99-.05c.83-.01,1.67.04,2.5.18.72.13,1.43.35,2.06.72.59.35,1.07.82,1.42,1.41.39.66.53,1.44.54,2.19,0,.61-.09,1.21-.32,1.77-.21.51-.5.99-.88,1.4-.37.4-.79.73-1.27,1-.36.2-.74.37-1.13.49l5.24,7.73-3.56.05-4.69-7.22ZM22.18,7.66l.06,4.54h.98c.85-.02,1.81-.17,2.5-.72.58-.47.81-1.11.8-1.85,0-.63-.2-1.17-.75-1.51-.67-.42-1.71-.48-2.48-.47h-1.1Z"/>
        <path class="cls-1" d="M11.71,11.78l-7.92.1c-.08,0-.14.06-.14.14v.75c.01.08.07.14.15.14l7.92-.1c.08,0,.14-.06.14-.14v-.74c-.01-.08-.07-.14-.15-.14M12.43,5.16l-1.35,1.64c.21.21.35.5.35.83,0,.66-.52,1.2-1.18,1.21-.66,0-1.2-.52-1.21-1.18,0-.47.26-.87.64-1.07l-1.86-4.94c-.05-.15-.31-.15-.36,0l-1.8,5.05c.38.2.64.59.65,1.04,0,.66-.52,1.2-1.18,1.21-.66,0-1.2-.52-1.21-1.18,0-.35.14-.66.37-.88l-1.4-1.6c-.16-.15-.41,0-.36.21l1.04,5.22c.05.1.1.15.21.15l3.95-.05,3.95-.05c.1,0,.2-.05.2-.16l.91-5.24c.05-.21-.21-.36-.36-.2ZM15.4,7.6c.06,4.25-3.35,7.74-7.6,7.8C3.55,15.45.06,12.05,0,7.8-.06,3.55,3.35.06,7.6,0c4.25-.06,7.74,3.35,7.8,7.6Z"/>
      </g>
      <g>
        <path class="cls-1" d="M51.98,25.19v-.65h.66v.65h-.66ZM51.98,29.49v-2.21s.12-1.41.12-1.41h.43s.11,1.41.11,1.41v2.21h-.66Z"/>
        <path class="cls-1" d="M53.72,28.13v-4.44h.55v3.97s2.06,0,2.06,0v.47h-2.61Z"/>
        <path class="cls-1" d="M60.03,28.13c-.16.05-.33.07-.43.07-.43,0-.59-.17-.59-.69-.28.54-.75.69-1.15.69-.47,0-1.11-.21-1.11-.97,0-.88.69-1.03,1.47-1.07l.75-.03v-.38c0-.41-.14-.7-.79-.7-.35,0-.76.11-.81.6l-.51-.05c.06-.73.8-.96,1.32-.96.94,0,1.33.42,1.33,1.03v1.62c0,.35.03.46.27.46h.25v.36ZM58.97,26.51l-.77.03c-.51.02-.92.16-.92.68s.49.57.73.57c.48,0,.95-.37.95-1.08v-.19Z"/>
        <path class="cls-1" d="M65.02,27.12c-.15.69-.63,1.09-1.39,1.09-1.01,0-1.6-.65-1.6-1.77s.62-1.79,1.6-1.79c.75,0,1.24.38,1.38,1.06l-.53.04c-.1-.43-.37-.67-.85-.67-.69,0-1.05.5-1.05,1.35,0,.85.36,1.34,1.05,1.34.49,0,.76-.23.86-.65h.53Z"/>
        <path class="cls-1" d="M65.66,26.43c0-1.11.61-1.78,1.58-1.78s1.58.67,1.58,1.78-.61,1.77-1.58,1.77-1.58-.67-1.58-1.77ZM68.27,26.43c0-.85-.35-1.35-1.03-1.35s-1.03.5-1.03,1.35.35,1.34,1.03,1.34,1.03-.49,1.03-1.34Z"/>
        <path class="cls-1" d="M74.04,28.13v-2.24c0-.46-.25-.77-.73-.77-.52,0-.87.43-.87,1.08v1.94h-.54v-2.24c0-.46-.26-.77-.73-.77-.52,0-.88.43-.88,1.08v1.94h-.54v-3.4h.5v.69c.23-.55.63-.77,1.08-.77.48,0,.94.23,1.07.76.22-.53.6-.76,1.08-.76.57,0,1.1.33,1.1,1.09v2.38h-.54Z"/>
        <path class="cls-1" d="M75.74,29.54v-4.81h.5v.68c.27-.53.67-.75,1.17-.75.74,0,1.37.51,1.37,1.78s-.63,1.77-1.37,1.77c-.49,0-.89-.2-1.17-.72l.03.51v1.54h-.54ZM78.24,26.43c0-.95-.41-1.35-.95-1.35-.61,0-1.01.36-1.01,1.35s.39,1.34,1.01,1.34c.53,0,.95-.4.95-1.34Z"/>
        <path class="cls-1" d="M82.71,28.13c-.16.05-.33.07-.43.07-.43,0-.59-.17-.59-.69-.28.54-.75.69-1.15.69-.47,0-1.11-.21-1.11-.97,0-.88.69-1.03,1.47-1.07l.75-.03v-.38c0-.41-.14-.7-.79-.7-.35,0-.76.11-.81.6l-.51-.05c.06-.73.8-.96,1.32-.96.94,0,1.33.42,1.33,1.03v1.62c0,.35.03.46.27.46h.25v.36ZM81.66,26.51l-.77.03c-.51.02-.92.16-.92.68s.49.57.73.57c.48,0,.95-.37.95-1.08v-.19Z"/>
        <path class="cls-1" d="M85.74,28.13v-2.24c0-.46-.28-.77-.79-.77-.59,0-.99.43-.99,1.08v1.94h-.54v-3.4h.5v.69c.26-.55.68-.77,1.19-.77.6,0,1.17.33,1.17,1.09v2.38h-.54ZM85.96,23.47c0,.31-.12.69-.59.69-.36,0-.76-.3-1.03-.3-.16,0-.27.05-.27.3h-.34c0-.3.13-.69.59-.69.36,0,.76.3,1.03.3.17,0,.27-.05.27-.3h.34Z"/>
        <path class="cls-1" d="M90.25,27.19c-.16.64-.63,1.02-1.41,1.02-1.01,0-1.6-.65-1.6-1.77s.63-1.79,1.6-1.79,1.44.62,1.44,1.65v.25s-2.48,0-2.48,0c.02.77.38,1.21,1.03,1.21.51,0,.79-.21.89-.59h.53ZM89.73,26.16c-.02-.67-.27-1.08-.9-1.08s-.95.39-1.02,1.08h1.92Z"/>
        <path class="cls-1" d="M91.27,28.13v-3.4h.5v.74c.21-.6.57-.81.89-.81.07,0,.19,0,.31.05v.46h-.33c-.47,0-.83.39-.83,1.09v1.87h-.54Z"/>
        <path class="cls-1" d="M96.64,28.13c-.16.05-.33.07-.43.07-.43,0-.59-.17-.59-.69-.28.54-.75.69-1.15.69-.47,0-1.11-.21-1.11-.97,0-.88.69-1.03,1.47-1.07l.75-.03v-.38c0-.41-.14-.7-.79-.7-.35,0-.76.11-.81.6l-.51-.05c.06-.73.8-.96,1.32-.96.94,0,1.33.42,1.33,1.03v1.62c0,.35.03.46.27.46h.25v.36ZM95.58,26.51l-.77.03c-.51.02-.92.16-.92.68s.49.57.73.57c.48,0,.95-.37.95-1.08v-.19Z"/>
        <path class="cls-1" d="M101.71,27.19c-.16.64-.63,1.02-1.41,1.02-1.01,0-1.6-.65-1.6-1.77s.63-1.79,1.6-1.79,1.44.62,1.44,1.65v.25s-2.48,0-2.48,0c.02.77.38,1.21,1.03,1.21.51,0,.79-.21.89-.59h.53ZM101.19,26.16c-.02-.67-.27-1.08-.9-1.08s-.95.39-1.02,1.08h1.92Z"/>
        <path class="cls-1" d="M105.05,28.13v-2.24c0-.46-.28-.77-.79-.77-.59,0-.99.43-.99,1.08v1.94h-.54v-3.4h.5v.69c.26-.55.68-.77,1.19-.77.6,0,1.17.33,1.17,1.09v2.38h-.54Z"/>
        <path class="cls-1" d="M111.11,27.19c-.16.64-.63,1.02-1.41,1.02-1.01,0-1.6-.65-1.6-1.77s.63-1.79,1.6-1.79,1.44.62,1.44,1.65v.25s-2.48,0-2.48,0c.02.77.38,1.21,1.03,1.21.51,0,.79-.21.89-.59h.53ZM110.6,26.16c-.02-.67-.27-1.08-.9-1.08s-.95.39-1.02,1.08h1.92Z"/>
        <path class="cls-1" d="M112.13,28.13v-4.8h.54v4.8h-.54Z"/>
        <path class="cls-1" d="M118.14,27.12c-.15.69-.63,1.09-1.39,1.09-1.01,0-1.6-.65-1.6-1.77s.62-1.79,1.6-1.79c.75,0,1.24.38,1.38,1.06l-.53.04c-.1-.43-.37-.67-.85-.67-.69,0-1.05.5-1.05,1.35,0,.85.36,1.34,1.05,1.34.49,0,.76-.23.86-.65h.53Z"/>
        <path class="cls-1" d="M122.04,28.13c-.16.05-.33.07-.43.07-.43,0-.59-.17-.59-.69-.28.54-.75.69-1.15.69-.47,0-1.11-.21-1.11-.97,0-.88.69-1.03,1.47-1.07l.75-.03v-.38c0-.41-.14-.7-.79-.7-.35,0-.76.11-.81.6l-.51-.05c.06-.73.8-.96,1.32-.96.94,0,1.33.42,1.33,1.03v1.62c0,.35.03.46.27.46h.25v.36ZM120.99,26.51l-.77.03c-.51.02-.92.16-.92.68,0,.51.49.57.73.57.48,0,.95-.37.95-1.08v-.19Z"/>
        <path class="cls-1" d="M127.04,28.13v-2.24c0-.46-.25-.77-.73-.77-.52,0-.87.43-.87,1.08v1.94h-.54v-2.24c0-.46-.26-.77-.73-.77-.52,0-.88.43-.88,1.08v1.94h-.54v-3.4h.5v.69c.23-.55.63-.77,1.08-.77.48,0,.94.23,1.07.76.22-.53.6-.76,1.08-.76.57,0,1.1.33,1.1,1.09v2.38h-.54Z"/>
        <path class="cls-1" d="M128.75,29.54v-4.81h.5v.68c.27-.53.67-.75,1.17-.75.74,0,1.37.51,1.37,1.78s-.63,1.77-1.37,1.77c-.49,0-.89-.2-1.17-.72l.03.51v1.54h-.54ZM131.24,26.43c0-.95-.41-1.35-.95-1.35-.61,0-1.01.36-1.01,1.35,0,.96.39,1.34,1.01,1.34.53,0,.95-.4.95-1.34Z"/>
        <path class="cls-1" d="M132.46,26.43c0-1.11.61-1.78,1.58-1.78s1.58.67,1.58,1.78-.61,1.77-1.58,1.77-1.58-.67-1.58-1.77ZM135.07,26.43c0-.85-.35-1.35-1.03-1.35s-1.03.5-1.03,1.35.35,1.34,1.03,1.34,1.03-.49,1.03-1.34Z"/>
        <path class="cls-1" d="M137.01,27.47v.65h-.66v-.65h.66ZM137.01,23.18v2.21s-.11,1.41-.11,1.41h-.43s-.12-1.41-.12-1.41v-2.21h.66Z"/>
      </g>
    </g>
  </g>
</svg>