<?xml version="1.0" encoding="UTF-8"?>
<svg id="Capa_2" data-name="Capa 2" xmlns="http://www.w3.org/2000/svg" viewBox="0 0 134.52 26.95">
  <defs>
    <style>
      .cls-1 {
        fill: #168638;
      }

      .cls-2 {
        fill: #e20613;
      }
    </style>
  </defs>
  <g id="Capa_1-2" data-name="Capa 1">
    <g>
      <g>
        <path class="cls-2" d="M10.03.4v5.49c-.42-.14-.73-.21-.96-.21-.43,0-.81.16-1.11.48-.31.32-.47.71-.47,1.16,0,.39.17.88.51,1.47l.44.76c.79,1.38,1.19,2.7,1.19,3.98,0,1.87-.67,3.46-2,4.76-1.33,1.3-2.96,1.95-4.88,1.95-.92,0-1.84-.21-2.74-.63v-5.58c.55.35,1.03.52,1.45.52.5,0,.92-.14,1.25-.43.33-.29.5-.65.5-1.08,0-.28-.27-.9-.81-1.85-.86-1.51-1.28-3.01-1.28-4.52,0-1.82.65-3.38,1.94-4.7,1.3-1.31,2.84-1.97,4.64-1.97.79,0,1.57.13,2.33.4"/>
        <path class="cls-2" d="M26.48.48v12.5c0,2.21-.66,3.96-1.97,5.28-1.31,1.32-3.06,1.98-5.25,1.98s-3.84-.64-4.99-1.92c-1.15-1.28-1.73-3.12-1.73-5.52V.48h5.73v12.3c0,1.18.42,1.76,1.26,1.76s1.21-.59,1.21-1.76V.48h5.73Z"/>
        <path class="cls-2" d="M29.57.48h5.73v11.45c0,.89.14,1.49.43,1.79.29.3.86.45,1.7.45h.3v5.59h-1.52c-2.09,0-3.72-.61-4.89-1.83-1.16-1.22-1.75-2.91-1.75-5.08V.48Z"/>
        <path class="cls-2" d="M52.7,10.34l6,.16c-.4,3.11-1.47,5.51-3.23,7.2-1.76,1.69-4.05,2.54-6.87,2.54s-5.27-.96-7.21-2.89c-1.94-1.92-2.9-4.31-2.9-7.17s.99-5.29,2.96-7.24C43.42.98,45.85,0,48.75,0s5.22.96,7.12,2.88c1.32,1.33,2.25,3.17,2.79,5.55l-6.14.41c-.69-2.11-1.99-3.16-3.91-3.16-1.22,0-2.23.42-3.03,1.27-.8.85-1.19,1.93-1.19,3.23s.39,2.3,1.17,3.13c.78.82,1.77,1.24,2.97,1.24s2.18-.36,2.9-1.09c.72-.72,1.15-1.76,1.28-3.12"/>
        <path class="cls-2" d="M68.4,10.08v5.08h-1.65v4.59h-5.73V7.5c0-2.37.65-4.22,1.94-5.53C64.25.66,66.07,0,68.42,0s3.93.59,5.01,1.79c1.08,1.19,1.62,3.03,1.62,5.51v12.45h-5.73V7.68c0-.75-.09-1.27-.27-1.57s-.5-.44-.96-.44c-.9,0-1.34.67-1.34,2.01v2.4h1.65Z"/>
        <path class="cls-2" d="M78.13,19.76V5.86c0-1.72.52-3.13,1.57-4.22C80.74.55,82.1,0,83.76,0c1.98,0,3.5.91,4.56,2.72.65-.98,1.35-1.68,2.09-2.1C91.16.21,92.08,0,93.17,0c1.73,0,3.06.55,3.98,1.64.92,1.09,1.38,2.66,1.38,4.72v13.4h-5.73V7.22c0-.62-.05-1.03-.15-1.24-.1-.2-.3-.3-.6-.3-.57,0-.85.48-.85,1.44v12.64h-5.73V7.22c0-.61-.05-1.02-.16-1.23-.1-.21-.3-.31-.61-.31-.57,0-.85.51-.85,1.54v12.54h-5.73Z"/>
        <path class="cls-2" d="M109,10.08v5.08h-1.65v4.59h-5.73V7.5c0-2.37.65-4.22,1.94-5.53C104.85.66,106.67,0,109.02,0s3.93.59,5.01,1.79c1.08,1.19,1.62,3.03,1.62,5.51v12.45h-5.73V7.68c0-.75-.09-1.27-.27-1.57s-.5-.44-.96-.44c-.9,0-1.34.67-1.34,2.01v2.4h1.65Z"/>
        <path class="cls-2" d="M127.29,8.95h5.47c1.18,1.46,1.77,3,1.77,4.62,0,1.88-.69,3.47-2.07,4.75-1.38,1.28-3.08,1.92-5.09,1.92-2.62,0-4.84-.99-6.66-2.98-1.83-1.99-2.74-4.41-2.74-7.26s.93-5.24,2.79-7.15C122.6.95,124.92,0,127.71,0c.95,0,2,.19,3.16.58v5.73c-.9-.42-1.73-.63-2.47-.63-1.35,0-2.45.42-3.3,1.26-.85.84-1.28,1.92-1.28,3.26s.39,2.45,1.19,3.25c.79.8,1.86,1.2,3.2,1.2.86,0,1.29-.25,1.29-.75,0-.38-.28-.56-.85-.56h-1.37v-4.38Z"/>
      </g>
      <g>
        <path class="cls-1" d="M2.56,25.45h-1.32v1.5H.36v-3.66h2.49v.76h-1.6v.7h1.32v.69Z"/>
        <path class="cls-1" d="M14.66,25.45h-1.32v.74h1.58v.76h-2.46v-3.66h2.46v.76h-1.58v.69h1.32v.7Z"/>
        <path class="cls-1" d="M26.04,23.3c.38,0,.69.12.93.35.24.23.37.53.37.88,0,.5-.2.86-.61,1.07v.08l.74,1.21v.06h-1.01l-.68-1.2h-.38v1.2h-.88v-3.66h1.52ZM26.3,24.18c-.08-.08-.19-.12-.33-.12h-.57v.94h.57c.13,0,.24-.04.32-.13s.13-.2.13-.35-.04-.27-.13-.35Z"/>
        <path class="cls-1" d="M36.71,23.3h2.72v.76h-.92v2.89h-.88v-2.89h-.92v-.76Z"/>
        <path class="cls-1" d="M49.86,26.95h-.88v-3.66h.88v3.66Z"/>
        <path class="cls-1" d="M59.6,26.95v-3.66h.88v2.89h1.46v.76h-2.35Z"/>
        <path class="cls-1" d="M72.39,26.95h-.88v-3.66h.88v3.66Z"/>
        <path class="cls-1" d="M81.98,26.29l1.6-2.23h-1.54v-.76h2.71v.69l-1.56,2.2h1.58v.76h-2.78v-.66Z"/>
        <path class="cls-1" d="M97.45,26.95h-.95l-.19-.66h-1.2l-.19.66h-.95l1.26-3.66h.97l1.26,3.66ZM95.31,25.6h.79l-.39-1.33-.4,1.33Z"/>
        <path class="cls-1" d="M109.89,26.95h-.69l-1.53-2.03v2.03h-.88v-3.66h.68l1.54,2.07v-2.07h.88v3.66Z"/>
        <path class="cls-1" d="M119.44,23.3h2.72v.76h-.92v2.89h-.88v-2.89h-.92v-.76Z"/>
        <path class="cls-1" d="M133.9,25.45h-1.32v.74h1.58v.76h-2.46v-3.66h2.46v.76h-1.58v.69h1.32v.7Z"/>
      </g>
    </g>
  </g>
</svg>