<?xml version="1.0" encoding="UTF-8"?>
<svg id="Capa_2" data-name="Capa 2" xmlns="http://www.w3.org/2000/svg" viewBox="0 0 129.34 38.71">
  <defs>
    <style>
      .cls-1 {
        fill: #232856;
      }

      .cls-2 {
        fill: #019839;
      }
    </style>
  </defs>
  <g id="Capa_1-2" data-name="Capa 1">
    <g id="layer1">
      <g id="g48700">
        <path id="path48290" class="cls-1" d="M114.1,16.93h-4.4v7.27c0,2.07,1.1,2.46,2.51,2.46.49,0,1.02-.07,1.55-.14l.34,3.26c-1.15.21-2.69.38-3.7.38-3.02,0-5.71-1.06-5.71-4.77v-8.46h-2.54v-3.21h2.54v-3.54l5.01-1.42v4.96h4.4v3.21"/>
        <path id="path48292" class="cls-1" d="M100.62,29.82h-5.01v-10.34c0-1.52-.64-2.36-2.36-2.36-1.3,0-2.13.63-3.07,1.37v11.34h-5.02V13.71h4.87v1.42c1.63-1.1,3.5-1.79,5.53-1.79,3.19,0,5.05,1.98,5.05,5.01v11.48"/>
        <path id="path48294" class="cls-2" d="M74.84,0c-2.54,4.29-1.44,8.18-3.92,10.66-1.98,1.99-3.83,1.93-6,1.93-.76,0-2.22.07-2.84.51-.35-1.13-.51-2.38-.51-3.57,0-2.04.46-3.86,1.93-5.33,2.82-2.81,7.92-3.71,11.35-4.2"/>
        <path id="path48296" class="cls-1" d="M47.68,29.82h-5.01v-10.34c0-1.52-.64-2.36-2.36-2.36-1.29,0-2.13.63-3.07,1.37v11.34h-5.01V13.71h4.87v1.42c1.63-1.1,3.5-1.79,5.52-1.79,3.19,0,5.05,1.98,5.05,5.01v11.48"/>
        <path id="path48298" class="cls-1" d="M31.44,13.71l-8.03,19.52c-1.23,3-3.71,5.2-7.08,5.2-1.69,0-2.59-.22-3.68-.47l.71-3.22c.89.2,1.56.28,2.17.28,2.02,0,3.09-1.71,4.07-4.06l.47-1.14-6.24-16.11h5.38l2.93,7.99c.35.96.56,1.95.72,2.65.18-.7.54-1.86.89-2.79l3.02-7.84h4.68"/>
        <path id="path48300" class="cls-1" d="M13.75,24.67c0,3.51-3.24,5.43-7.08,5.43-2.51,0-4.53-.42-6.66-1.27l1.37-3.26c1.27.51,3.09,1.09,4.59,1.09,1.16,0,2.78-.14,2.78-1.56,0-.66-.41-1-1.19-1.23-.96-.28-2.43-.54-3.4-.8-2.04-.56-3.73-1.64-3.73-4.63,0-3.32,2.83-5.39,6.71-5.39,2.57,0,4.19.34,5.62.76l-1.28,3.26c-.63-.29-2.41-.71-3.68-.71-1.38,0-2.32.53-2.32,1.37,0,.42.26.95.99,1.18.79.25,2.03.48,3.07.71,2.14.47,4.21,1.69,4.21,5.06"/>
        <path id="path48302" class="cls-1" d="M124.48,25.52v-2.98c-2.32-.04-4.49.2-4.49,2.41,0,1.37,1.16,1.8,2.04,1.8,1.04,0,1.84-.52,2.45-1.23ZM116.98,18.3l-1.23-2.98c2.13-1.16,4.77-1.98,7.27-1.98,3.84,0,6.33,1.84,6.33,5.05v11.43M129.34,29.82h-4.72v-1.27c-1.22,1.08-2.82,1.61-4.57,1.61-3,0-5.05-1.45-5.05-4.49,0-5.34,5.33-6.17,9.49-6.19v-.43c0-1.32-.5-2.27-2.87-2.27-1.61,0-3.43.8-4.63,1.51"/>
        <path id="path48310" class="cls-1" d="M77.76,19.62c.09-1.78-.8-2.88-2.54-2.88s-2.69,1.24-2.98,2.88h5.52ZM82.92,21.18c0,.53-.01,1.08-.05,1.65h-10.68c.05,2.34,1.21,3.73,4.63,3.73,1.51,0,3.33-.69,4.11-1.23l1.32,2.98c-2.2,1.2-4.57,1.84-7.23,1.84-5.01,0-8.12-3.23-8.12-8.37s4.08-8.45,8.5-8.45c5.51,0,7.52,3.21,7.52,7.84"/>
        <path id="path48312" class="cls-1" d="M61.72,32.47c0-1.32-1.05-1.8-2.12-1.8h-4.39c-.67.38-1.7,1.22-1.7,2.32,0,1.41,1.9,2.36,4.15,2.36s4.06-1.07,4.06-2.88ZM60.4,18.63c0-1.35-.74-2.46-2.41-2.46-1.52,0-2.45,1.29-2.45,2.46,0,1.35.84,2.46,2.36,2.46,1.67,0,2.5-1.11,2.5-2.46ZM66.74,31.81c0,4.7-4.69,6.87-9.31,6.9-4.07.02-7.98-1.15-7.98-5.06,0-1.83,1.61-3.05,2.59-3.69-.54-.31-1.04-.56-1.46-1.04-.44-.51-.81-1.26-.81-2.51,0-1.57,1.39-3.03,3.08-3.97-.94-.49-2.18-1.28-2.18-3.92,0-3.43,3.26-5.24,7.52-5.24,3.62,0,7.08.86,7.08,5.1s-3.8,5.52-7.65,5.52c-.72,0-1.36-.11-1.98-.23-.41.22-1.23.76-1.23,1.37,0,1.24,1.69,1.42,2.46,1.42h3.97c3.67,0,5.91,1.78,5.91,5.34"/>
      </g>
    </g>
  </g>
</svg>