<?xml version="1.0" encoding="UTF-8"?>
<svg id="Capa_2" data-name="Capa 2" xmlns="http://www.w3.org/2000/svg" viewBox="0 0 58.48 58.48">
  <defs>
    <style>
      .cls-1 {
        fill: #15417b;
      }

      .cls-2 {
        fill: #15427c;
      }

      .cls-3 {
        fill: #16417a;
      }

      .cls-4 {
        fill: #16417b;
      }
    </style>
  </defs>
  <g id="Capa_1-2" data-name="Capa 1">
    <g>
      <path class="cls-3" d="M0,29.21c0-8.76,0-17.52,0-26.28,0-.38.03-.74.16-1.1C.55.75,1.57.03,2.71,0c.1,0,.2,0,.3,0,17.49,0,34.98,0,52.47,0,.32,0,.64.02.94.1,1.2.3,2,1.33,2.06,2.59,0,.12,0,.24,0,.36,0,17.46,0,34.91,0,52.37,0,.31,0,.62-.07.92-.28,1.25-1.34,2.1-2.63,2.14-.08,0-.15,0-.23,0-17.53,0-35.07,0-52.6,0-.44,0-.88-.05-1.28-.24-1.05-.5-1.63-1.33-1.65-2.49-.03-1.58,0-3.16,0-4.74,0-7.27,0-14.54,0-21.8ZM29.24,39.5c5.26,0,10.52,0,15.78,0,.55,0,1.1-.05,1.64-.12.88-.13,1.7-.43,2.36-1.07.64-.62,1.12-1.35,1.42-2.19.15-.44.23-.89.24-1.36.02-1.07-.29-2.05-.75-3-.56-1.14-1.1-2.29-1.64-3.44-.21-.46-.41-.92-.48-1.43-.1-.75.25-1.31.98-1.53.19-.06.39-.08.58-.13.65-.2,1.05-.63,1.12-1.31.03-.33,0-.66,0-.99,0-.16-.1-.24-.25-.25-.08,0-.15,0-.23,0-.86,0-1.71,0-2.57,0-1.08,0-2,.64-2.37,1.66-.14.39-.2.78-.2,1.19-.02,1.13-.03,2.26-.07,3.39-.02.41-.09.83-.18,1.23-.08.37-.35.57-.71.66-.31.08-.39,0-.41-.31-.03-.37-.05-.75-.14-1.11-.48-1.9-2.27-3.26-4.23-3.22-1.15.02-2.14.43-2.97,1.23-.05.05-.09.09-.14.14-.1.09-.2.08-.3,0-.05-.04-.09-.09-.14-.14-1.61-1.56-4.11-1.64-5.81-.19-.11.09-.2.2-.31.29-.15.13-.22.13-.37,0-.05-.04-.09-.09-.14-.14-1.67-1.59-4.3-1.58-5.96.01-.05.05-.09.09-.14.14-.12.11-.23.11-.35,0-.05-.05-.09-.09-.14-.14-2.36-2.27-6.35-1.15-7.17,2.03-.09.37-.11.76-.15,1.14-.03.27-.08.33-.35.29-.42-.06-.72-.28-.82-.7-.08-.33-.14-.67-.15-1.01-.04-1.16-.05-2.33-.09-3.49-.01-.34-.04-.68-.12-1.01-.28-1.19-1.26-1.95-2.48-1.95-.63,0-1.25,0-1.88,0-.26,0-.53,0-.79,0-.29,0-.36.08-.37.38,0,.19,0,.37,0,.56,0,.92.48,1.51,1.39,1.68.18.03.37.08.54.15.5.21.78.6.78,1.15,0,.26-.02.54-.12.77-.3.76-.62,1.52-.96,2.27-.41.89-.87,1.75-1.26,2.64-.48,1.06-.66,2.18-.43,3.34.18.92.67,1.69,1.26,2.39.46.54,1.03.91,1.7,1.14.84.29,1.71.37,2.59.37,5.26,0,10.52,0,15.78,0ZM23.83,4.35c-.16,0-.24,0-.32,0-1.39,0-2.79.01-4.18,0-.39,0-.66.11-.91.41-2.87,3.42-4.17,7.3-3.45,11.76.45,2.8,1.7,5.23,3.58,7.35.17.19.36.26.6.26,1.47,0,2.94,0,4.41,0,.07,0,.14-.01.26-.02-.9-.86-1.5-1.86-1.98-2.94-.27-.61-.51-1.24-.72-1.87-.47-1.42-.78-2.88-.87-4.37-.1-1.64.16-3.24.6-4.81.58-2.1,1.36-4.1,2.99-5.75ZM42.9,4.37c-.07-.01-.1-.03-.13-.03-1.53,0-3.05,0-4.58,0-.23,0-.39.08-.54.25-.64.71-1.21,1.48-1.7,2.3-1.77,2.99-2.47,6.19-1.89,9.63.47,2.79,1.7,5.21,3.57,7.33.17.19.35.26.6.26,1.48,0,2.96,0,4.44,0,.07,0,.13-.02.23-.03-.87-.83-1.46-1.8-1.94-2.84-.58-1.25-1-2.55-1.29-3.89-.28-1.31-.44-2.64-.34-3.99.1-1.22.32-2.41.67-3.58.59-1.98,1.36-3.87,2.89-5.4ZM33.32,4.37s-.07-.02-.1-.02c-1.53,0-3.05,0-4.58,0-.21,0-.37.07-.52.23-.67.75-1.26,1.55-1.76,2.42-1.63,2.79-2.35,5.77-1.92,9,.4,2.98,1.67,5.57,3.62,7.83.18.21.38.29.66.29,1.46,0,2.92,0,4.38,0,.07,0,.14,0,.22-.01-.02-.05-.03-.07-.04-.08-.78-.75-1.34-1.65-1.8-2.62-.79-1.64-1.29-3.38-1.57-5.17-.16-1.03-.22-2.08-.11-3.12.2-1.84.64-3.62,1.36-5.34.51-1.22,1.14-2.37,2.11-3.31.02-.02.03-.05.05-.09ZM38.28,52.82c-.67-1.33-1.32-2.61-1.97-3.9.15-.07.28-.13.4-.2.78-.4,1.3-1.01,1.47-1.87.08-.4.11-.83.08-1.24-.1-1.27-.77-2.14-1.96-2.6-.47-.18-.97-.27-1.48-.27-1.66,0-3.31,0-4.97,0-.07,0-.14.01-.22.02v10.05h2.38v-3.6h1.71c.62,1.21,1.23,2.42,1.84,3.61h2.7ZM41.64,52.82c.34-.9.68-1.79,1.02-2.68h4.72c.18.47.35.93.53,1.39.26.68.76,1.08,1.46,1.26.07.02.15.03.23.03.44,0,.89,0,1.37,0-1.28-3.39-2.55-6.73-3.82-10.07-.08,0-.14-.01-.21-.01-.9,0-1.8,0-2.7,0-.79,0-1.53.51-1.81,1.25-1.09,2.86-2.17,5.72-3.25,8.58-.03.07-.04.16-.06.25h2.52ZM24.73,50.14c.35.91.69,1.8,1.02,2.67h2.54c-.03-.11-.05-.19-.08-.27-1.08-2.84-2.16-5.68-3.22-8.52-.28-.75-1.16-1.31-1.86-1.29-.88.02-1.76,0-2.63,0-.08,0-.15,0-.24.01-1.27,3.35-2.54,6.69-3.81,10.08.43,0,.8-.02,1.18,0,.75.04,1.61-.54,1.87-1.27.14-.39.29-.78.44-1.17.03-.09.08-.17.11-.25h4.7ZM10.33,52.83c.47,0,.88,0,1.3,0,.88,0,1.61-.5,1.92-1.33,1.07-2.81,2.13-5.61,3.19-8.42.04-.1.07-.2.11-.32h-2.7c-.55,1.45-1.1,2.89-1.67,4.39-.1-.16-.16-.26-.22-.37-.55-.95-1.09-1.9-1.64-2.85-.38-.66-.98-1.05-1.72-1.15-.51-.07-1.04-.01-1.6-.01.03.08.06.14.09.19.24.43.49.86.73,1.29,1.05,1.84,2.09,3.68,3.14,5.51.1.18.13.33.04.52-.13.29-.23.59-.35.89-.21.54-.41,1.08-.63,1.68Z"/>
      <path class="cls-1" d="M29.97,30.51c0-1.44,1.14-2.59,2.58-2.6,1.45,0,2.63,1.16,2.62,2.6,0,1.42-1.19,2.6-2.61,2.59-1.43,0-2.59-1.16-2.59-2.6Z"/>
      <path class="cls-1" d="M36.57,30.47c.01-1.43,1.18-2.57,2.62-2.56,1.43,0,2.58,1.18,2.57,2.61,0,1.42-1.19,2.59-2.61,2.59-1.44,0-2.6-1.19-2.59-2.64Z"/>
      <path class="cls-1" d="M21.96,30.53c0,1.43-1.18,2.59-2.6,2.58-1.43,0-2.59-1.18-2.59-2.61,0-1.44,1.18-2.6,2.63-2.59,1.44,0,2.57,1.17,2.56,2.61Z"/>
      <path class="cls-4" d="M23.37,30.46c0-1.43,1.23-2.6,2.67-2.55,1.41.04,2.55,1.22,2.52,2.64-.03,1.44-1.22,2.6-2.64,2.56-1.45-.04-2.57-1.21-2.55-2.65Z"/>
      <path class="cls-1" d="M32.03,47.48v-2.94c.08,0,.16-.02.24-.02.69,0,1.38,0,2.07,0,1.01-.01,1.52.52,1.48,1.57,0,.17-.04.35-.08.52-.16.54-.57.86-1.21.88-.82.03-1.64,0-2.5,0Z"/>
      <path class="cls-2" d="M46.69,48.41h-3.36c.03-.1.05-.18.08-.26.43-1.14.86-2.27,1.29-3.41.03-.08.06-.17.11-.24.14-.22.29-.21.42.01.03.05.05.1.07.15.46,1.22.92,2.44,1.38,3.66,0,.02,0,.04,0,.09Z"/>
      <path class="cls-2" d="M24.06,48.41h-3.37c.03-.1.05-.19.08-.27.43-1.14.86-2.27,1.3-3.41.04-.1.08-.21.15-.29.1-.14.22-.14.33,0,.05.07.09.15.13.23.46,1.2.91,2.4,1.36,3.59.01.04.02.08.03.15Z"/>
    </g>
  </g>
</svg>