<?xml version="1.0" encoding="UTF-8"?>
<svg id="Capa_2" data-name="Capa 2" xmlns="http://www.w3.org/2000/svg" viewBox="0 0 51.73 71.44">
  <defs>
    <style>
      .cls-1 {
        fill: #fff;
      }
    </style>
  </defs>
  <g id="Capa_1-2" data-name="Capa 1">
    <g>
      <path class="cls-1" d="M50.04.13l-.23-.13h-1.48l-.4.07c-.05.01-.11.03-.17.04-3.46.3-6.53,1.09-9.38,2.39-3.91,1.79-6.67,4.31-8.45,7.7-1.58,3.03-2.21,6.48-1.9,10.57.03.36.07.72.11,1.12l.03.3c-.87,1.35-1.64,2.82-2.32,4.44-.65-1.55-1.41-2.99-2.3-4.4.02-.18.04-.35.05-.52.06-.55.12-1.06.12-1.6v-.16c0-1.14.02-2.31-.11-3.48-.52-4.87-2.69-8.8-6.44-11.67C14.34,2.6,10.97,1.23,6.58.46c-.72-.12-1.45-.22-2.18-.32L3.44,0h-1.51s-.23.12-.23.12C.15,1.03-.24,1.92.13,3.64l.13.61c.42,1.9.84,3.86,1.35,5.78.68,2.58,1.61,5.6,3.32,8.4,1.74,2.86,4.18,4.59,7.25,5.14.69.12,1.39.24,2.09.35.81.13,1.62.26,2.43.41.59.11,1.17.25,1.77.4.16.04.32.08.48.11,2.43,3.73,3.75,7.98,4,13l.05.94h5.73l.05-.94c.24-5.01,1.58-9.39,3.99-13.01l.05-.07,1.53-.26c1.65-.28,3.29-.56,4.92-.86,2.68-.48,4.84-1.71,6.42-3.66,1.04-1.28,1.88-2.75,2.66-4.65,1.57-3.82,2.47-7.88,3.25-11.7.35-1.72-.04-2.6-1.57-3.49ZM19.94,23.1c-.35-.1-.7-.22-1.06-.32-2.07-.58-4.23-.79-6.34-1.17-2.52-.45-4.46-1.83-5.91-4.22-1.58-2.59-2.45-5.43-3.09-7.88-.5-1.88-.92-3.82-1.33-5.69l-.13-.61c-.17-.78-.18-.89.4-1.23h.77l.9.12c.7.09,1.4.19,2.1.31,4.07.71,7.16,1.96,9.75,3.94,3.31,2.53,5.22,6,5.68,10.31.2,1.88.18,3.8-.14,5.67-.05.29-.14.92-.52.96-.1.02-.21,0-.31-.02-.25-.04-.5-.11-.75-.18ZM26.87,36.79h-1.99c-.34-4.34-1.45-8.16-3.37-11.58.27-.06.52-.16.74-.31.15-.1.29-.21.42-.34.9,1.61,1.64,3.3,2.26,5.2l.93,2.83.95-2.83c.66-1.96,1.41-3.69,2.29-5.25.15.17.33.33.54.45.19.11.39.18.59.23-1.9,3.37-3.03,7.26-3.36,11.6ZM49.67,3.23c-.77,3.73-1.64,7.68-3.15,11.35-.7,1.71-1.45,3.02-2.36,4.15-2.14,2.63-5.78,3.14-8.91,3.77-1.13.23-4.61,1.78-5.12.03-.28-.98-.11-2.07-.18-3.08s0-2,.12-2.98c.22-1.86.75-3.68,1.62-5.35,1.56-2.99,4.02-5.22,7.52-6.82,1.62-.74,3.33-1.29,5.07-1.67.88-.19,1.77-.34,2.67-.46.44-.06.87-.1,1.31-.14.21-.02.81-.17,1.01-.05.57.35.56.45.4,1.25Z"/>
      <path class="cls-1" d="M12.73,54.55h7.06c-.35.54-.56,1.18-.56,1.86,0,1.9,1.54,3.44,3.44,3.44s3.44-1.54,3.44-3.44c0-.69-.21-1.32-.56-1.86h7.06c-.35.54-.56,1.18-.56,1.86,0,1.9,1.54,3.44,3.44,3.44s3.44-1.54,3.44-3.44c0-.69-.21-1.32-.56-1.86h6.45l.18-.9c.03-.12.06-.24.07-.36.35-2.91-1.6-5.68-4.53-6.44-1.86-2.65-4.38-3.79-7.51-3.37-1.77-2.17-4.36-3.41-7.12-3.42h-.04c-2.75,0-5.35,1.23-7.18,3.42-3.08-.41-5.6.7-7.47,3.31-.02.02-.07.05-.09.06-2.55.69-4.4,2.96-4.5,5.51-.02.44.02.89.11,1.38l.15.81h.07c-.35.54-.56,1.18-.56,1.86,0,1.9,1.54,3.44,3.44,3.44s3.44-1.54,3.44-3.44c0-.69-.21-1.32-.56-1.86ZM22.67,57.87c-.81,0-1.46-.66-1.46-1.46s.66-1.46,1.46-1.46,1.46.66,1.46,1.46-.66,1.46-1.46,1.46ZM35.49,57.87c-.81,0-1.46-.66-1.46-1.46s.66-1.46,1.46-1.46,1.46.66,1.46,1.46-.66,1.46-1.46,1.46ZM8.61,52.44c.07-1.7,1.32-3.21,3.04-3.68.46-.12.91-.44,1.18-.81,1.45-2.02,3.29-2.84,5.65-2.5.71.1,1.26-.12,1.73-.69,1.42-1.73,3.48-2.73,5.67-2.73h.03c2.19,0,4.25,1.02,5.65,2.76.43.54.97.76,1.65.66,2.4-.34,4.28.48,5.73,2.54.25.36.68.65,1.11.76,1.82.48,3.08,2.07,3.1,3.82H8.6s0-.09,0-.13ZM9.84,57.87c-.81,0-1.46-.66-1.46-1.46s.66-1.46,1.46-1.46,1.46.66,1.46,1.46-.66,1.46-1.46,1.46Z"/>
      <path class="cls-1" d="M16.26,58.76c-1.9,0-3.44,1.54-3.44,3.44s1.54,3.44,3.44,3.44,3.44-1.54,3.44-3.44-1.54-3.44-3.44-3.44ZM16.26,63.66c-.81,0-1.46-.66-1.46-1.46s.66-1.46,1.46-1.46,1.46.66,1.46,1.46-.66,1.46-1.46,1.46Z"/>
      <path class="cls-1" d="M29.08,58.76c-1.9,0-3.44,1.54-3.44,3.44s1.54,3.44,3.44,3.44,3.44-1.54,3.44-3.44-1.54-3.44-3.44-3.44ZM29.08,63.66c-.81,0-1.46-.66-1.46-1.46s.66-1.46,1.46-1.46,1.46.66,1.46,1.46-.66,1.46-1.46,1.46Z"/>
      <path class="cls-1" d="M41.68,58.76c-1.9,0-3.44,1.54-3.44,3.44s1.54,3.44,3.44,3.44,3.44-1.54,3.44-3.44-1.54-3.44-3.44-3.44ZM41.68,63.66c-.81,0-1.46-.66-1.46-1.46s.66-1.46,1.46-1.46,1.46.66,1.46,1.46-.66,1.46-1.46,1.46Z"/>
      <path class="cls-1" d="M22.67,64.56c-1.9,0-3.44,1.54-3.44,3.44s1.54,3.44,3.44,3.44,3.44-1.54,3.44-3.44-1.54-3.44-3.44-3.44ZM22.67,69.46c-.81,0-1.46-.66-1.46-1.46s.66-1.46,1.46-1.46,1.46.66,1.46,1.46-.66,1.46-1.46,1.46Z"/>
      <path class="cls-1" d="M35.49,64.56c-1.9,0-3.44,1.54-3.44,3.44s1.54,3.44,3.44,3.44,3.44-1.54,3.44-3.44-1.54-3.44-3.44-3.44ZM35.49,69.46c-.81,0-1.46-.66-1.46-1.46s.66-1.46,1.46-1.46,1.46.66,1.46,1.46-.66,1.46-1.46,1.46Z"/>
    </g>
  </g>
</svg>