<?xml version="1.0" encoding="UTF-8"?>
<svg id="Capa_2" data-name="Capa 2" xmlns="http://www.w3.org/2000/svg" viewBox="0 0 61.75 65.08">
  <defs>
    <style>
      .cls-1 {
        fill: #fff;
      }
    </style>
  </defs>
  <g id="Capa_1-2" data-name="Capa 1">
    <g>
      <path class="cls-1" d="M9.13,42.75c-.7-.45-1.38-.84-2.01-1.3-1.71-1.26-3-2.8-3.18-5.05-.01-.14-.21-.33-.37-.39-2.33-.87-3.28-2.61-2.73-5.02.96-4.16,1.91-8.32,2.85-12.48.35-1.56,1.24-2.58,2.72-3.15.21-.08.42-.32.51-.54.21-.53.33-1.11.52-1.65.45-1.26,1.63-1.96,2.95-1.75.75.12,1.5.26,2.24.45,1.35.34,2.14,1.57,1.89,2.95-.09.52-.28,1.02-.39,1.54-.05.21,0,.44.15.69.11-.24.24-.47.33-.72,1.17-3.35,6.82-4.34,8.86-1.01.95,1.54,1.75,3.19,2.5,4.84.82,1.83,1.5,3.72,2.23,5.59.23.6.62.94,1.26,1.14,2.04.65,4.06,1.37,6.09,2.06,2.32.79,3.03,2.13,2.37,4.48-.02.09-.04.18-.04.15,2.93.95,5.87,1.83,8.76,2.85,1.61.56,3.14,1.33,4.7,2.02.69.31.93.85.69,1.37-.24.51-.83.66-1.5.33-4.58-2.25-9.41-3.77-14.37-4.91-.48-.11-.84-.08-1.17.3-1.36,1.57-2.75,3.11-4.09,4.69-.64.75-1.2,1.57-1.85,2.44.46.48.95,1.03,1.46,1.54.75.75,1.19,1.65,1.19,2.72.01,4.81.04,9.61-.01,14.42-.02,2.09-1.82,3.72-3.9,3.73-2.05,0-3.83-1.57-3.9-3.65-.09-2.77-.04-5.54-.05-8.32,0-1.27.03-2.54-.02-3.81-.02-.4-.18-.85-.42-1.17-.59-.77-1.24-1.49-1.9-2.2-.17-.18-.44-.33-.68-.35-1.47-.11-2.94-.17-4.49-.25-.18,1.09-.37,2.31-.58,3.53-.04.22-.11.45-.23.64-2.53,4.02-5.06,8.05-7.63,12.06-.95,1.49-2.37,2.21-4.14,1.97-1.8-.25-3.04-1.29-3.59-3.04-.39-1.24-.15-2.41.51-3.52,2.69-4.52,5.37-9.05,8.06-13.58.13-.21.25-.43.37-.65ZM26.04,42.52c-1.88-1.95-3.56-3.72-5.28-5.45-.42-.42-.5-.83-.39-1.37.47-2.26.9-4.53,1.39-6.78.11-.52.03-.93-.22-1.37-.84-1.46-1.66-2.93-2.46-4.41-.32-.59-.16-1.13.37-1.43.49-.28,1.01-.12,1.37.41.09.13.16.28.24.42,1.06,1.92,2.2,3.8,3.17,5.76.59,1.19,1.38,1.93,2.68,2.18.63.12,1.23.39,1.84.6,2.04.68,4.07,1.36,6.11,2.03.66.22,1.23-.04,1.43-.6.21-.58-.09-1.19-.72-1.46-.13-.05-.26-.1-.39-.14-2.31-.79-4.64-1.56-6.93-2.39-.44-.16-.93-.5-1.14-.9-.66-1.21-1.23-2.47-1.76-3.75-.78-1.87-1.45-3.79-2.26-5.65-.48-1.11-1.25-2.05-2.36-2.64-1.53-.82-3.38-.25-4.11,1.32-.36.77-.65,1.58-.85,2.41-1.09,4.58-2.1,9.17-3.21,13.75-.63,2.61-1.13,5.23-.91,7.93.02.24.1.62.26.69.92.39,1.88.7,2.89,1.06.19-1.36.33-2.59.57-3.81.08-.43.32-.98.65-1.17.51-.3.98.11,1.35.54,1.4,1.63,2.84,3.23,4.24,4.86.27.32.54.47.95.35,1.1-.31,2.21-.62,3.51-.98ZM13.41,20.38c.04-1.42-.61-2.21-1.85-2.49-1.01-.22-2.03-.43-3.05-.65-1.47-.32-2.53.32-2.86,1.76-.95,4.11-1.89,8.23-2.81,12.34-.34,1.5.41,2.64,1.92,2.97.97.21,1.94.41,2.91.61,1.47.31,2.49-.32,2.83-1.79.7-3.03,1.37-6.07,2.06-9.11.3-1.3.6-2.6.84-3.66ZM11.05,43.65c-.09.12-.18.25-.27.38-1.19,1.98-2.37,3.96-3.56,5.94-1.6,2.67-3.19,5.35-4.8,8.02-.49.82-.6,1.64-.11,2.49.92,1.59,2.94,1.58,3.97-.04,2.48-3.89,4.95-7.79,7.41-11.69.1-.15.2-.32.23-.49.19-1.13.37-2.27.55-3.42-1.15-.39-2.28-.78-3.44-1.18ZM23.57,45.35c.55.61,1.08,1.24,1.66,1.82.46.46.64.96.63,1.61-.02,3.97-.01,7.94,0,11.91,0,.34,0,.7.09,1.03.27.95,1.2,1.5,2.21,1.35.96-.15,1.61-.94,1.61-2.03,0-4.57.03-9.14-.02-13.71,0-.57-.29-1.22-.64-1.69-.5-.67-1.18-1.22-1.74-1.77-1.26.49-2.48.97-3.8,1.49ZM23.21,30.98c-.3,1.38-.64,2.84-.91,4.31-.05.25.12.62.31.82,1.42,1.49,2.88,2.94,4.31,4.41.22.22.38.5.6.79,1.02-1.28,1.89-2.39,2.79-3.47.91-1.08,1.87-2.13,2.84-3.23-.27-.1-.48-.18-.69-.25-2.62-.88-5.25-1.74-7.87-2.64-.47-.16-.9-.47-1.38-.73ZM6.13,36.64c.46,1.92,1.86,2.98,3.53,3.99v-3.74c-1.14-.08-2.28-.16-3.53-.24ZM8.91,15.29c1.1.23,2.14.45,3.17.66.08-.15.13-.22.16-.31.42-1.39.99-1.79-1.17-2.15-1.64-.27-1.64-.32-2.06,1.28-.03.13-.05.27-.1.51ZM19.32,43.64c.03-.07.05-.13.08-.2-.75-.84-1.5-1.68-2.33-2.61-.14.91-.26,1.63-.38,2.44.94.13,1.79.25,2.64.37Z"/>
      <path class="cls-1" d="M31.89,4.43c1.88,0,3.71-.01,5.53.01.35,0,.81.07,1.01.3.21.24.34.78.21,1.04-.14.29-.61.59-.95.6-1.61.06-3.23.02-4.85.04-.33,0-.66.14-.98.22.34.09.67.22,1.01.25.46.04.92,0,1.39.02.69.03,1.02.36,1.05,1.02.18,3.55-2.49,7.31-5.92,8.35-.76.23-1.27-.01-1.52-.76-.26-.78-.49-1.58-.74-2.39-1.98.14-3.63-.49-4.76-2.08-.51-.73-.91-1.64-1.04-2.51-.18-1.22-.17-2.5-.04-3.73C21.55,2.15,23.66.22,26.36.02c2.5-.19,4.69,1.44,5.42,4.03.03.11.07.22.12.39ZM30.06,6.91c0-.6.02-1.1,0-1.61-.07-1.86-1.49-3.26-3.33-3.3-1.81-.04-3.39,1.32-3.5,3.13-.07,1.03-.06,2.08.01,3.11.1,1.37,1.11,2.53,2.43,2.88.24.07.51.06.77.09,0-.15.01-.2,0-.24-.23-.82-.47-1.64-.7-2.46-.3-1.07.09-1.59,1.2-1.6,1.01,0,2.02,0,3.13,0ZM33.32,8.91h-5.4c.53,1.76,1.05,3.45,1.58,5.2,2.14-1.15,3.41-2.8,3.82-5.2Z"/>
      <path class="cls-1" d="M54.67,47.45c-.26.23-.5.6-.83.72-.47.17-.97-.04-1.13-.55-.39-1.25-.74-2.52-1.05-3.8-.12-.49.17-.85.64-1.01.47-.16.96-.04,1.12.43.45,1.33.8,2.69,1.24,4.2Z"/>
      <path class="cls-1" d="M61.75,39.91c0,.75-.5,1.22-1.1,1.09-1.28-.29-2.55-.64-3.79-1.04-.48-.15-.66-.64-.52-1.14.15-.53.59-.76,1.08-.64,1.25.3,2.5.63,3.72,1.04.3.1.48.54.61.69Z"/>
      <path class="cls-1" d="M56.33,41.89c.33.19.61.28.8.47.8.77,1.58,1.55,2.36,2.35.48.5.49,1.05.06,1.46-.41.39-.95.38-1.42-.08-.8-.77-1.61-1.53-2.33-2.37-.22-.25-.31-.77-.22-1.1.07-.28.48-.47.77-.72Z"/>
    </g>
  </g>
</svg>