<?xml version="1.0" encoding="UTF-8"?>
<svg id="Capa_2" data-name="Capa 2" xmlns="http://www.w3.org/2000/svg" viewBox="0 0 53.68 68.96">
  <defs>
    <style>
      .cls-1 {
        fill: #fff;
      }
    </style>
  </defs>
  <g id="Capa_1-2" data-name="Capa 1">
    <g>
      <path class="cls-1" d="M49.44,68.96h-4.56c-.31,0-.59-.16-.76-.42s-.18-.58-.05-.86l.15-.33c.38-.82.46-.92,1.11-1.43l.28-.22c.73-.61.63-2.65.57-3.87-.04-.76-.06-1.31.05-1.71,0-.14-.53-.8-.88-1.24-.82-1.02-1.9-2.34-2.49-4.32-7.17,4.1-12.63,1.99-15.96.71-.9-.35-2.14-.83-2.41-.67-.02.01-.11.12-.18.46-.25,1.31-1.12,3.96-1.9,5.78-.99,2.42-.27,6.6-.19,7.07.05.26-.02.53-.19.73-.17.2-.42.32-.69.32h-4.37c-.29,0-.57-.14-.74-.39s-.2-.55-.1-.83c.35-.91.81-1.3,1.11-1.56.19-.16.19-.17.21-.24.54-3.18.46-8.68-.92-10.31-1.2-1.44-1.37-2.45-1.51-3.27-.13-.79-.23-1.36-1.28-2.4-1.42-1.46-1.66-2.52-1.84-3.37-.14-.65-.25-1.12-.93-1.81-.8-.79-1.38-.65-2.63-.26-.6.19-1.28.41-2.04.45-.11,0-.26.02-.42.04-1.18.12-2.97.31-4-.65-1.04-.95-2.24-3.09-1.77-4.65.24-.8.86-1.31,1.74-1.45.9-.2,4.61-3.54,5-5.18.24-.94,1.91-3.14,3.71-3.12.87.01,2.02.53,2.53,2.89,0,.03.17.68,2.8,2.04,2.28,1.25,4.04,1.7,5.26,1.35,2.27-.56,2.71-.52,4.16-.05.74.24,1.85.6,4.01,1.01,2.65.54,6.04-.09,9.32-.71,3.55-.67,6.91-1.3,9.16-.35,2.71,1.08,3.15,2.14,3.57,3.75.19.74.41,1.58,1.14,2.68,2.02,3,.95,8.83.14,12.04l-.02.14c-.07.55-.22,1.84-1.06,4.48-.73,2.5-1.48,7.1-1.26,8.66.04.26-.04.51-.21.71-.17.19-.42.31-.67.31ZM46.64,67.17h1.86c.02-2.36.75-6.28,1.38-8.42.8-2.49.94-3.67.99-4.17l.03-.21s.03-.14.04-.17c1.24-4.9,1.28-8.86.11-10.61-.9-1.36-1.17-2.4-1.38-3.23-.3-1.17-.44-1.71-2.52-2.54-1.77-.75-4.87-.17-8.15.45-3.44.65-7.01,1.31-9.99.7-2.26-.43-3.44-.81-4.22-1.07-1.11-.36-1.23-.4-3.15.07-1.67.47-3.83-.01-6.56-1.5-2.34-1.22-3.49-2.22-3.71-3.25-.19-.89-.51-1.47-.8-1.48h-.02c-.68,0-1.8,1.31-1.94,1.76-.58,2.38-4.91,6.27-6.46,6.51,0,0,0,0,0,0-.26.04-.28.12-.31.2-.17.57.41,2.04,1.27,2.82.44.41,1.95.25,2.6.19.19-.02.35-.04.49-.05.55-.03,1.07-.2,1.62-.37,1.26-.4,2.84-.9,4.44.7,1.06,1.06,1.25,1.93,1.41,2.69.17.75.31,1.41,1.37,2.49,1.44,1.44,1.61,2.46,1.77,3.36.12.73.23,1.36,1.11,2.42,2.08,2.47,1.78,9.02,1.3,11.81-.09.39-.24.66-.41.87h1.5c-.22-1.69-.44-4.82.46-7.02.73-1.71,1.57-4.24,1.8-5.43.17-.82.53-1.38,1.07-1.68,1.01-.55,2.23-.08,3.92.57,3.38,1.3,8.49,3.27,15.43-1.2.25-.17.57-.19.85-.06.28.12.47.38.52.68.35,2.23,1.49,3.62,2.4,4.74.78.96,1.45,1.78,1.23,2.8-.05.2-.02.77,0,1.19.08,1.75.2,4.15-1.22,5.34l-.11.08Z"/>
      <path class="cls-1" d="M33.35,20.65h-1.05c-.25,0-.5-.11-.67-.3-.17-.19-.25-.44-.22-.69.1-.91.05-3.44-1.32-4.16-.06-.03-.11-.07-.16-.11-.84-.42-1.52-.96-2.03-1.61-2.43-2.92-1.23-4.89-.26-6.48.13-.21.25-.41.37-.62-.08-.06-.15-.13-.22-.21-.27-.32-.41-.77-.34-1.23-.19,0-.37-.08-.52-.2-.25-.2-.37-.51-.32-.83.12-.8.67-1.34,1.03-1.64-.17-.3-.19-.64-.08-.93.18-.5.66-.8,1.22-.81.16-.3.44-.68.99-.81.39-.09.78.04,1.06.25.22-.1.46-.14.7-.12.51.06.95.41,1.15.91.09.23.13.47.11.71.04.04.08.08.12.12.24.26.34.63.28,1.02-.04.27-.17.54-.34.76.1.71.05,1.41.01,2.05-.03.42-.05.81-.03,1.14.03.29.33.55.57.7.67.42,1.54.55,1.94.52.71-2.09,2.17-3.58,3.78-3.84,1.23-.2,2.37.35,3.22,1.54.22.31.22.73,0,1.04.36.49.69,1.14.93,2.01.12.42-.08.85-.46,1.04-.03.01-.06.03-.08.04.14.51.17,1.09.08,1.75-.06.43-.42.76-.85.77-.43.06-.82-.28-.91-.71-.08-.38-.25-.87-.56-1.01-.29-.12-.78-.02-1.36.28-.1.25-.19.51-.28.76-.14.4-.28.77-.41,1.07-.54,1.29-1.56,2.25-3.02,2.81-.82.4-1.23,2.88-1.16,4.04.02.25-.07.49-.24.67-.17.18-.41.28-.65.28ZM31.22,14.08c.88.58,1.38,1.48,1.67,2.4.33-1.04.88-2.02,1.8-2.47,1.05-.41,1.73-1.04,2.09-1.88.13-.29.25-.62.37-.97.13-.36.27-.75.43-1.12.07-.18.2-.33.37-.43.19-.11.37-.21.54-.29-.04-.04-.08-.09-.11-.15-.17-.29-.17-.65.01-.94.27-.42.56-.75.88-.99,0,0-.01,0-.02,0-.37.07-.74-.1-.94-.42-.03-.05-.05-.1-.07-.15-.53.52-.99,1.29-1.26,2.17-.02.07-.05.14-.09.2,0,.01,0,.02-.01.03-.31.68-1.19.95-2.46.73-1.45-.24-3.21-1.12-3.37-2.8-.03-.47,0-.94.03-1.4.04-.71.09-1.44-.07-2.04-.06-.21-.03-.43.06-.62-.1-.08-.17-.18-.23-.31-.03-.06-.06-.15-.08-.27-.08,0-.17,0-.25-.01-.1-.02-.27-.06-.44-.18-.06.08-.13.16-.2.21,0,.06,0,.12,0,.17-.03.27-.17.51-.39.66-.04.03-.11.14-.17.22,0,0,0,0,0,0,.11.08.2.17.27.28.2.3.26.67.16,1.03-.02.1-.05.21-.1.33.08.03.16.07.23.12.33.23.46.65.33,1.02-.26.75-.65,1.38-1.02,1.99-.94,1.54-1.5,2.47.12,4.41.4.5.96.92,1.66,1.24.1.05.19.11.27.19ZM36.96,8.73h0s0,0,0,0ZM31.47,2.56s0,0,0,0c0,0,0,0,0,0ZM31.74,1.78s0,.01-.01.02c0,0,0-.01.01-.02ZM29.24.89s.04,0,.06.02c-.02,0-.04-.01-.06-.02Z"/>
      <path class="cls-1" d="M40.44,37.82c-.24,0-.47-.09-.63-.26-.19-.19-.29-.47-.25-.74l.46-3.76c-.32-.71-.56-1.18-.72-1.48-2.9,1.08-7.37.98-9.6.29-.12.35-.23.67-.33.98-.44,1.3-.81,2.37-1.32,4.04-.11.34-.41.59-.77.63l-1.23.12c-.28.04-.55-.08-.74-.28-.19-.2-.28-.48-.23-.76,0-.03.52-3.4-1.52-6.44-2.06-3.09-2.42-3.08-3.52-3.05-1,.03-2.5.06-5.27-1.12-.6-.24-.81-.93-.99-1.54-.03-.1-.06-.19-.08-.25-.23-.42-.28-.86-.12-1.25.25-.61.85-.79,1.38-.94.49-.14.99-.28,1.25-.7.03-.05.07-.1.11-.14.61-.64.8-.89.91-1.05.24-.33.36-.44.91-.8.43-.28.44-.59.41-1.07-.02-.31-.05-.83.42-1.16.14-.1.51-.29,1.02-.07.81.37,3.02,1.95,3.19,2.07.65.5.85.46,1.6.27.59-.15,1.41-.34,2.61-.26,1.78.09,3.62.03,5.4-.03,4.54-.15,8.83-.3,11.05,2.38,1.64,1.98,1.9,5.12.82,9.89-.01.05-.03.1-.05.15-.16.37-.33.74-.52,1.11-.61,1.25-1.18,2.43-1.14,4.13.01.46-.33.86-.79.91l-1.6.18s-.07,0-.1,0ZM20.29,25.31c1.64,0,2.48.45,4.75,3.85,1.3,1.93,1.74,3.95,1.85,5.43.26-.81.51-1.52.78-2.32.19-.57.4-1.18.64-1.91.1-.3.35-.52.66-.59.31-.07.63.03.84.27.74.54,6.44,1.11,9.42-.38.31-.16.69-.12.96.1.12.09.48.38,1.55,2.8.07.15.09.31.07.47l-.03.28c.21-.54.45-1.03.68-1.5.16-.32.31-.64.45-.95.91-4.08.76-6.79-.47-8.28-1.66-2-5.34-1.88-9.61-1.73-1.81.06-3.69.12-5.57.03-.94-.07-1.54.08-2.07.21-.88.22-1.79.45-3.12-.58-.23-.17-1.09-.78-1.83-1.26-.13.52-.43,1.09-1.14,1.55-.36.24-.36.24-.44.35-.13.19-.36.5-1.01,1.18-.63.93-1.58,1.21-2.22,1.39,0,0-.02,0-.03,0,.02.06.04.12.06.19.04.12.11.35.17.49,2.3.95,3.48.92,4.34.9.1,0,.2,0,.3,0ZM15.45,24.32s.02,0,.03.01c0,0-.02,0-.03-.01Z"/>
    </g>
  </g>
</svg>