<?xml version="1.0" encoding="UTF-8"?>
<svg id="Capa_2" data-name="Capa 2" xmlns="http://www.w3.org/2000/svg" viewBox="0 0 57.74 56.98">
  <defs>
    <style>
      .cls-1 {
        fill: #fff;
      }
    </style>
  </defs>
  <g id="Capa_1-2" data-name="Capa 1">
    <g>
      <path class="cls-1" d="M8.72,35.71h-.04c-2.46-.05-4.59-1.08-6.17-2.99C-.11,29.55-.69,25.97.83,22.37c1.02-2.42,2.99-4.1,5.41-4.61,2.46-.53,5.02.23,7,2.09,3.4,3.17,4.23,8.09,2.03,11.95-1.41,2.46-3.65,3.82-6.5,3.91h-.04ZM7.76,20.43c-.31,0-.63.03-.94.1-1.49.32-2.72,1.39-3.38,2.94-1.11,2.63-.7,5.06,1.26,7.43,1.04,1.26,2.38,1.92,4,1.96,1.87-.07,3.17-.86,4.09-2.48,1.55-2.72.94-6.2-1.5-8.47-1.04-.97-2.29-1.48-3.54-1.48ZM20.28,20.56c-1.67,0-3.36-.55-4.86-1.68-4.47-3.36-5.73-10.42-2.7-15.12C14.11,1.62,16.28.26,18.69.04c2.47-.24,4.95.75,6.77,2.69,2.02,2.13,3.11,4.89,3.17,7.96v.04c-.04,3-.88,5.35-2.56,7.19-1.6,1.75-3.67,2.64-5.79,2.64ZM19.39,2.85c-.15,0-.29,0-.44.02-1.56.14-2.93,1-3.84,2.43-2.23,3.45-1.27,8.84,2.02,11.31,2.23,1.68,4.99,1.43,6.85-.6,1.21-1.32,1.79-3,1.82-5.29-.05-2.38-.85-4.41-2.39-6.04-1.11-1.18-2.55-1.83-4.01-1.83ZM37.48,20.54c-.51,0-1.02-.05-1.53-.16-2.61-.53-4.76-2.38-5.91-5.06-.6-1.42-.91-2.92-.9-4.47v-.03c.09-3.55,1.32-6.43,3.66-8.57,1.92-1.76,4.39-2.54,6.77-2.16,2.39.38,4.5,1.91,5.78,4.2,2.42,4.3,1.52,10.35-2.05,13.78-1.67,1.61-3.74,2.47-5.83,2.47ZM31.98,10.88c0,1.17.22,2.26.67,3.33.77,1.81,2.18,3.05,3.86,3.39,1.67.35,3.42-.24,4.82-1.58,2.63-2.53,3.33-7.17,1.55-10.34-.87-1.55-2.21-2.54-3.76-2.79-1.54-.25-3.11.27-4.41,1.46-1.77,1.62-2.67,3.75-2.74,6.53Z"/>
      <path class="cls-1" d="M49.02,35.7c-2.74,0-5.31-1.55-6.7-4.22-1.14-2.2-1.32-4.92-.49-7.46.81-2.47,2.5-4.49,4.64-5.54,2.01-.99,4.2-1.12,6.17-.38,1.96.74,3.5,2.29,4.35,4.35.24.59.38,1.17.52,1.73.06.23.11.45.17.68l.05.38-.05,2.21c-.07.23-.13.47-.19.71-.15.58-.3,1.18-.55,1.79-1.1,2.69-2.96,4.49-5.52,5.36-.8.27-1.61.4-2.4.4ZM50.04,20.47c-.77,0-1.56.19-2.32.56-1.45.71-2.62,2.12-3.19,3.88-.6,1.82-.49,3.73.31,5.26,1.14,2.18,3.47,3.19,5.68,2.44,1.77-.6,3.01-1.82,3.8-3.75.19-.45.3-.93.42-1.4.05-.2.1-.39.15-.59v-1.44c-.05-.19-.1-.38-.14-.57-.11-.45-.21-.9-.39-1.32-.55-1.33-1.51-2.31-2.73-2.77-.51-.19-1.05-.29-1.6-.29Z"/>
      <path class="cls-1" d="M43.27,56.98h-.1c-4.24-.16-7.97-1.18-11.42-3.12-.78-.44-1.71-.94-2.64-1.3-.1-.04-.35-.04-.49.01-.69.26-1.45.62-2.37,1.16-3.51,2.02-7.32,3.11-11.31,3.22-2.46.05-4.52-.41-6.32-1.47-2.17-1.27-3.53-3.27-4.05-5.93-.68-3.49.33-6.8,3.01-9.82,1.38-1.55,2.98-2.7,4.77-3.41,1.17-.46,1.84-1.47,2.48-2.83.82-1.72,1.58-3.47,2.35-5.22l.43-.99c1.2-2.73,2.8-4.73,4.89-6.1,5.06-3.34,12.1-2.1,15.68,2.76.84,1.13,1.48,2.39,1.95,3.37.57,1.2,1.12,2.41,1.67,3.62.5,1.11,1.01,2.23,1.53,3.33.46.96,1.23,1.65,2.57,2.32,4.71,2.34,7.29,6.06,7.45,10.75.17,5.01-2.83,8.62-7.83,9.42-.59.09-1.19.14-1.68.18l-.57.05ZM28.9,49.69c.44,0,.87.07,1.24.22,1.1.43,2.14.99,3.01,1.48,3.02,1.7,6.31,2.6,10.05,2.75l.43-.04c.43-.04.95-.08,1.46-.16,3.58-.57,5.57-2.95,5.44-6.52-.13-3.68-2.05-6.4-5.88-8.31-1.2-.6-2.9-1.62-3.87-3.64-.53-1.12-1.04-2.25-1.56-3.38-.54-1.19-1.08-2.38-1.64-3.56-.41-.86-.98-1.97-1.67-2.91-2.66-3.6-8.08-4.54-11.84-2.07-1.64,1.08-2.86,2.63-3.85,4.87l-.43.99c-.78,1.77-1.55,3.54-2.38,5.29-.77,1.62-1.84,3.4-4,4.25-1.37.54-2.61,1.43-3.69,2.65-2.09,2.36-2.86,4.77-2.35,7.39.36,1.86,1.24,3.17,2.7,4.03,1.33.78,2.9,1.14,4.8,1.08,3.51-.1,6.87-1.06,9.97-2.84,1.06-.61,1.95-1.04,2.81-1.36.39-.14.83-.21,1.25-.21Z"/>
      <path class="cls-1" d="M8.72,35.71h-.04c-2.46-.05-4.59-1.08-6.17-2.99C-.11,29.55-.69,25.97.83,22.37c1.02-2.42,2.99-4.1,5.41-4.61,2.46-.53,5.02.23,7,2.09,3.4,3.17,4.23,8.09,2.03,11.95-1.41,2.46-3.65,3.82-6.5,3.91h-.04ZM7.76,20.43c-.31,0-.63.03-.94.1-1.49.32-2.72,1.39-3.38,2.94-1.11,2.63-.7,5.06,1.26,7.43,1.04,1.26,2.38,1.92,4,1.96,1.87-.07,3.17-.86,4.09-2.48,1.55-2.72.94-6.2-1.5-8.47-1.04-.97-2.29-1.48-3.54-1.48Z"/>
    </g>
  </g>
</svg>