<?xml version="1.0" encoding="UTF-8"?>
<svg id="Capa_2" data-name="Capa 2" xmlns="http://www.w3.org/2000/svg" viewBox="0 0 59.74 59.72">
  <defs>
    <style>
      .cls-1 {
        fill: #fff;
      }
    </style>
  </defs>
  <g id="Capa_1-2" data-name="Capa 1">
    <g>
      <path class="cls-1" d="M12.43,31.72l.93.22c.13.03.25.06.37.08,2.88.55,5.17,2.82,5.71,5.64.18.97.75,1.44,1.74,1.44h0c8.46-.01,16.92-.02,25.38-.02h6.95V2.07H12.43v29.64ZM14.42,4.06h37.11v33.03h-4.96c-8.4,0-16.81,0-25.21.02-.73-3.44-3.48-6.19-6.94-6.98V4.06Z"/>
      <path class="cls-1" d="M59.74,2.07c0-.37,0-1.36-.78-1.83-.78-.48-1.67-.03-2.01.13-.22.11-.43.22-.65.34-.43.23-.84.45-1.25.61-1.44.55-1.44,1.78-1.44,2.25.02,8.31.02,16.62.02,24.93v6.78c0,.92,0,1.84,0,2.77-.01.73.32,1.26.97,1.56.54.25,1.07.52,1.6.79l.74.38c.23.11.71.35,1.24.35.26,0,.53-.06.78-.21.78-.48.78-1.5.78-1.88V2.07ZM57.11,38.62c-.49-.25-.98-.5-1.49-.74.01-.87,0-1.74,0-2.61v-1.02s0-5.75,0-5.75c0-8.31,0-16.62-.02-24.93,0-.23.02-.32.02-.32.01,0,.05-.03.14-.07.53-.2,1.02-.46,1.49-.72.16-.09.33-.18.5-.26v36.75s-.64-.33-.64-.33Z"/>
      <path class="cls-1" d="M12.32,7.52c0-1.46,0-2.91-.01-4.37,0-.18-.05-1.09-.75-1.47-.91-.5-1.89-.99-3.01-1.52-.47-.22-.98-.22-1.42,0-.45.23-.77.66-.88,1.2-.05.24-.05.46-.04.64v.1s0,26.37,0,26.37v.09c0,.17,0,.33.02.5.16,1.57,1.3,2.69,2.84,2.8.29.02.58.03.87.03.22,0,.45,0,.68,0,.23,0,.47,0,.72,0h1V7.52ZM10.32,29.89c-.4,0-.77,0-1.13-.02-.57-.04-.93-.41-1-1.01,0-.09,0-.19,0-.28V2.2c.77.37,1.47.72,2.12,1.07.01,1.41.01,2.83,0,4.24v22.37Z"/>
      <path class="cls-1" d="M16.46,43.37c-.28-.27-.57-.54-.86-.83l-.72-.71-.7.73c-1.07,1.12-2.15,2.35-2.56,4.03-.22.91-.25,1.86-.07,2.68.39,1.85,2.13,3.21,4.07,3.21.04,0,.09,0,.13,0,1.82-.06,3.34-1.39,3.7-3.24.27-1.41-.11-2.81-1.08-3.93-.6-.69-1.27-1.33-1.91-1.94ZM17.5,48.86c-.18.95-.91,1.6-1.81,1.63-1.03.04-1.99-.68-2.19-1.63-.11-.52-.09-1.18.06-1.8.2-.84.68-1.57,1.38-2.38.05.05.1.09.14.14.64.61,1.24,1.18,1.78,1.8.58.67.79,1.43.63,2.25Z"/>
      <path class="cls-1" d="M8.56,36.02l-1.24.14c-.28.03-.55.06-.81.1-1.53.26-3.27.73-4.48,2.24-1.1,1.38-1.29,3.02-.53,4.62.64,1.34,1.95,2.16,3.39,2.16.11,0,.23,0,.35-.02,1.71-.16,2.99-1.17,3.59-2.86.7-1.94.35-3.79-.07-5.52l-.21-.85ZM6.97,41.72c-.35.97-.95,1.47-1.9,1.55-.76.08-1.43-.31-1.76-1.02-.44-.92-.35-1.72.28-2.51.75-.93,1.84-1.28,3.26-1.52.06-.01.12-.02.18-.03.25,1.2.35,2.38-.06,3.53Z"/>
      <path class="cls-1" d="M7.56,51.71c-.13-.55-.44-.83-.68-.96-.24-.14-.65-.26-1.19-.07-.26.09-.52.17-.78.25-.75.24-1.53.48-2.28.86-.72.36-1.41.98-1.94,1.74-1.13,1.6-.87,3.76.62,5.14.75.7,1.71,1.05,2.68,1.05.87,0,1.74-.28,2.48-.85,1.41-1.08,1.72-2.6,1.84-3.81l.02-.17-.24-.99c-.18-.73-.35-1.45-.52-2.18ZM5.26,57.29c-.79.61-1.88.58-2.59-.08-.75-.69-.89-1.76-.35-2.53.34-.48.8-.9,1.22-1.11.6-.3,1.26-.51,1.97-.74.08-.03.17-.05.25-.08.13.54.26,1.08.39,1.61l.16.66c-.13,1.13-.44,1.79-1.05,2.26Z"/>
      <path class="cls-1" d="M33.08,34.47c.07,0,.14,0,.21,0,3.62-.05,7.04-1.54,9.63-4.2,2.59-2.66,3.99-6.11,3.94-9.72-.11-7.88-6.34-13.95-14.17-13.88-3.64.05-7.06,1.53-9.64,4.18-2.61,2.68-4.02,6.2-3.96,9.9.11,7.73,6.24,13.72,13.99,13.72ZM23.77,11.54c2.39-2.46,5.57-3.84,8.94-3.88.06,0,.11,0,.17,0,7.19,0,12.88,5.64,12.99,12.9.05,3.34-1.25,6.54-3.66,9.01-2.41,2.47-5.58,3.85-8.93,3.9-.06,0-.13,0-.19,0-7.2,0-12.89-5.56-12.99-12.74-.05-3.44,1.26-6.7,3.68-9.19Z"/>
      <path class="cls-1" d="M30.46,25.33c-.08,1.85.09,3.59.52,5.3.21.85.69,1.44,1.34,1.67.2.07.4.1.61.1.5,0,1.03-.2,1.53-.58.83-.62,1.69-1.19,2.56-1.69,1.64-.93,2.88-2.06,3.8-3.45.83-1.25,1.1-2.56.8-3.89-.14-.6-.36-1.16-.6-1.75-.07-.18-.15-.36-.22-.54,1.53-2.31,1.23-5.01-.81-7.12-.73-.75-1.59-1.37-2.42-1.97l-.5-.36c-.41-.3-.84-.57-1.26-.84-.47-.3-.91-.58-1.34-.9-.74-.56-1.52-.73-2.19-.48-.66.25-1.12.86-1.3,1.73-.16.78-.29,1.55-.43,2.37-.04.24-.08.48-.12.72-1.46.14-2.94.58-4.61,1.36-.56.26-1.19.41-1.84.54-.79.17-1.4.64-1.67,1.31-.25.63-.16,1.35.27,1.97.58.85,1.19,1.64,1.81,2.34,1.84,2.06,3.82,3.41,6.07,4.12ZM23.24,17.27c.14-.35.49-.61.95-.7.69-.14,1.41-.31,2.06-.62,1.7-.8,3.18-1.22,4.64-1.3l.4-.02.07-.39c.06-.38.13-.75.19-1.11.13-.81.26-1.57.42-2.33.11-.53.35-.88.68-1.01.09-.03.18-.05.28-.05.29,0,.62.13.96.39.45.34.94.65,1.4.95.41.26.81.52,1.2.8l.51.37c.8.57,1.62,1.16,2.28,1.85,1.77,1.83,1.98,4.1.56,6.06l-.16.22.09.25c.1.28.21.55.32.81.22.55.44,1.07.55,1.59.24,1.05.02,2.1-.66,3.12-.83,1.25-1.96,2.28-3.46,3.13-.9.51-1.8,1.11-2.66,1.76-.44.33-.87.45-1.21.33-.33-.12-.58-.46-.71-.97-.44-1.73-.59-3.5-.47-5.39l.03-.4-.39-.11c-2.21-.62-4.16-1.91-5.97-3.94-.59-.66-1.17-1.42-1.73-2.24-.24-.35-.3-.72-.17-1.04Z"/>
      <path class="cls-1" d="M36.47,20.36c2.29-.23,3.41-2.72,2.13-4.64-1.28-1.93-3.43-2.63-5.28-3.96-.09.6-.19,1.07-.24,1.54-.18,1.9-.19,3.78.68,5.54.52,1.05,1.56,1.63,2.71,1.52Z"/>
      <path class="cls-1" d="M33.96,21.91c-1.28,2.41-1.08,4.89-.66,7.42,1.04-.6,2.05-1.06,2.92-1.73.9-.68,1.72-1.5,2.46-2.36.72-.83.66-2.54-.24-3.33-1.47.71-2.96.68-4.49,0Z"/>
      <path class="cls-1" d="M31.27,22.89c.38-.85.73-1.61,1.08-2.39-.87-1.27-1.21-2.74-1.41-4.25-2.15-.04-3.83,1.23-5.86,1.78,1.71,2.21,3.56,4.05,6.19,4.86Z"/>
    </g>
  </g>
</svg>