<?xml version="1.0" encoding="UTF-8"?>
<svg id="Capa_2" data-name="Capa 2" xmlns="http://www.w3.org/2000/svg" viewBox="0 0 66.56 58.3">
  <defs>
    <style>
      .cls-1 {
        fill: #fff;
      }
    </style>
  </defs>
  <g id="Capa_1-2" data-name="Capa 1">
    <g>
      <path class="cls-1" d="M63.65,35.11c2.44-2.66,3.41-6.21,2.66-9.75l-.34-1.6h-.79c-5.05.05-9.55,2.86-11.83,7.21-2.19-4.17-6.42-6.92-11.22-7.18,2.12-1.76,3.34-4.35,3.24-7.13l-.51-14.8-.65-.21c-6.92-2.21-14.26-2.21-21.82,0l-.68.2-.51,14.81c-.11,2.79,1.11,5.38,3.24,7.14-4.8.25-9.03,3-11.22,7.18-2.28-4.35-6.78-7.16-11.83-7.2h-.79s-.34,1.59-.34,1.59c-.75,3.54.21,7.09,2.66,9.75,2.17,2.36,5.25,3.65,8.38,3.57v14.94h-.12c-6.73.49-7.4.97-7.4,2.04,0,.97,0,1.61,9.27,2.15,5.41.32,12.59.49,20.23.49s14.82-.17,20.23-.49c9.27-.54,9.27-1.18,9.27-2.15,0-1.07-.67-1.55-7.4-2.03h-.12v-14.94c3.19.07,6.22-1.21,8.39-3.57ZM42.29,25.75c4.69.35,8.7,3.5,10.13,8.04l.87,2.75-1.01.13c-2.89.37-5.81-.7-7.8-2.87-2.01-2.19-2.81-5.12-2.19-8.03v-.02ZM22.77,37.19c.74-.57,1.41-1.23,2-1.97.62-.77,1.15-1.61,1.56-2.5,2.85,1.38,5.06,3.91,6.02,6.94l.87,2.75-1.01.13c-3.97.5-7.83-1.72-9.43-5.36ZM31.36,44.56v8.46c-5.98.02-11.57.15-16.22.38v-14.71c1.96.04,3.89-.43,5.59-1.37,1.63,4.46,5.96,7.36,10.63,7.25ZM26.16,30.53l-.09-.03c.43-1.64.48-3.39.11-5.13l-.1-.45,7.2,3.77,7.19-3.77-.1.45c-.37,1.74-.33,3.49.11,5.13l-.09.03c-3.06,1.17-5.6,3.46-7.12,6.33-1.52-2.87-4.06-5.16-7.12-6.33ZM34.21,39.66c.95-3.03,3.17-5.57,6.02-6.94.41.89.94,1.73,1.56,2.5.59.73,1.26,1.39,2,1.96-1.61,3.64-5.46,5.87-9.43,5.36l-1.01-.13.87-2.75ZM35.2,44.56c4.67.1,9-2.79,10.63-7.25,1.7.94,3.62,1.4,5.59,1.37v14.71h0c-4.66-.22-10.25-.35-16.22-.38v-8.46ZM23.14,16.73l.46-13.4c6.71-1.83,13.21-1.84,19.36-.02l.46,13.42h0c.1,2.68-1.36,5.15-3.8,6.44l-6.34,3.32-6.33-3.32c-2.45-1.29-3.91-3.75-3.81-6.44ZM14.14,33.79c1.43-4.54,5.44-7.69,10.13-8.04v.02c.63,2.91-.17,5.84-2.18,8.03-1.99,2.17-4.91,3.24-7.8,2.87l-1.01-.13.87-2.75ZM4.34,33.8c-2.01-2.19-2.81-5.12-2.19-8.03v-.03c4.7.35,8.71,3.5,10.14,8.04l.87,2.75-1.01.13c-2.89.37-5.81-.7-7.8-2.87ZM56.45,55.66c-4.58.38-12.38.7-23.17.7s-18.58-.32-23.17-.7c.37-.03.77-.06,1.2-.09l3.91-.23c4.88-.23,10.79-.36,17.1-.38h.95s.95,0,.95,0c6.31.01,12.23.14,17.1.38l3.92.23c.43.03.83.06,1.2.09ZM54.42,36.67l-1.01-.13.87-2.75c1.43-4.54,5.44-7.69,10.13-8.04v.02c.63,2.91-.17,5.84-2.18,8.03-1.99,2.17-4.91,3.24-7.8,2.87Z"/>
      <polygon class="cls-1" points="39.19 11.11 37.27 9.19 32.54 13.93 29.96 11.34 28.05 13.25 32.54 17.75 39.19 11.11"/>
    </g>
  </g>
</svg>