<?xml version="1.0" encoding="UTF-8"?>
<svg id="Capa_2" data-name="Capa 2" xmlns="http://www.w3.org/2000/svg" viewBox="0 0 34.24 29.99">
  <defs>
    <style>
      .cls-1 {
        fill: #9dc131;
      }
    </style>
  </defs>
  <g id="Capa_1-2" data-name="Capa 1">
    <g>
      <path class="cls-1" d="M17.12,29.99c-15.17,0-15.17-.92-15.17-1.36,0-.55.34-.8,3.81-1.04h.06v-7.69c-1.61.05-3.2-.62-4.31-1.83C.24,16.69-.26,14.87.13,13.05l.18-.82h.41c2.6.02,4.91,1.47,6.08,3.71,1.17-2.24,3.49-3.68,6.08-3.71h.41s.18.82.18.82c.19.9.17,1.79-.06,2.64l.05.02c1.57.6,2.88,1.78,3.66,3.26.78-1.48,2.09-2.65,3.66-3.26l.05-.02c-.22-.84-.25-1.74-.06-2.64l.18-.82h.41c2.6.02,4.91,1.47,6.08,3.71,1.17-2.24,3.49-3.68,6.09-3.71h.41s.17.82.17.82c.39,1.82-.11,3.65-1.37,5.02-1.12,1.21-2.68,1.89-4.31,1.83v7.68h.06c3.46.25,3.8.5,3.8,1.05,0,.44,0,1.36-15.17,1.36ZM5.2,28.63c2.36.19,6.37.36,11.91.36s9.56-.16,11.91-.36c-.19-.02-.4-.03-.62-.05l-.95-.06-.02-.2v.21l-1.05-.06c-2.51-.12-5.55-.19-8.8-.19h-.49s-.49,0-.49,0c-3.25,0-6.29.07-8.8.19l-1.05.06h0s-.96.06-.96.06c-.22.02-.43.03-.62.05ZM18.11,27.27c3.08.01,5.95.08,8.34.19h0v-7.57c-1,.03-2-.22-2.88-.71-.84,2.29-3.04,3.8-5.47,3.73v4.35ZM7.79,19.9v7.57c2.39-.12,5.27-.18,8.34-.19v-4.35c-2.41.06-4.63-1.44-5.47-3.73-.88.48-1.88.74-2.88.71ZM11.71,19.13c.83,1.87,2.81,3.02,4.85,2.76l.52-.07-.45-1.42c-.49-1.56-1.63-2.86-3.09-3.57-.21.46-.48.89-.8,1.29-.3.38-.65.71-1.03,1.01ZM17.15,21.82l.52.07c2.05.26,4.03-.89,4.85-2.76-.38-.3-.72-.63-1.03-1.01-.32-.4-.59-.83-.8-1.29-1.47.71-2.6,2.01-3.09,3.57l-.45,1.42ZM6.83,18.79l.52.07c1.49.19,2.99-.36,4.01-1.48,1.04-1.13,1.45-2.63,1.13-4.13h0c-2.41.17-4.48,1.79-5.21,4.12l-.45,1.42ZM1.11,13.24h0c-.32,1.51.09,3.02,1.13,4.14,1.03,1.11,2.52,1.66,4.01,1.48l.52-.07-.44-1.42c-.73-2.33-2.8-3.95-5.21-4.14ZM27.47,18.79l.52.07c1.48.19,2.99-.36,4.01-1.48,1.04-1.13,1.45-2.63,1.13-4.13h0c-2.41.17-4.48,1.79-5.21,4.12l-.45,1.42ZM21.75,13.24h0c-.32,1.51.09,3.02,1.13,4.14,1.03,1.11,2.53,1.67,4.01,1.48l.52-.07-.45-1.42c-.73-2.33-2.8-3.95-5.21-4.14Z"/>
      <path class="cls-1" d="M17.12,14.75l-3.72-1.95c-1.61-.84-2.56-2.47-2.5-4.24l.26-7.62.35-.1c3.89-1.13,7.66-1.13,11.22,0l.34.11.26,7.61c.07,1.77-.89,3.39-2.49,4.23l-3.73,1.95ZM12.14,1.71l-.24,6.89c-.05,1.38.7,2.65,1.96,3.31l3.26,1.71,3.26-1.71c1.26-.66,2.01-1.93,1.96-3.31h0s-.24-6.9-.24-6.9c-3.16-.94-6.51-.93-9.96,0Z"/>
      <polygon class="cls-1" points="16.74 9.13 14.43 6.82 15.41 5.83 16.74 7.16 19.17 4.73 20.16 5.71 16.74 9.13"/>
    </g>
  </g>
</svg>