<?xml version="1.0" encoding="UTF-8"?>
<svg id="Capa_2" data-name="Capa 2" xmlns="http://www.w3.org/2000/svg" viewBox="0 0 30.2 29.8">
  <defs>
    <style>
      .cls-1 {
        fill: #9dc131;
      }
    </style>
  </defs>
  <g id="Capa_1-2" data-name="Capa 1">
    <g>
      <path class="cls-1" d="M4.45,18.56h-.02c-1.25-.03-2.34-.55-3.15-1.52C-.06,15.41-.36,13.57.42,11.73c.52-1.23,1.53-2.09,2.75-2.35,1.25-.27,2.55.12,3.56,1.07,1.75,1.63,2.17,4.15,1.04,6.13-.73,1.27-1.84,1.94-3.31,1.99h-.02ZM3.95,10.5c-.18,0-.35.02-.52.06-.84.18-1.53.78-1.9,1.64-.6,1.43-.37,2.8.69,4.08.58.7,1.33,1.07,2.23,1.09,1.03-.04,1.78-.49,2.29-1.39.85-1.5.52-3.41-.82-4.66-.58-.54-1.27-.83-1.97-.83ZM10.56,10.56c-.85,0-1.71-.28-2.48-.86-2.3-1.73-2.95-5.37-1.39-7.79C7.4.82,8.51.13,9.74.02c1.27-.12,2.52.38,3.46,1.37,1.05,1.11,1.6,2.5,1.63,4.1v.02c-.02,1.57-.44,2.74-1.32,3.7-.82.89-1.87,1.34-2.95,1.34ZM10.09,1.21c-.08,0-.17,0-.25.01-.87.08-1.63.56-2.14,1.35-1.24,1.92-.72,4.81,1.1,6.18,1.22.92,2.8.78,3.82-.34.67-.73.98-1.64,1-2.89-.03-1.3-.47-2.4-1.31-3.29-.62-.65-1.42-1.01-2.23-1.01ZM19.65,10.55c-.26,0-.52-.03-.78-.08-1.33-.27-2.43-1.21-3.01-2.58-.31-.73-.47-1.51-.46-2.3h0c.05-1.84.68-3.33,1.89-4.43.98-.9,2.24-1.3,3.45-1.1,1.22.2,2.29.98,2.95,2.14,1.25,2.21.78,5.33-1.06,7.1-.86.82-1.91,1.26-2.98,1.26ZM16.59,5.6c0,.64.12,1.23.37,1.82.43,1,1.21,1.69,2.15,1.88.92.19,1.9-.13,2.68-.87,1.44-1.38,1.82-3.91.84-5.64-.48-.86-1.23-1.41-2.09-1.55-.86-.14-1.73.15-2.45.81-.97.88-1.46,2.05-1.5,3.56Z"/>
      <path class="cls-1" d="M25.75,18.56c-1.39,0-2.7-.79-3.41-2.15-.58-1.13-.67-2.52-.25-3.82.42-1.27,1.28-2.3,2.37-2.84,1.03-.5,2.14-.57,3.14-.19.99.38,1.78,1.16,2.21,2.22.12.3.2.6.27.89.03.12.06.24.09.36l.02.16-.02,1.13c-.04.13-.07.25-.1.38-.08.3-.16.61-.28.92-.57,1.38-1.52,2.3-2.83,2.74-.41.14-.82.2-1.22.2ZM26.29,10.52c-.43,0-.87.1-1.29.31-.8.39-1.45,1.17-1.76,2.14-.33,1-.27,2.05.17,2.9.64,1.22,1.95,1.78,3.18,1.36.98-.33,1.67-1,2.1-2.06.1-.24.16-.5.23-.76.03-.11.06-.22.09-.33v-.8c-.03-.1-.05-.21-.08-.32-.06-.25-.12-.49-.21-.72-.3-.74-.84-1.29-1.52-1.55-.29-.11-.59-.16-.9-.16Z"/>
      <path class="cls-1" d="M22.7,29.8h-.04c-2.22-.08-4.17-.62-5.96-1.63-.42-.24-.92-.5-1.42-.7-.09-.03-.26-.03-.36,0-.38.14-.78.34-1.28.62-1.83,1.06-3.82,1.62-5.9,1.68-1.26.04-2.33-.21-3.26-.76-1.11-.65-1.8-1.67-2.07-3.03-.35-1.8.17-3.5,1.55-5.06.71-.8,1.54-1.39,2.46-1.76.66-.26,1.04-.82,1.39-1.57.43-.91.83-1.83,1.24-2.75l.23-.53c.62-1.42,1.45-2.45,2.53-3.16,2.61-1.72,6.24-1.08,8.08,1.42.43.58.75,1.21,1.01,1.75.3.63.59,1.27.88,1.91.27.59.53,1.18.81,1.76.26.54.68.93,1.42,1.3,2.47,1.23,3.77,3.1,3.85,5.55.09,2.57-1.45,4.41-4.01,4.82-.31.05-.62.08-.88.1l-.29.03ZM15.11,26.25c.21,0,.42.03.6.1.57.22,1.12.52,1.57.77,1.62.91,3.38,1.39,5.39,1.47l.23-.02c.23-.02.51-.04.79-.09,1.97-.32,3.07-1.63,3-3.6-.07-1.98-1.14-3.5-3.19-4.52-.61-.31-1.48-.83-1.97-1.85-.28-.59-.55-1.19-.82-1.78-.29-.63-.57-1.26-.87-1.88-.24-.49-.53-1.06-.9-1.56-1.45-1.96-4.41-2.48-6.46-1.13-.89.59-1.56,1.43-2.09,2.64l-.23.53c-.41.93-.82,1.87-1.25,2.79-.39.83-.94,1.74-2.03,2.17-.75.29-1.42.78-2.01,1.44-1.14,1.28-1.55,2.6-1.28,4.03.2,1.02.69,1.75,1.5,2.23.72.43,1.59.62,2.62.59,1.88-.05,3.68-.57,5.34-1.52.56-.32,1.02-.54,1.46-.71.19-.07.4-.1.61-.1Z"/>
      <path class="cls-1" d="M4.45,18.56h-.02c-1.25-.03-2.34-.55-3.15-1.52C-.06,15.41-.36,13.57.42,11.73c.52-1.23,1.53-2.09,2.75-2.35,1.25-.27,2.55.12,3.56,1.07,1.75,1.63,2.17,4.15,1.04,6.13-.73,1.27-1.84,1.94-3.31,1.99h-.02ZM3.95,10.5c-.18,0-.35.02-.52.06-.84.18-1.53.78-1.9,1.64-.6,1.43-.37,2.8.69,4.08.58.7,1.33,1.07,2.23,1.09,1.03-.04,1.78-.49,2.29-1.39.85-1.5.52-3.41-.82-4.66-.58-.54-1.27-.83-1.97-.83Z"/>
    </g>
  </g>
</svg>