<?xml version="1.0" encoding="UTF-8"?>
<svg id="Capa_2" data-name="Capa 2" xmlns="http://www.w3.org/2000/svg" viewBox="0 0 26.15 36.11">
  <defs>
    <style>
      .cls-1 {
        fill: #9dc131;
      }
    </style>
  </defs>
  <g id="Capa_1-2" data-name="Capa 1">
    <g>
      <path class="cls-1" d="M16.35,12.55l-.17-.99,1.11-.19c.8-.14,1.6-.27,2.39-.42,1.13-.2,1.99-.69,2.65-1.49.46-.57.84-1.23,1.2-2.1.76-1.85,1.2-3.85,1.59-5.74.08-.4.09-.46-.2-.63h-.42c-.12.03-.19.04-.26.05-1.63.14-3.07.51-4.41,1.12-1.77.81-3.01,1.94-3.8,3.45-.71,1.36-.99,2.93-.85,4.8.01.17.03.35.06.54l.03.29-.99.11-.03-.29c-.02-.21-.05-.4-.06-.58-.15-2.06.16-3.81.96-5.34.9-1.71,2.29-2.99,4.27-3.89,1.44-.66,2.99-1.06,4.74-1.21l.28-.05h.75l.12.07c.77.45.97.9.79,1.77-.4,1.93-.85,3.98-1.64,5.92-.39.96-.82,1.71-1.35,2.35-.8.98-1.89,1.6-3.25,1.85-.8.14-1.6.28-2.4.42l-1.11.19Z"/>
      <path class="cls-1" d="M11.78,12.67l-.86-1.18c-.05-.06-.09-.11-.12-.17l.11-.07.04-.39c.03-.25.05-.48.06-.71,0-.63,0-1.19-.05-1.73-.23-2.18-1.2-3.93-2.87-5.21-1.31-1-2.87-1.63-4.93-1.99-.36-.06-.73-.11-1.09-.16l-.47-.06h-.35c-.29.18-.29.23-.2.63l.08.37c.21.94.41,1.88.66,2.82.33,1.23.77,2.67,1.56,3.98.74,1.21,1.71,1.9,2.99,2.13.34.06.68.12,1.02.17.42.07.84.14,1.26.21.31.06.63.13.95.21l.44.11-.23.97-.45-.11c-.31-.08-.6-.15-.9-.2-.41-.08-.83-.14-1.24-.21-.35-.06-.69-.11-1.04-.17-1.55-.28-2.79-1.15-3.67-2.6-.86-1.42-1.33-2.94-1.68-4.25-.25-.95-.46-1.9-.67-2.86l-.08-.37C-.12.97.08.52.86.07l.12-.07h.69l.53.07c.38.05.75.1,1.13.17,2.19.38,3.94,1.1,5.37,2.18,1.9,1.45,2.99,3.44,3.25,5.9.06.59.06,1.19.06,1.76,0,.35-.03.61-.06.89l-.16,1.7Z"/>
      <path class="cls-1" d="M22.25,27.58H3.48l-.07-.41c-.05-.25-.06-.48-.05-.7.05-1.29.99-2.44,2.28-2.79,1-1.36,2.28-1.92,3.85-1.7.87-1.11,2.2-1.76,3.62-1.74,1.4,0,2.7.64,3.6,1.73,1.59-.21,2.86.37,3.8,1.71,1.48.38,2.47,1.79,2.29,3.25,0,.06-.02.13-.04.19l-.09.38-.41.07ZM4.35,26.58h17.46c-.01-.88-.65-1.69-1.57-1.93-.22-.06-.43-.21-.56-.39-.73-1.04-1.68-1.46-2.89-1.28-.34.05-.61-.06-.83-.33-.71-.88-1.75-1.39-2.86-1.4-1.13,0-2.16.5-2.88,1.38-.24.29-.51.4-.87.35-1.19-.16-2.13.25-2.86,1.27-.14.19-.37.35-.59.41-.87.24-1.51,1-1.54,1.86,0,.02,0,.04,0,.07Z"/>
      <path class="cls-1" d="M14.53,19.6h-2.9l-.02-.47c-.13-2.59-.82-4.78-2.1-6.69l-.81-1.22,1.39.46c.44.15.59.08.63.06.08-.05.15-.22.18-.47l.16-1.37.75,1.15c.5.77.92,1.55,1.27,2.4.35-.83.74-1.59,1.2-2.28l.41-.63.42.62c.06.09.12.19.17.29.06.1.15.27.2.3.05.03.24.02.36.02.12,0,.23,0,.35,0l.87.05-.48.72c-1.22,1.83-1.89,4.04-2.02,6.58l-.02.48ZM12.57,18.6h1.01c.17-2.2.74-4.16,1.7-5.86-.1-.02-.2-.06-.3-.12-.11-.06-.2-.14-.27-.23-.44.79-.83,1.67-1.16,2.65l-.48,1.43-.47-1.43c-.32-.96-.69-1.81-1.14-2.63-.06.07-.13.12-.21.17-.11.07-.24.12-.38.15.97,1.73,1.53,3.66,1.7,5.86Z"/>
      <path class="cls-1" d="M4.97,30.26c-.96,0-1.74-.78-1.74-1.74s.78-1.74,1.74-1.74,1.74.78,1.74,1.74-.78,1.74-1.74,1.74ZM4.97,27.78c-.41,0-.74.33-.74.74s.33.74.74.74.74-.33.74-.74-.33-.74-.74-.74Z"/>
      <path class="cls-1" d="M11.46,30.26c-.96,0-1.74-.78-1.74-1.74s.78-1.74,1.74-1.74,1.74.78,1.74,1.74-.78,1.74-1.74,1.74ZM11.46,27.78c-.41,0-.74.33-.74.74s.33.74.74.74.74-.33.74-.74-.33-.74-.74-.74Z"/>
      <path class="cls-1" d="M17.94,30.26c-.96,0-1.74-.78-1.74-1.74s.78-1.74,1.74-1.74,1.74.78,1.74,1.74-.78,1.74-1.74,1.74ZM17.94,27.78c-.41,0-.74.33-.74.74s.33.74.74.74.74-.33.74-.74-.33-.74-.74-.74Z"/>
      <path class="cls-1" d="M8.22,33.19c-.96,0-1.74-.78-1.74-1.74s.78-1.74,1.74-1.74,1.74.78,1.74,1.74-.78,1.74-1.74,1.74ZM8.22,30.71c-.41,0-.74.33-.74.74s.33.74.74.74.74-.33.74-.74-.33-.74-.74-.74Z"/>
      <path class="cls-1" d="M14.7,33.19c-.96,0-1.74-.78-1.74-1.74s.78-1.74,1.74-1.74,1.74.78,1.74,1.74-.78,1.74-1.74,1.74ZM14.7,30.71c-.41,0-.74.33-.74.74s.33.74.74.74.74-.33.74-.74-.33-.74-.74-.74Z"/>
      <path class="cls-1" d="M21.07,33.19c-.96,0-1.74-.78-1.74-1.74s.78-1.74,1.74-1.74,1.74.78,1.74,1.74-.78,1.74-1.74,1.74ZM21.07,30.71c-.41,0-.74.33-.74.74s.33.74.74.74.74-.33.74-.74-.33-.74-.74-.74Z"/>
      <path class="cls-1" d="M11.46,36.11c-.96,0-1.74-.78-1.74-1.74s.78-1.74,1.74-1.74,1.74.78,1.74,1.74-.78,1.74-1.74,1.74ZM11.46,33.64c-.41,0-.74.33-.74.74s.33.74.74.74.74-.33.74-.74-.33-.74-.74-.74Z"/>
      <path class="cls-1" d="M17.94,36.11c-.96,0-1.74-.78-1.74-1.74s.78-1.74,1.74-1.74,1.74.78,1.74,1.74-.78,1.74-1.74,1.74ZM17.94,33.64c-.41,0-.74.33-.74.74s.33.74.74.74.74-.33.74-.74-.33-.74-.74-.74Z"/>
    </g>
  </g>
</svg>