<?xml version="1.0" encoding="UTF-8"?>
<svg id="Capa_2" data-name="Capa 2" xmlns="http://www.w3.org/2000/svg" viewBox="0 0 30 29.99">
  <defs>
    <style>
      .cls-1 {
        fill: #9dc131;
      }
    </style>
  </defs>
  <g id="Capa_1-2" data-name="Capa 1">
    <g>
      <path class="cls-1" d="M10.64,19.64c-.5,0-.79-.24-.88-.72-.27-1.42-1.42-2.56-2.87-2.84l-.56-.13-.09-.42V1.04h20.64v18.59h-4.39c-3.95,0-7.9,0-11.85,0ZM7.24,15.13c1.74.39,3.12,1.78,3.49,3.5,3.96,0,7.86,0,11.76,0h3.39V2.04H7.24v13.09Z"/>
      <path class="cls-1" d="M29.22,20.66c-.27,0-.51-.12-.62-.18l-.35-.18c-.28-.14-.55-.28-.83-.41-.33-.15-.49-.42-.49-.79,0-.45,0-.91,0-1.37v-3.25c0-4.23,0-8.46,0-12.69,0-.24,0-.86.72-1.13.22-.08.42-.19.63-.31.11-.06.22-.12.33-.17.17-.08.62-.31,1.01-.07.39.24.39.74.39.92v18.57c0,.19,0,.7-.39.94-.13.08-.26.11-.39.11ZM27.93,19.03c.26.12.52.25.77.38l.3.15V1.1l-.25.13c-.25.13-.49.26-.75.36-.06.02-.08.06-.08.19,0,4.23,0,8.46,0,12.69v3.25c0,.43,0,.86,0,1.29Z"/>
      <path class="cls-1" d="M4.99,16.01c-.15,0-.3,0-.44-.01-.77-.05-1.34-.62-1.42-1.4,0-.08,0-.17,0-.25V1.06c0-.14,0-.25.02-.37.06-.27.22-.49.45-.61.22-.11.48-.11.71,0,.51.24,1.02.49,1.51.76.35.19.38.65.38.74,0,.71,0,1.42,0,2.14v12.28s-.86,0-.86,0c-.11,0-.23,0-.34,0ZM4.11,1.11v13.19c0,.1,0,.15,0,.19.03.3.21.49.5.5.19.01.37.01.57,0V3.72c0-.69,0-1.38,0-2.08-.35-.19-.71-.37-1.07-.54Z"/>
      <path class="cls-1" d="M7.85,26.36c-.98,0-1.85-.68-2.05-1.61-.09-.41-.07-.89.04-1.35.21-.85.77-1.49,1.28-2.02l.35-.37.36.36c.14.14.29.28.43.41.33.31.66.63.97.98.49.56.68,1.27.54,1.97-.18.93-.95,1.6-1.86,1.63-.02,0-.04,0-.06,0ZM7.51,22.44c-.35.41-.59.78-.69,1.2-.07.31-.09.64-.03.91.1.47.6.84,1.1.82.45-.01.82-.34.91-.82.08-.41-.03-.79-.32-1.13-.28-.32-.58-.61-.9-.91-.02-.02-.04-.04-.07-.06Z"/>
      <path class="cls-1" d="M2.46,22.74c-.73,0-1.38-.41-1.71-1.09-.38-.8-.29-1.63.26-2.32.61-.76,1.48-1,2.25-1.13.13-.02.27-.04.41-.05l.62-.07.1.43c.21.87.39,1.8.04,2.77-.31.85-.95,1.36-1.8,1.44-.06,0-.12,0-.17,0ZM3.53,19.18s-.06,0-.09.01c-.71.12-1.26.3-1.64.76-.32.4-.36.8-.14,1.26.17.36.5.55.89.51.47-.04.78-.29.95-.78.21-.58.15-1.17.03-1.77Z"/>
      <path class="cls-1" d="M2,29.99c-.49,0-.97-.18-1.34-.53-.74-.69-.87-1.78-.31-2.58.26-.38.61-.69.98-.88.37-.19.76-.31,1.14-.43l.4-.13c.28-.09.48-.03.6.04.12.07.28.21.34.48.08.35.17.7.25,1.06l.13.54v.08c-.07.61-.22,1.37-.93,1.91-.37.29-.81.43-1.25.43ZM2.89,26.49s-.09.03-.13.04c-.35.11-.69.22-.98.37-.21.11-.44.32-.61.56-.27.39-.2.93.17,1.27.35.33.9.34,1.3.04.31-.24.46-.57.53-1.14l-.09-.37c-.06-.26-.12-.51-.18-.77Z"/>
      <path class="cls-1" d="M16.61,17.31c-3.89,0-6.97-3.01-7.03-6.89-.03-1.86.68-3.63,1.99-4.97,1.3-1.33,3.02-2.08,4.84-2.1.03,0,.06,0,.09,0,3.89,0,6.97,3.05,7.02,6.97h0c.03,1.81-.68,3.54-1.98,4.88s-3.02,2.08-4.84,2.11c-.03,0-.07,0-.1,0ZM16.51,3.85s-.06,0-.08,0c-1.69.02-3.29.71-4.49,1.95-1.22,1.25-1.87,2.89-1.85,4.62.05,3.6,2.91,6.4,6.53,6.4.03,0,.06,0,.1,0,1.68-.02,3.28-.72,4.49-1.96,1.21-1.24,1.86-2.85,1.84-4.52h0c-.05-3.65-2.91-6.48-6.52-6.48ZM16.54,16.27c-.11,0-.21-.02-.31-.05-.33-.12-.57-.41-.67-.84-.22-.86-.3-1.73-.26-2.66-1.13-.36-2.12-1.03-3.05-2.07-.32-.36-.62-.75-.91-1.17-.21-.31-.26-.67-.13-.99.13-.33.44-.57.84-.66.33-.07.65-.14.93-.27.84-.4,1.58-.61,2.31-.68l.06-.34c.07-.41.13-.81.22-1.21.09-.44.32-.75.65-.87.34-.13.73-.04,1.1.24.21.16.44.3.67.45.22.14.43.27.64.42l.24.18c.42.3.85.62,1.22,1,1.02,1.06,1.17,2.42.41,3.57.04.09.07.18.11.27.12.3.24.58.31.88.15.66.02,1.32-.4,1.95-.46.7-1.08,1.26-1.91,1.73-.44.25-.87.53-1.28.85-.25.19-.52.29-.77.29ZM16.53,4.89c-.05,0-.1,0-.14.02-.16.06-.28.24-.34.5-.08.39-.15.78-.21,1.19l-.12.74h-.2c-.74.05-1.48.26-2.33.66-.33.16-.69.24-1.04.31-.23.05-.41.18-.48.35-.06.16-.04.35.08.52.28.41.57.78.87,1.12.91,1.02,1.89,1.67,3,1.98l.19.05v.2c-.07.95,0,1.84.22,2.71.06.26.19.43.35.49.17.06.39,0,.61-.17.43-.33.88-.62,1.34-.88.75-.43,1.32-.94,1.74-1.57.34-.51.45-1.04.33-1.57-.06-.26-.17-.53-.28-.8-.05-.13-.11-.26-.16-.4l-.05-.13.08-.11c.71-.99.61-2.12-.28-3.04-.34-.35-.75-.65-1.16-.94l-.25-.18c-.2-.14-.4-.27-.61-.4-.24-.15-.48-.3-.7-.47-.17-.13-.34-.19-.48-.19Z"/>
      <path class="cls-1" d="M16.73,5.91c.93.67,2.01,1.02,2.65,1.99.64.97.08,2.22-1.07,2.33-.58.06-1.1-.23-1.36-.76-.44-.89-.43-1.83-.34-2.78.02-.24.07-.48.12-.78"/>
      <path class="cls-1" d="M16.73,14.73c-.21-1.27-.32-2.51.33-3.73.77.34,1.52.36,2.25,0,.45.4.48,1.25.12,1.67-.37.43-.78.84-1.23,1.18-.44.33-.95.57-1.47.87"/>
      <path class="cls-1" d="M12.6,9.05c1.01-.27,1.86-.91,2.94-.89.1.76.28,1.5.71,2.14-.18.39-.35.77-.54,1.2-1.32-.41-2.25-1.33-3.11-2.44"/>
    </g>
  </g>
</svg>