<?xml version="1.0" encoding="UTF-8"?>
<svg id="Capa_2" data-name="Capa 2" xmlns="http://www.w3.org/2000/svg" viewBox="0 0 30 38.54">
  <defs>
    <style>
      .cls-1 {
        fill: #9dc131;
      }
    </style>
  </defs>
  <g id="Capa_1-2" data-name="Capa 1">
    <path class="cls-1" d="M29.36,23.82c-.41-.62-.53-1.09-.64-1.5-.23-.9-.48-1.49-2-2.09-.72-.31-1.66-.31-2.69-.2.08-.69.33-1.24.61-1.81.1-.21.2-.41.32-.7.6-2.66.46-4.42-.46-5.53-1.1-1.33-3.13-1.42-5.35-1.36.04-.7.26-1.69.64-1.87.81-.32,1.38-.85,1.69-1.57.07-.17.15-.37.23-.59.05-.14.1-.29.16-.44.33-.17.6-.23.76-.16.18.08.27.35.32.56.05.24.27.41.51.4.24,0,.44-.19.48-.43.05-.37.04-.69-.04-.98.02,0,.03-.01.05-.02.22-.11.33-.35.26-.58-.14-.48-.32-.85-.52-1.12.12-.17.13-.4,0-.58-.47-.67-1.11-.97-1.8-.86-.9.14-1.72.98-2.11,2.15-.23.02-.71-.05-1.09-.29-.14-.09-.3-.23-.32-.39-.01-.2,0-.41.02-.64.02-.36.05-.75,0-1.15.1-.12.17-.27.19-.43.04-.23-.03-.44-.14-.55-.03-.03-.05-.06-.08-.09.01-.13,0-.27-.06-.4-.11-.28-.36-.48-.64-.51-.14-.02-.27,0-.39.06-.16-.12-.38-.19-.59-.14-.29.07-.45.26-.55.45-.31,0-.58.18-.68.46-.06.16-.04.35.05.52-.2.17-.51.46-.58.91-.03.18.04.35.18.46.08.07.19.11.29.11-.04.26.04.51.19.69.04.05.08.09.12.12-.06.11-.13.23-.21.35-.54.89-1.21,1.99.15,3.62.29.36.67.66,1.14.9.03.02.06.04.09.06.64.34.76,1.38.75,2.01-.76.02-1.52.04-2.27,0-.67-.05-1.13.06-1.46.15-.42.1-.53.13-.89-.15-.08-.06-1.33-.95-1.79-1.16-.16-.07-.42-.06-.57.04-.26.18-.25.47-.24.65.02.27.01.44-.23.59-.31.2-.38.27-.51.45-.06.09-.17.24-.51.59-.02.02-.04.05-.06.08-.15.23-.43.31-.7.39-.3.08-.63.18-.77.52-.09.22-.06.46.07.7.01.03.03.08.05.14.1.34.22.73.56.86,1.55.66,2.39.64,2.95.63.6-.02.81-.02,1.96,1.71.91,1.35.91,2.81.87,3.36-.72-.23-1.01-.24-2.21.06-.69.2-1.64-.05-2.94-.75-1.47-.76-1.56-1.13-1.57-1.14-.29-1.32-.93-1.61-1.41-1.62h-.02c-.99,0-1.92,1.22-2.06,1.74-.22.92-2.29,2.78-2.8,2.9-.49.08-.84.36-.97.81-.26.87.41,2.07.99,2.6.58.53,1.58.43,2.24.36l.23-.02c.43-.03.81-.15,1.14-.25.7-.22,1.03-.3,1.47.14.38.38.44.65.52,1.01.1.47.23,1.07,1.03,1.88.58.58.64.9.71,1.34.08.46.17,1.03.84,1.83.77.91.82,3.99.51,5.76,0,.04,0,.04-.12.13-.17.14-.43.36-.62.87-.06.15-.04.33.05.46.09.14.25.22.41.22h2.45c.15,0,.29-.07.38-.18.09-.11.13-.26.11-.41-.21-1.18-.31-2.93.11-3.95.44-1.02.92-2.51,1.06-3.23.04-.21.1-.25.1-.25.16-.09.85.18,1.35.37,1.86.72,4.91,1.89,8.92-.4.33,1.1.93,1.85,1.39,2.41.2.24.5.61.49.69-.06.22-.05.53-.03.96.03.68.09,1.82-.32,2.16l-.16.13c-.36.28-.41.34-.62.8l-.08.18c-.07.16-.06.34.03.48.09.15.25.23.42.23h2.55c.14,0,.28-.06.38-.17s.14-.25.12-.4c-.12-.88.29-3.44.7-4.84.47-1.48.56-2.2.6-2.58.46-1.79,1.05-5.06-.08-6.73ZM21.6,20.42c-1.83.34-3.72.7-5.21.4-.28-.05-.53-.11-.75-.16,0-.02.02-.03.03-.04.29-.94.49-1.54.74-2.27l.18-.53c1.25.39,3.74.44,5.37-.16.09.17.22.43.4.83l-.23,1.84c-.18.03-.36.07-.54.1ZM19.72,4.64s0,.02-.01.03h0s0-.02.01-.03ZM17.45,7.87s-.09-.08-.15-.11c-.39-.18-.7-.41-.93-.69-.91-1.09-.59-1.61-.07-2.47.21-.34.42-.69.57-1.11.07-.21,0-.44-.18-.57-.04-.03-.08-.05-.13-.06.03-.06.05-.13.06-.18.06-.2.02-.4-.09-.57-.04-.06-.09-.12-.15-.16.03-.05.08-.11.1-.13.12-.08.2-.22.22-.36,0-.04,0-.08,0-.12.04-.03.07-.07.1-.11.1.07.2.1.26.11.03,0,.08.01.14,0,0,.05.02.11.04.15.03.07.07.13.13.17-.05.1-.07.23-.03.35.09.34.06.74.04,1.14-.02.27-.03.53-.02.78.09.94,1.07,1.43,1.89,1.57.71.12,1.2-.03,1.37-.41v-.02s.04-.07.06-.11c.15-.49.41-.92.71-1.21,0,.03.02.06.04.08.11.18.31.28.52.24,0,0,0,0,.01,0-.18.13-.34.31-.49.55-.1.16-.1.36,0,.52.02.03.04.06.06.08-.1.05-.2.1-.3.16-.09.05-.16.14-.21.24-.09.21-.17.43-.24.64-.07.19-.13.37-.2.53-.2.47-.58.82-1.17,1.05-.52.25-.83.79-1.01,1.38-.16-.51-.44-1.02-.93-1.34ZM14,16.3c-1.27-1.9-1.74-2.15-2.65-2.15-.05,0-.11,0-.17,0-.48.01-1.14.03-2.43-.5-.03-.08-.07-.21-.09-.28-.01-.04-.02-.07-.03-.11,0,0,.01,0,.02,0,.36-.1.89-.26,1.24-.78.37-.39.49-.56.56-.66.05-.06.05-.07.25-.2.39-.25.56-.57.63-.87.42.28.92.62,1.03.71.74.58,1.25.45,1.74.33.3-.07.63-.16,1.16-.12,1.05.05,2.1.02,3.11-.02,2.38-.08,4.44-.15,5.37.97.69.84.77,2.36.28,4.59-.08.19-.17.38-.27.57-.13.26-.26.54-.38.84l.02-.15c.01-.09,0-.18-.04-.26-.6-1.35-.8-1.51-.87-1.56-.15-.12-.36-.14-.54-.06-1.67.83-4.85.51-5.27.21-.12-.13-.3-.18-.47-.15-.17.04-.31.16-.37.33l-.35,1.05c-.15.45-.29.86-.44,1.32-.07-.83-.31-1.96-1.04-3.04ZM28.44,30.4v.11c-.05.28-.12.93-.57,2.33-.35,1.19-.76,3.39-.77,4.7h-1.04l.06-.05c.79-.67.73-2.01.68-2.99-.01-.23-.03-.55,0-.67.12-.57-.25-1.03-.69-1.57-.51-.63-1.14-1.4-1.34-2.65-.03-.17-.14-.31-.29-.38-.16-.07-.33-.06-.47.04-3.88,2.5-6.74,1.4-8.62.67-.94-.36-1.63-.63-2.19-.32-.31.17-.51.48-.6.94-.13.66-.59,2.08-1,3.04-.5,1.23-.38,2.98-.26,3.93h-.84c.09-.11.18-.27.23-.48.26-1.56.43-5.22-.73-6.6-.49-.59-.55-.94-.62-1.35-.09-.5-.18-1.07-.99-1.88-.59-.61-.67-.97-.76-1.39-.09-.43-.2-.91-.79-1.5-.89-.89-1.77-.61-2.48-.39-.31.1-.6.19-.91.21l-.27.03c-.36.04-1.21.13-1.46-.1-.48-.44-.8-1.26-.71-1.57.01-.04.03-.09.17-.11,0,0,0,0,0,0,.87-.14,3.29-2.31,3.61-3.64.08-.25.73-1,1.09-.99.16,0,.34.33.45.83.12.57.76,1.13,2.08,1.82,1.53.83,2.73,1.1,3.67.84,1.07-.26,1.14-.24,1.76-.04.44.14,1.09.35,2.36.6,1.67.34,3.66-.03,5.58-.39,1.83-.34,3.57-.67,4.56-.25,1.16.46,1.24.76,1.41,1.42.12.46.27,1.04.77,1.8.66.98.63,3.19-.08,6.02Z"/>
  </g>
</svg>