<?xml version="1.0" encoding="UTF-8"?>
<svg id="Capa_2" data-name="Capa 2" xmlns="http://www.w3.org/2000/svg" viewBox="0 0 31.51 33.21">
  <defs>
    <style>
      .cls-1 {
        fill: #9dc131;
      }
    </style>
  </defs>
  <g id="Capa_1-2" data-name="Capa 1">
    <g>
      <path class="cls-1" d="M4.66,21.82c-.36-.23-.7-.43-1.03-.66-.88-.64-1.53-1.43-1.62-2.57,0-.07-.11-.17-.19-.2-1.19-.44-1.67-1.33-1.39-2.56.49-2.12.98-4.24,1.45-6.37.18-.79.63-1.32,1.39-1.6.11-.04.21-.17.26-.28.11-.27.17-.56.27-.84.23-.64.83-1,1.51-.89.38.06.77.13,1.14.23.69.17,1.09.8.97,1.51-.05.27-.14.52-.2.79-.02.11,0,.23.08.35.06-.12.12-.24.17-.37.6-1.71,3.48-2.21,4.52-.52.48.79.89,1.63,1.27,2.47.42.93.77,1.9,1.14,2.85.12.3.31.48.64.58,1.04.33,2.07.7,3.11,1.05,1.18.4,1.55,1.09,1.21,2.28-.01.04-.02.09-.02.08,1.5.48,2.99.94,4.47,1.45.82.29,1.6.68,2.4,1.03.35.16.48.43.35.7-.12.26-.42.34-.77.17-2.34-1.15-4.8-1.92-7.34-2.51-.24-.06-.43-.04-.6.15-.69.8-1.4,1.59-2.09,2.39-.33.39-.61.8-.94,1.24.23.25.48.52.75.79.39.39.61.84.61,1.39,0,2.45.02,4.91,0,7.36-.01,1.07-.93,1.9-1.99,1.9-1.04,0-1.96-.8-1.99-1.86-.05-1.41-.02-2.83-.02-4.24,0-.65.02-1.3-.01-1.95,0-.2-.09-.43-.22-.59-.3-.39-.63-.76-.97-1.12-.08-.09-.23-.17-.35-.18-.75-.05-1.5-.09-2.29-.13-.09.56-.19,1.18-.3,1.8-.02.11-.06.23-.12.32-1.29,2.05-2.58,4.11-3.89,6.15-.49.76-1.21,1.13-2.11,1-.92-.13-1.55-.66-1.83-1.55-.2-.63-.07-1.23.26-1.79,1.37-2.31,2.74-4.62,4.11-6.93.06-.11.13-.22.19-.33M13.29,21.7c-.96-.99-1.82-1.9-2.7-2.78-.21-.21-.26-.42-.2-.7.24-1.15.46-2.31.71-3.46.06-.27.02-.47-.11-.7-.43-.75-.85-1.5-1.26-2.25-.16-.3-.08-.58.19-.73.25-.14.51-.06.7.21.05.07.08.14.12.22.54.98,1.12,1.94,1.62,2.94.3.61.7.98,1.37,1.11.32.06.63.2.94.31,1.04.35,2.08.7,3.12,1.04.34.11.63-.02.73-.3.11-.3-.05-.61-.37-.75-.06-.03-.13-.05-.2-.07-1.18-.4-2.37-.79-3.54-1.22-.22-.08-.47-.26-.58-.46-.33-.62-.63-1.26-.9-1.91-.4-.95-.74-1.93-1.16-2.88-.25-.57-.64-1.05-1.2-1.35-.78-.42-1.73-.13-2.1.67-.18.39-.33.81-.43,1.23-.56,2.34-1.07,4.68-1.64,7.02-.32,1.33-.58,2.67-.47,4.05.01.12.05.32.13.35.47.2.96.36,1.47.54.1-.69.17-1.32.29-1.95.04-.22.16-.5.33-.6.26-.15.5.06.69.28.72.83,1.45,1.65,2.16,2.48.14.16.27.24.48.18.56-.16,1.13-.32,1.79-.5M6.84,10.4c.02-.72-.31-1.13-.94-1.27-.52-.11-1.04-.22-1.55-.33-.75-.16-1.29.16-1.46.9-.48,2.1-.96,4.2-1.44,6.3-.17.76.21,1.35.98,1.52.49.11.99.21,1.49.31.75.16,1.27-.16,1.44-.91.36-1.55.7-3.1,1.05-4.65.15-.67.31-1.33.43-1.87M5.64,22.27c-.04.06-.09.12-.14.19-.61,1.01-1.21,2.02-1.81,3.03-.82,1.36-1.63,2.73-2.45,4.09-.25.42-.31.84-.05,1.27.47.81,1.5.8,2.02-.02,1.27-1.99,2.52-3.98,3.78-5.97.05-.08.1-.16.12-.25.1-.58.19-1.16.28-1.75-.59-.2-1.16-.4-1.75-.6M12.03,23.15c.28.31.55.63.85.93.23.23.32.49.32.82-.01,2.03,0,4.05,0,6.08,0,.18,0,.36.05.52.14.49.61.77,1.13.69.49-.08.82-.48.82-1.03,0-2.33.01-4.66-.01-6.99,0-.29-.15-.62-.33-.86-.26-.34-.6-.62-.89-.9-.65.25-1.27.5-1.94.76M11.84,15.81c-.15.7-.33,1.45-.47,2.2-.02.13.06.32.16.42.73.76,1.47,1.5,2.2,2.25.11.11.19.25.3.4.52-.65.96-1.22,1.42-1.77.47-.55.95-1.09,1.45-1.65-.14-.05-.24-.09-.35-.13-1.34-.45-2.68-.89-4.02-1.35-.24-.08-.46-.24-.7-.37M3.13,18.7c.24.98.95,1.52,1.8,2.04v-1.91c-.58-.04-1.16-.08-1.8-.12M4.55,7.8c.56.12,1.09.23,1.62.34.04-.08.07-.11.08-.16.21-.71.5-.91-.6-1.1-.84-.14-.84-.16-1.05.66-.02.07-.03.14-.05.26M9.86,22.27s.03-.07.04-.1c-.38-.43-.76-.85-1.19-1.33-.07.46-.13.83-.2,1.25.48.07.91.13,1.35.19"/>
      <path class="cls-1" d="M16.27,2.26c.96,0,1.89,0,2.82,0,.18,0,.41.04.52.15.11.12.17.4.11.53-.07.15-.31.3-.48.31-.82.03-1.65,0-2.47.02-.17,0-.34.07-.5.11.17.04.34.11.51.13.23.02.47,0,.71,0,.35.01.52.18.54.52.09,1.81-1.27,3.73-3.02,4.26-.39.12-.65,0-.78-.39-.13-.4-.25-.8-.38-1.22-1.01.07-1.86-.25-2.43-1.06-.26-.37-.47-.83-.53-1.28-.09-.62-.09-1.27-.02-1.9C11,1.1,12.07.11,13.45,0c1.28-.1,2.39.73,2.76,2.06.02.06.03.11.06.2M15.34,3.52c0-.31,0-.56,0-.82-.04-.95-.76-1.66-1.7-1.68-.93-.02-1.73.67-1.79,1.6-.03.53-.03,1.06,0,1.59.05.7.57,1.29,1.24,1.47.12.03.26.03.39.04,0-.08,0-.1,0-.12-.12-.42-.24-.84-.36-1.25-.15-.54.05-.81.61-.82.52,0,1.03,0,1.6,0M17,4.55h-2.75c.27.9.53,1.76.8,2.65,1.09-.58,1.74-1.43,1.95-2.65"/>
      <path class="cls-1" d="M27.9,24.22c-.13.12-.25.31-.42.37-.24.09-.49-.02-.57-.28-.2-.64-.38-1.29-.53-1.94-.06-.25.09-.44.33-.51.24-.08.49-.02.57.22.23.68.41,1.37.64,2.15"/>
      <path class="cls-1" d="M31.51,20.37c0,.38-.26.62-.56.55-.65-.15-1.3-.33-1.94-.53-.25-.08-.34-.32-.27-.58.08-.27.3-.39.55-.33.64.15,1.28.32,1.9.53.15.05.25.27.31.35"/>
      <path class="cls-1" d="M28.75,21.38c.17.1.31.15.41.24.41.39.81.79,1.2,1.2.25.26.25.54.03.75-.21.2-.48.19-.72-.04-.41-.39-.82-.78-1.19-1.21-.11-.13-.16-.39-.11-.56.04-.14.25-.24.39-.37"/>
    </g>
  </g>
</svg>